<?xml version="1.0" encoding="UTF-8"?>
<svg xmlns="http://www.w3.org/2000/svg" viewBox="0 0 1920 1080" width="1920" height="1080">
  <defs>
    <linearGradient id="bg" x1="0%" y1="0%" x2="0%" y2="100%">
      <stop offset="0%" stop-color="#c7ddf5"/>
      <stop offset="100%" stop-color="#b8d4f0"/>
    </linearGradient>
  </defs>
  <rect width="1920" height="1080" fill="url(#bg)"/>

  <text x="960" y="28" text-anchor="middle" font-family="system-ui, sans-serif"
        font-size="18" font-weight="700" fill="#4b5563" letter-spacing="1">THEMES - /themes (AS-IS)</text>

  <text x="40" y="52" fill="#8b5cf6" font-family="system-ui, sans-serif" font-size="18" font-weight="bold">DESKTOP (16:9)</text>
  <text x="1500" y="52" fill="#d946ef" font-family="system-ui, sans-serif" font-size="15" font-weight="bold">MOBILE</text>

  <!-- DESKTOP 1280x720 -->
  <g id="desktop" transform="translate(40, 60)">
    <rect width="1280" height="720" rx="8" fill="#e8d4b8" stroke="#b8a080"/>

    <use href="includes/header-desktop.svg#desktop-header" x="0" y="0"/>
    <!-- Active Account nav (Themes lives under Account dropdown) -->
    <rect x="660" y="3" width="80" height="44" rx="4" fill="#8b5cf6"/>
    <text x="700" y="31" text-anchor="middle" fill="#e8d4b8" font-family="system-ui, sans-serif" font-size="14" font-weight="600">Account</text>

    <!-- Centered page heading -->
    <text x="640" y="120" text-anchor="middle" font-family="system-ui, sans-serif" font-size="32" font-weight="bold" fill="#1f2937">ScriptHammer Theme Playground</text>
    <text x="640" y="150" text-anchor="middle" font-family="system-ui, sans-serif" font-size="18" fill="#4b5563">Explore 34 themes including custom ScriptHammer variants</text>

    <!-- ThemeSwitcher (large component — 34 theme tiles grid) -->
    <rect x="140" y="180" width="1000" height="220" rx="8" fill="#f5f0e6" stroke="#b8a080"/>
    <text x="160" y="206" font-family="system-ui, sans-serif" font-size="14" font-weight="700" fill="#4b5563" letter-spacing="1">THEME SWITCHER (34 themes)</text>
    <!-- Grid of theme swatches: 8 cols x 4 rows showing a sample -->
    <g transform="translate(160, 222)">
      <!-- Row 1 -->
      <rect x="0"   y="0" width="112" height="40" rx="4" fill="#f5f0e6" stroke="#8b5cf6" stroke-width="2"/><text x="56" y="25" text-anchor="middle" font-family="system-ui, sans-serif" font-size="14" font-weight="600" fill="#1f2937">ScriptHammer</text>
      <rect x="120" y="0" width="112" height="40" rx="4" fill="#1a1a2e"/><text x="176" y="25" text-anchor="middle" font-family="system-ui, sans-serif" font-size="14" fill="#e8d4b8">sh-dark</text>
      <rect x="240" y="0" width="112" height="40" rx="4" fill="#f3f4f6" stroke="#b8a080"/><text x="296" y="25" text-anchor="middle" font-family="system-ui, sans-serif" font-size="14" fill="#1f2937">light</text>
      <rect x="360" y="0" width="112" height="40" rx="4" fill="#1e293b"/><text x="416" y="25" text-anchor="middle" font-family="system-ui, sans-serif" font-size="14" fill="#e5e7eb">dark</text>
      <rect x="480" y="0" width="112" height="40" rx="4" fill="#d4cdb4"/><text x="536" y="25" text-anchor="middle" font-family="system-ui, sans-serif" font-size="14" fill="#1f2937">retro</text>
      <rect x="600" y="0" width="112" height="40" rx="4" fill="#e8c3cc"/><text x="656" y="25" text-anchor="middle" font-family="system-ui, sans-serif" font-size="14" fill="#1f2937">valentine</text>
      <rect x="720" y="0" width="112" height="40" rx="4" fill="#047857"/><text x="776" y="25" text-anchor="middle" font-family="system-ui, sans-serif" font-size="14" fill="#e8d4b8">forest</text>
      <rect x="840" y="0" width="112" height="40" rx="4" fill="#ffe3a8"/><text x="896" y="25" text-anchor="middle" font-family="system-ui, sans-serif" font-size="14" fill="#1f2937">cupcake</text>
      <!-- Row 2 -->
      <rect x="0"   y="48" width="112" height="40" rx="4" fill="#262626"/><text x="56" y="73" text-anchor="middle" font-family="system-ui, sans-serif" font-size="14" fill="#e5e7eb">synthwave</text>
      <rect x="120" y="48" width="112" height="40" rx="4" fill="#3a2d20"/><text x="176" y="73" text-anchor="middle" font-family="system-ui, sans-serif" font-size="14" fill="#e8d4b8">coffee</text>
      <rect x="240" y="48" width="112" height="40" rx="4" fill="#fef3c7"/><text x="296" y="73" text-anchor="middle" font-family="system-ui, sans-serif" font-size="14" fill="#1f2937">lemonade</text>
      <rect x="360" y="48" width="112" height="40" rx="4" fill="#f59e0b"/><text x="416" y="73" text-anchor="middle" font-family="system-ui, sans-serif" font-size="14" fill="#1f2937">autumn</text>
      <rect x="480" y="48" width="112" height="40" rx="4" fill="#3d52d5"/><text x="536" y="73" text-anchor="middle" font-family="system-ui, sans-serif" font-size="14" fill="#e5e7eb">cyberpunk</text>
      <rect x="600" y="48" width="112" height="40" rx="4" fill="#37474f"/><text x="656" y="73" text-anchor="middle" font-family="system-ui, sans-serif" font-size="14" fill="#e8d4b8">business</text>
      <rect x="720" y="48" width="112" height="40" rx="4" fill="#1f2937"/><text x="776" y="73" text-anchor="middle" font-family="system-ui, sans-serif" font-size="14" fill="#e5e7eb">black</text>
      <rect x="840" y="48" width="112" height="40" rx="4" fill="#fecaca"/><text x="896" y="73" text-anchor="middle" font-family="system-ui, sans-serif" font-size="14" fill="#1f2937">nord</text>
    </g>
    <text x="640" y="380" text-anchor="middle" font-family="system-ui, sans-serif" font-size="14" fill="#4b5563">+ 18 more themes · click a swatch to apply globally</text>

    <!-- Divider: Theme Preview -->
    <line x1="200" y1="412" x2="560" y2="412" stroke="#b8a080" stroke-width="1"/>
    <text x="640" y="418" text-anchor="middle" font-family="system-ui, sans-serif" font-size="14" font-weight="700" fill="#4b5563" letter-spacing="1">THEME PREVIEW</text>
    <line x1="720" y1="412" x2="1080" y2="412" stroke="#b8a080" stroke-width="1"/>

    <!-- 2-col grid: Typography + Colors -->
    <rect x="40" y="430" width="600" height="200" rx="8" fill="#dcc8a8" stroke="#b8a080"/>
    <text x="60" y="456" font-family="system-ui, sans-serif" font-size="16" font-weight="700" fill="#1f2937">Typography</text>
    <text x="60" y="484" font-family="system-ui, sans-serif" font-size="20" font-weight="700" fill="#1f2937">Heading Example</text>
    <text x="60" y="506" font-family="system-ui, sans-serif" font-size="16" fill="#374151">Lead paragraph text</text>
    <text x="60" y="526" font-family="system-ui, sans-serif" font-size="14" fill="#374151">Body text for regular content in the current theme.</text>
    <text x="60" y="546" font-family="system-ui, sans-serif" font-size="14" fill="#4b5563">Small text for secondary information</text>
    <rect x="60" y="556" width="260" height="28" rx="4" fill="#f5f0e6" stroke="#b8a080"/>
    <text x="70" y="575" font-family="monospace" font-size="14" fill="#1f2937">const theme = "current";</text>

    <rect x="660" y="430" width="580" height="200" rx="8" fill="#dcc8a8" stroke="#b8a080"/>
    <text x="680" y="456" font-family="system-ui, sans-serif" font-size="16" font-weight="700" fill="#1f2937">Theme Colors</text>
    <rect x="680" y="470" width="540" height="36" rx="6" fill="#8b5cf6"/>
    <text x="950" y="493" text-anchor="middle" font-family="system-ui, sans-serif" font-size="14" fill="#e8d4b8" font-weight="600">Primary</text>
    <rect x="680" y="512" width="540" height="36" rx="6" fill="#ec4899"/>
    <text x="950" y="535" text-anchor="middle" font-family="system-ui, sans-serif" font-size="14" fill="#fff" font-weight="600">Secondary</text>
    <rect x="680" y="554" width="540" height="36" rx="6" fill="#06b6d4"/>
    <text x="950" y="577" text-anchor="middle" font-family="system-ui, sans-serif" font-size="14" fill="#fff" font-weight="600">Accent</text>
    <rect x="680" y="596" width="130" height="30" rx="4" fill="#22c55e"/><text x="745" y="616" text-anchor="middle" font-family="system-ui, sans-serif" font-size="14" fill="#fff" font-weight="600">Success</text>
    <rect x="818" y="596" width="130" height="30" rx="4" fill="#f59e0b"/><text x="883" y="616" text-anchor="middle" font-family="system-ui, sans-serif" font-size="14" fill="#fff" font-weight="600">Warning</text>
    <rect x="956" y="596" width="130" height="30" rx="4" fill="#ef4444"/><text x="1021" y="616" text-anchor="middle" font-family="system-ui, sans-serif" font-size="14" fill="#fff" font-weight="600">Error</text>
    <rect x="1094" y="596" width="126" height="30" rx="4" fill="#3b82f6"/><text x="1157" y="616" text-anchor="middle" font-family="system-ui, sans-serif" font-size="14" fill="#fff" font-weight="600">Info</text>

    <use href="includes/footer-desktop.svg#site-footer" x="0" y="640"/>

    <!-- Callouts -->
    <g class="callout"><circle cx="1150" cy="290" r="14" fill="#dc2626"/><text x="1150" y="295" text-anchor="middle" fill="#fff" font-size="14" font-weight="bold">1</text></g>
    <g class="callout"><circle cx="240" cy="500" r="14" fill="#dc2626"/><text x="240" y="505" text-anchor="middle" fill="#fff" font-size="14" font-weight="bold">2</text></g>
    <g class="callout"><circle cx="1000" cy="490" r="14" fill="#dc2626"/><text x="1000" y="495" text-anchor="middle" fill="#fff" font-size="14" font-weight="bold">3</text></g>
  </g>

  <!-- MOBILE 360x720 -->
  <g id="mobile" transform="translate(1360, 60)">
    <rect width="360" height="720" rx="24" fill="#e8d4b8" stroke="#b8a080"/>
    <use href="includes/header-mobile.svg#mobile-header-group" x="0" y="0"/>

    <text x="180" y="110" text-anchor="middle" font-family="system-ui, sans-serif" font-size="18" font-weight="bold" fill="#1f2937">Theme Playground</text>
    <text x="180" y="132" text-anchor="middle" font-family="system-ui, sans-serif" font-size="14" fill="#4b5563">34 themes available</text>

    <!-- Vertical theme swatch list (scrollable in real app) -->
    <rect x="16" y="148" width="328" height="44" rx="4" fill="#f5f0e6" stroke="#8b5cf6" stroke-width="2"/>
    <text x="28" y="176" font-family="system-ui, sans-serif" font-size="15" font-weight="600" fill="#1f2937">ScriptHammer (active)</text>
    <rect x="16" y="198" width="328" height="44" rx="4" fill="#1a1a2e"/>
    <text x="28" y="226" font-family="system-ui, sans-serif" font-size="15" fill="#e8d4b8">sh-dark</text>
    <rect x="16" y="248" width="328" height="44" rx="4" fill="#f3f4f6" stroke="#b8a080"/>
    <text x="28" y="276" font-family="system-ui, sans-serif" font-size="15" fill="#1f2937">light</text>
    <rect x="16" y="298" width="328" height="44" rx="4" fill="#1e293b"/>
    <text x="28" y="326" font-family="system-ui, sans-serif" font-size="15" fill="#e5e7eb">dark</text>
    <rect x="16" y="348" width="328" height="44" rx="4" fill="#d4cdb4"/>
    <text x="28" y="376" font-family="system-ui, sans-serif" font-size="15" fill="#1f2937">retro</text>
    <rect x="16" y="398" width="328" height="44" rx="4" fill="#047857"/>
    <text x="28" y="426" font-family="system-ui, sans-serif" font-size="15" fill="#e8d4b8">forest</text>
    <text x="180" y="472" text-anchor="middle" font-family="system-ui, sans-serif" font-size="14" fill="#4b5563">+ 28 more · scroll to browse</text>

    <!-- Color preview section -->
    <rect x="16" y="488" width="328" height="160" rx="6" fill="#dcc8a8" stroke="#b8a080"/>
    <text x="28" y="512" font-family="system-ui, sans-serif" font-size="14" font-weight="700" fill="#4b5563" letter-spacing="1">COLORS</text>
    <rect x="28" y="522" width="304" height="30" rx="4" fill="#8b5cf6"/><text x="180" y="542" text-anchor="middle" font-family="system-ui, sans-serif" font-size="14" fill="#e8d4b8" font-weight="600">Primary</text>
    <rect x="28" y="558" width="304" height="30" rx="4" fill="#ec4899"/><text x="180" y="578" text-anchor="middle" font-family="system-ui, sans-serif" font-size="14" fill="#fff" font-weight="600">Secondary</text>
    <rect x="28" y="594" width="148" height="30" rx="4" fill="#22c55e"/><text x="102" y="614" text-anchor="middle" font-family="system-ui, sans-serif" font-size="14" fill="#fff" font-weight="600">Success</text>
    <rect x="184" y="594" width="148" height="30" rx="4" fill="#ef4444"/><text x="258" y="614" text-anchor="middle" font-family="system-ui, sans-serif" font-size="14" fill="#fff" font-weight="600">Error</text>

    <use href="includes/footer-mobile.svg#mobile-bottom-nav" x="0" y="664"/>

    <g class="callout"><circle cx="340" cy="170" r="11" fill="#dc2626"/><text x="340" y="175" text-anchor="middle" fill="#fff" font-size="14" font-weight="bold">1</text></g>
  </g>

  <!-- ANNOTATIONS -->
  <g id="annotations" transform="translate(40, 800)">
    <rect width="1840" height="220" rx="8" fill="#dcc8a8" stroke="#b8a080"/>

    <g transform="translate(20, 16)">
      <circle cx="14" cy="14" r="12" fill="#dc2626"/>
      <text x="14" y="19" text-anchor="middle" fill="#fff" font-size="14" font-weight="bold">1</text>
      <text x="38" y="19" font-family="system-ui, sans-serif" font-size="14" font-weight="700" fill="#1f2937">ThemeSwitcher grid</text>
      <a href="#us-001" transform="translate(220, 5)"><rect width="56" height="22" rx="11" fill="#0891b2"/><text x="28" y="17" text-anchor="middle" fill="#f5f0e6" font-size="14" font-weight="700">US-001</text></a>
      <text x="38" y="44" font-family="system-ui, sans-serif" font-size="14" fill="#374151">34 DaisyUI + custom swatches. Click any →</text>
      <text x="38" y="62" font-family="system-ui, sans-serif" font-size="14" fill="#374151">body data-theme swaps, localStorage saves.</text>
    </g>

    <g transform="translate(460, 16)">
      <circle cx="14" cy="14" r="12" fill="#dc2626"/>
      <text x="14" y="19" text-anchor="middle" fill="#fff" font-size="14" font-weight="bold">2</text>
      <text x="38" y="19" font-family="system-ui, sans-serif" font-size="14" font-weight="700" fill="#1f2937">Typography preview card</text>
      <a href="#us-002" transform="translate(260, 5)"><rect width="56" height="22" rx="11" fill="#0891b2"/><text x="28" y="17" text-anchor="middle" fill="#f5f0e6" font-size="14" font-weight="700">US-002</text></a>
      <text x="38" y="44" font-family="system-ui, sans-serif" font-size="14" fill="#374151">&lt;Text&gt; subatomic with h3/h4/lead/body/</text>
      <text x="38" y="62" font-family="system-ui, sans-serif" font-size="14" fill="#374151">small/code variants. Live-rerenders.</text>
    </g>

    <g transform="translate(920, 16)">
      <circle cx="14" cy="14" r="12" fill="#dc2626"/>
      <text x="14" y="19" text-anchor="middle" fill="#fff" font-size="14" font-weight="bold">3</text>
      <text x="38" y="19" font-family="system-ui, sans-serif" font-size="14" font-weight="700" fill="#1f2937">Theme Colors card</text>
      <a href="#us-002" transform="translate(170, 5)"><rect width="56" height="22" rx="11" fill="#0891b2"/><text x="28" y="17" text-anchor="middle" fill="#f5f0e6" font-size="14" font-weight="700">US-002</text></a>
      <text x="38" y="44" font-family="system-ui, sans-serif" font-size="14" fill="#374151">btn-primary / secondary / accent / success /</text>
      <text x="38" y="62" font-family="system-ui, sans-serif" font-size="14" fill="#374151">warning / error / info in active theme.</text>
    </g>

    <g transform="translate(1380, 16)">
      <circle cx="14" cy="14" r="12" fill="#dc2626"/>
      <text x="14" y="19" text-anchor="middle" fill="#fff" font-size="14" font-weight="bold">4</text>
      <text x="38" y="19" font-family="system-ui, sans-serif" font-size="14" font-weight="700" fill="#1f2937">Below-fold preview</text>
      <a href="#us-003" transform="translate(210, 5)"><rect width="56" height="22" rx="11" fill="#0891b2"/><text x="28" y="17" text-anchor="middle" fill="#f5f0e6" font-size="14" font-weight="700">US-003</text></a>
      <text x="38" y="44" font-family="system-ui, sans-serif" font-size="14" fill="#374151">alert-info / alert-success feedback + bg-</text>
      <text x="38" y="62" font-family="system-ui, sans-serif" font-size="14" fill="#374151">base-100/200/300 contrast swatches.</text>
    </g>

    <g transform="translate(20, 130)">
      <text x="0" y="19" font-family="system-ui, sans-serif" font-size="14" font-weight="700" fill="#4b5563" letter-spacing="1">WHAT SHIPS</text>
      <text x="0" y="44" font-family="system-ui, sans-serif" font-size="14" fill="#374151">Source: src/app/themes/page.tsx — ThemeSwitcher component + Text showcase. No auth required.</text>
      <text x="0" y="64" font-family="system-ui, sans-serif" font-size="14" fill="#374151">Theme persists via localStorage; applied via body[data-theme]; 34 DaisyUI themes + custom ScriptHammer variants.</text>
    </g>
  </g>

  <text x="40" y="1060" fill="#374151" font-family="system-ui, sans-serif" font-size="18" font-weight="bold">999:03 | Themes (as-is /themes) | ScriptHammer</text>
</svg>
