<svg xmlns="http://www.w3.org/2000/svg">
<!-- ScriptHammer Mobile Header + Status Bar (INCLUDE - for template injection)
     Position: Top of mobile mockup container (y=0, after container rect)
     Width: 360px (matches wireframe mobile container width)
     Height: 78px (status bar 28px + header bar 50px)
     Corners: Rounded TOP only (rx=24) to match mobile container

     USAGE: Inject content directly into wireframe SVG with appropriate transform.
     Icons are inline paths (nested <use href="#symbol"> doesn't work with external refs).
-->

<g id="mobile-header-group">
  <!-- STATUS BAR (iOS-style) - rounded TOP corners only -->
  <g id="status-bar">
    <path d="M 24 0 L 336 0 A 24 24 0 0 1 360 24 L 360 28 L 0 28 L 0 24 A 24 24 0 0 1 24 0 Z" fill="#dcc8a8"/>
    <text x="20" y="18" fill="#374151" font-family="system-ui, sans-serif" font-size="14px" font-weight="500">9:41</text>
    <g transform="translate(280, 4)">
      <!-- Signal icon (inline) -->
      <g transform="translate(0, 0) scale(0.667)">
        <path fill="#1a1a2e" d="M5.636 4.575a.75.75 0 0 1 0 1.061 9 9 0 0 0 0 12.728.75.75 0 1 1-1.06 1.06c-4.101-4.1-4.101-10.748 0-14.849a.75.75 0 0 1 1.06 0Zm12.728 0a.75.75 0 0 1 1.06 0c4.101 4.1 4.101 10.75 0 14.85a.75.75 0 1 1-1.06-1.061 9 9 0 0 0 0-12.728.75.75 0 0 1 0-1.06ZM7.757 6.697a.75.75 0 0 1 0 1.06 6 6 0 0 0 0 8.486.75.75 0 0 1-1.06 1.06 7.5 7.5 0 0 1 0-10.606.75.75 0 0 1 1.06 0Zm8.486 0a.75.75 0 0 1 1.06 0 7.5 7.5 0 0 1 0 10.606.75.75 0 0 1-1.06-1.06 6 6 0 0 0 0-8.486.75.75 0 0 1 0-1.06ZM9.879 8.818a.75.75 0 0 1 0 1.06 3 3 0 0 0 0 4.243.75.75 0 1 1-1.061 1.061 4.5 4.5 0 0 1 0-6.364.75.75 0 0 1 1.06 0Zm4.242 0a.75.75 0 0 1 1.061 0 4.5 4.5 0 0 1 0 6.364.75.75 0 0 1-1.06-1.06 3 3 0 0 0 0-4.243.75.75 0 0 1 0-1.061ZM10.875 12a1.125 1.125 0 1 1 2.25 0 1.125 1.125 0 0 1-2.25 0Z"/>
      </g>
      <!-- Battery icon (inline) -->
      <g transform="translate(20, 0) scale(0.667)">
        <path fill="#1a1a2e" fill-rule="evenodd" clip-rule="evenodd" d="M.75 9.75a3 3 0 0 1 3-3h15a3 3 0 0 1 3 3v.038c.856.173 1.5.93 1.5 1.837v.75c0 .907-.644 1.664-1.5 1.838v.037a3 3 0 0 1-3 3h-15a3 3 0 0 1-3-3v-4.5Zm3-1.5a1.5 1.5 0 0 0-1.5 1.5v4.5a1.5 1.5 0 0 0 1.5 1.5h15a1.5 1.5 0 0 0 1.5-1.5v-4.5a1.5 1.5 0 0 0-1.5-1.5h-15Z"/>
        <path fill="#1a1a2e" d="M3 10.5a.75.75 0 0 1 .75-.75h13.5a.75.75 0 0 1 .75.75v3a.75.75 0 0 1-.75.75H3.75a.75.75 0 0 1-.75-.75v-3Z"/>
      </g>
    </g>
  </g>

  <!-- HEADER BAR -->
  <g id="mobile-header" transform="translate(0, 28)">
    <!-- Header background - full width, no corner rounding (middle of mobile frame) -->
    <rect width="360" height="50" rx="0" fill="#dcc8a8" stroke="#b8a080"/>

    <!-- Hamburger menu (left) - 44px tap target -->
    <rect x="3" y="3" width="44" height="44" rx="4" fill="transparent"/>
    <g transform="translate(13, 13)">
      <path fill="#2d3748" fill-rule="evenodd" clip-rule="evenodd" d="M3 6.75A.75.75 0 0 1 3.75 6h16.5a.75.75 0 0 1 0 1.5H3.75A.75.75 0 0 1 3 6.75ZM3 12a.75.75 0 0 1 .75-.75h16.5a.75.75 0 0 1 0 1.5H3.75A.75.75 0 0 1 3 12Zm0 5.25a.75.75 0 0 1 .75-.75h16.5a.75.75 0 0 1 0 1.5H3.75a.75.75 0 0 1-.75-.75Z"/>
    </g>

    <!-- Logo (left of center) -->
    <rect x="55" y="10" width="24" height="24" rx="4" fill="#8b5cf6"/>
    <text x="85" y="30" fill="#374151" font-family="system-ui, sans-serif" font-size="14px" font-weight="500">ScriptHammer</text>

    <!-- Header right side: Accessibility + Settings + Avatar -->
    <g transform="translate(220, 3)">
      <!-- Accessibility icon (eye) - 44px tap target -->
      <rect x="0" y="0" width="44" height="44" rx="4" fill="transparent"/>
      <g transform="translate(10, 10)">
        <path fill="#1a1a2e" d="M12 15a3 3 0 1 0 0-6 3 3 0 0 0 0 6Z"/>
        <path fill="#1a1a2e" fill-rule="evenodd" clip-rule="evenodd" d="M1.323 11.447C2.811 6.976 7.028 3.75 12.001 3.75c4.97 0 9.185 3.223 10.675 7.69.12.362.12.752 0 1.113-1.487 4.471-5.705 7.697-10.677 7.697-4.97 0-9.186-3.223-10.675-7.69a1.762 1.762 0 0 1 0-1.113ZM17.25 12a5.25 5.25 0 1 1-10.5 0 5.25 5.25 0 0 1 10.5 0Z"/>
      </g>
      <!-- Settings gear (cog) - 44px tap target -->
      <rect x="44" y="0" width="44" height="44" rx="4" fill="transparent"/>
      <g transform="translate(54, 10)">
        <path fill="#1a1a2e" fill-rule="evenodd" clip-rule="evenodd" d="M11.0779 2.25C10.1613 2.25 9.37909 2.91265 9.22841 3.81675L9.04974 4.88873C9.02959 5.00964 8.93542 5.1498 8.75311 5.23747C8.40905 5.40292 8.07967 5.5938 7.7674 5.8076C7.60091 5.92159 7.43259 5.9332 7.31769 5.89015L6.29851 5.50833C5.44019 5.18678 4.4752 5.53289 4.01692 6.32666L3.09493 7.92358C2.63665 8.71736 2.8194 9.72611 3.52704 10.3087L4.36756 11.0006C4.46219 11.0785 4.53629 11.2298 4.52119 11.4307C4.50706 11.6188 4.49988 11.8086 4.49988 12C4.49988 12.1915 4.50707 12.3814 4.52121 12.5695C4.53632 12.7704 4.46221 12.9217 4.36758 12.9996L3.52704 13.6916C2.8194 14.2741 2.63665 15.2829 3.09493 16.0767L4.01692 17.6736C4.4752 18.4674 5.44019 18.8135 6.29851 18.4919L7.31791 18.11C7.43281 18.067 7.60113 18.0786 7.76761 18.1925C8.07982 18.4063 8.40913 18.5971 8.75311 18.7625C8.93542 18.8502 9.02959 18.9904 9.04974 19.1113L9.22841 20.1832C9.37909 21.0874 10.1613 21.75 11.0779 21.75H12.9219C13.8384 21.75 14.6207 21.0874 14.7713 20.1832L14.95 19.1113C14.9702 18.9904 15.0643 18.8502 15.2466 18.7625C15.5907 18.5971 15.9201 18.4062 16.2324 18.1924C16.3988 18.0784 16.5672 18.0668 16.6821 18.1098L17.7012 18.4917C18.5596 18.8132 19.5246 18.4671 19.9828 17.6733L20.9048 16.0764C21.3631 15.2826 21.1804 14.2739 20.4727 13.6913L19.6322 12.9994C19.5376 12.9215 19.4635 12.7702 19.4786 12.5693C19.4927 12.3812 19.4999 12.1914 19.4999 12C19.4999 11.8085 19.4927 11.6186 19.4785 11.4305C19.4634 11.2296 19.5375 11.0783 19.6322 11.0004L20.4727 10.3084C21.1804 9.72587 21.3631 8.71711 20.9048 7.92334L19.9828 6.32642C19.5246 5.53264 18.5596 5.18654 17.7012 5.50809L16.6818 5.89C16.5669 5.93304 16.3986 5.92144 16.2321 5.80746C15.9199 5.59371 15.5906 5.40289 15.2466 5.23747C15.0643 5.1498 14.9702 5.00964 14.95 4.88873L14.7713 3.81675C14.6207 2.91265 13.8384 2.25 12.9219 2.25H11.0779ZM12 15.75C14.0711 15.75 15.75 14.0711 15.75 12C15.75 9.92893 14.0711 8.25 12 8.25C9.92893 8.25 8.25 9.92893 8.25 12C8.25 14.0711 9.92893 15.75 12 15.75Z"/>
      </g>
      <!-- Avatar -->
      <circle cx="110" cy="22" r="14" fill="#8b5cf6"/>
      <text x="110" y="27" text-anchor="middle" fill="#fff" font-family="system-ui, sans-serif" font-size="14px">U</text>
    </g>
  </g>
</g>
</svg>
