<?xml version="1.0" encoding="UTF-8"?>
<svg xmlns="http://www.w3.org/2000/svg" viewBox="0 0 1920 1080" width="1920" height="1080">
  <defs>
    <linearGradient id="bg" x1="0%" y1="0%" x2="0%" y2="100%">
      <stop offset="0%" stop-color="#c7ddf5"/>
      <stop offset="100%" stop-color="#b8d4f0"/>
    </linearGradient>
  </defs>
  <rect width="1920" height="1080" fill="url(#bg)"/>
  <text x="960" y="28" text-anchor="middle" font-family="system-ui, sans-serif" font-size="18" font-weight="700" fill="#4b5563" letter-spacing="1">THE 86 LIST - LIVE HOUSEHOLD VIEW</text>
  <text x="40" y="52" fill="#8b5cf6" font-family="system-ui, sans-serif" font-size="18" font-weight="bold">DESKTOP (16:9)</text>
  <text x="1500" y="52" fill="#d946ef" font-family="system-ui, sans-serif" font-size="15" font-weight="bold">MOBILE</text>

  <g id="desktop" transform="translate(40, 60)">
    <rect width="1280" height="720" rx="8" fill="#e8d4b8" stroke="#b8a080"/>
    <use href="includes/header-desktop.svg#desktop-header" x="0" y="0"/>
    <rect x="400" y="3" width="70" height="44" rx="4" fill="#8b5cf6"/>
    <text x="435" y="31" text-anchor="middle" fill="#e8d4b8" font-family="system-ui, sans-serif" font-size="14" font-weight="600">Home</text>

    <!-- Household switcher pill -->
    <rect x="24" y="64" width="170" height="44" rx="22" fill="#dcc8a8" stroke="#b8a080"/>
    <text x="44" y="92" font-family="system-ui, sans-serif" font-size="14" font-weight="600" fill="#1f2937">The Loft (4)</text>
    <path d="M 164 84 L 176 84 L 170 92 Z" fill="#4b5563"/>

    <!-- 86 list card -->
    <rect x="24" y="120" width="832" height="352" rx="8" fill="#dcc8a8" stroke="#b8a080"/>
    <text x="40" y="150" font-family="system-ui, sans-serif" font-size="18" font-weight="700" fill="#1f2937">The Loft - 86'd right now (5)</text>

    <!-- Row 1: Milk -->
    <rect x="40" y="162" width="800" height="56" rx="6" fill="#e8d4b8" stroke="#b8a080"/>
    <circle cx="70" cy="190" r="22" fill="#f5f0e6" stroke="#b8a080"/>
    <text x="108" y="187" font-family="system-ui, sans-serif" font-size="16" font-weight="700" fill="#1f2937">Milk</text>
    <text x="108" y="208" font-family="system-ui, sans-serif" font-size="14" fill="#4b5563">Alex - 2h ago</text>

    <!-- Row 2: Hot Sauce -->
    <rect x="40" y="222" width="800" height="56" rx="6" fill="#e8d4b8" stroke="#b8a080"/>
    <circle cx="70" cy="250" r="22" fill="#f5f0e6" stroke="#b8a080"/>
    <text x="108" y="247" font-family="system-ui, sans-serif" font-size="16" font-weight="700" fill="#1f2937">Hot Sauce</text>
    <text x="108" y="268" font-family="system-ui, sans-serif" font-size="14" fill="#4b5563">Sam - 5h ago</text>

    <!-- Row 3: Paper Towels -->
    <rect x="40" y="282" width="800" height="56" rx="6" fill="#e8d4b8" stroke="#b8a080"/>
    <circle cx="70" cy="310" r="22" fill="#f5f0e6" stroke="#b8a080"/>
    <text x="108" y="307" font-family="system-ui, sans-serif" font-size="16" font-weight="700" fill="#1f2937">Paper Towels</text>
    <text x="108" y="328" font-family="system-ui, sans-serif" font-size="14" fill="#4b5563">Riley - Yesterday</text>

    <!-- Row 4: Coffee Beans (mid-swipe, green restock zone revealed) -->
    <rect x="40" y="342" width="800" height="56" rx="6" fill="#22c55e"/>
    <text x="56" y="375" font-family="system-ui, sans-serif" font-size="14" font-weight="700" fill="#fff">Restock</text>
    <rect x="120" y="342" width="720" height="56" rx="6" fill="#e8d4b8" stroke="#b8a080"/>
    <circle cx="150" cy="370" r="22" fill="#f5f0e6" stroke="#b8a080"/>
    <text x="188" y="367" font-family="system-ui, sans-serif" font-size="16" font-weight="700" fill="#1f2937">Coffee Beans</text>
    <text x="188" y="388" font-family="system-ui, sans-serif" font-size="14" fill="#4b5563">Alex - Yesterday</text>

    <!-- Row 5: Dish Soap -->
    <rect x="40" y="402" width="800" height="56" rx="6" fill="#e8d4b8" stroke="#b8a080"/>
    <circle cx="70" cy="430" r="22" fill="#f5f0e6" stroke="#b8a080"/>
    <text x="108" y="427" font-family="system-ui, sans-serif" font-size="16" font-weight="700" fill="#1f2937">Dish Soap</text>
    <text x="108" y="448" font-family="system-ui, sans-serif" font-size="14" fill="#4b5563">Jordan - 2d ago</text>

    <!-- Undo toast -->
    <rect x="280" y="486" width="400" height="48" rx="24" fill="#334155"/>
    <text x="480" y="515" text-anchor="middle" font-family="system-ui, sans-serif" font-size="14" fill="#e2e8f0">Dish Soap restocked  -  <tspan fill="#38bdf8" text-decoration="underline" font-weight="600">Undo</tspan></text>

    <!-- Recently restocked strip -->
    <text x="24" y="562" font-family="system-ui, sans-serif" font-size="14" font-weight="700" fill="#374151">Recently restocked</text>
    <rect x="24" y="572" width="140" height="44" rx="22" fill="#dcc8a8" stroke="#b8a080"/>
    <text x="44" y="600" font-family="system-ui, sans-serif" font-size="14" font-weight="600" fill="#1f2937">Eggs</text>
    <circle cx="138" cy="594" r="12" fill="#8b5cf6"/>
    <line x1="132" y1="594" x2="144" y2="594" stroke="#fff" stroke-width="2.5"/>
    <line x1="138" y1="588" x2="138" y2="600" stroke="#fff" stroke-width="2.5"/>
    <rect x="176" y="572" width="170" height="44" rx="22" fill="#dcc8a8" stroke="#b8a080"/>
    <text x="196" y="600" font-family="system-ui, sans-serif" font-size="14" font-weight="600" fill="#1f2937">Oat Milk</text>
    <circle cx="320" cy="594" r="12" fill="#8b5cf6"/>
    <line x1="314" y1="594" x2="326" y2="594" stroke="#fff" stroke-width="2.5"/>
    <line x1="320" y1="588" x2="320" y2="600" stroke="#fff" stroke-width="2.5"/>
    <rect x="358" y="572" width="170" height="44" rx="22" fill="#dcc8a8" stroke="#b8a080"/>
    <text x="378" y="600" font-family="system-ui, sans-serif" font-size="14" font-weight="600" fill="#1f2937">Bananas</text>
    <circle cx="502" cy="594" r="12" fill="#8b5cf6"/>
    <line x1="496" y1="594" x2="508" y2="594" stroke="#fff" stroke-width="2.5"/>
    <line x1="502" y1="588" x2="502" y2="600" stroke="#fff" stroke-width="2.5"/>

    <!-- FAB -->
    <circle cx="1180" cy="580" r="32" fill="#8b5cf6"/>
    <line x1="1164" y1="580" x2="1196" y2="580" stroke="#fff" stroke-width="5"/>
    <line x1="1180" y1="564" x2="1180" y2="596" stroke="#fff" stroke-width="5"/>

    <!-- Desktop callouts -->
    <g class="callout"><circle cx="884" cy="190" r="14" fill="#dc2626"/><text x="884" y="195" text-anchor="middle" fill="#fff" font-size="14" font-weight="bold">1</text></g>
    <g class="callout"><circle cx="708" cy="510" r="14" fill="#dc2626"/><text x="708" y="515" text-anchor="middle" fill="#fff" font-size="14" font-weight="bold">2</text></g>
    <g class="callout"><circle cx="884" cy="370" r="14" fill="#dc2626"/><text x="884" y="375" text-anchor="middle" fill="#fff" font-size="14" font-weight="bold">3</text></g>
    <g class="callout"><circle cx="560" cy="594" r="14" fill="#dc2626"/><text x="560" y="599" text-anchor="middle" fill="#fff" font-size="14" font-weight="bold">4</text></g>
    <g class="callout"><circle cx="1106" cy="580" r="14" fill="#dc2626"/><text x="1106" y="585" text-anchor="middle" fill="#fff" font-size="14" font-weight="bold">5</text></g>

    <use href="includes/footer-desktop.svg#site-footer" x="0" y="640"/>
  </g>

  <g id="mobile" transform="translate(1360, 60)">
    <rect width="360" height="720" rx="24" fill="#e8d4b8" stroke="#b8a080"/>
    <use href="includes/header-mobile.svg#mobile-header-group" x="0" y="0"/>

    <text x="16" y="118" font-family="system-ui, sans-serif" font-size="16" font-weight="700" fill="#1f2937">The Loft - 86'd right now (5)</text>

    <!-- Row 1: Milk -->
    <rect x="12" y="130" width="336" height="56" rx="6" fill="#dcc8a8" stroke="#b8a080"/>
    <circle cx="40" cy="158" r="22" fill="#f5f0e6" stroke="#b8a080"/>
    <text x="74" y="155" font-family="system-ui, sans-serif" font-size="16" font-weight="700" fill="#1f2937">Milk</text>
    <text x="74" y="176" font-family="system-ui, sans-serif" font-size="14" fill="#4b5563">Alex - 2h ago</text>

    <!-- Row 2: Hot Sauce -->
    <rect x="12" y="190" width="336" height="56" rx="6" fill="#dcc8a8" stroke="#b8a080"/>
    <circle cx="40" cy="218" r="22" fill="#f5f0e6" stroke="#b8a080"/>
    <text x="74" y="215" font-family="system-ui, sans-serif" font-size="16" font-weight="700" fill="#1f2937">Hot Sauce</text>
    <text x="74" y="236" font-family="system-ui, sans-serif" font-size="14" fill="#4b5563">Sam - 5h ago</text>

    <!-- Row 3: Paper Towels -->
    <rect x="12" y="250" width="336" height="56" rx="6" fill="#dcc8a8" stroke="#b8a080"/>
    <circle cx="40" cy="278" r="22" fill="#f5f0e6" stroke="#b8a080"/>
    <text x="74" y="275" font-family="system-ui, sans-serif" font-size="16" font-weight="700" fill="#1f2937">Paper Towels</text>
    <text x="74" y="296" font-family="system-ui, sans-serif" font-size="14" fill="#4b5563">Riley - Yesterday</text>

    <!-- Row 4: Coffee Beans (mid-swipe) -->
    <rect x="12" y="310" width="336" height="56" rx="6" fill="#22c55e"/>
    <text x="24" y="343" font-family="system-ui, sans-serif" font-size="14" font-weight="700" fill="#fff">Restock</text>
    <rect x="84" y="310" width="264" height="56" rx="6" fill="#dcc8a8" stroke="#b8a080"/>
    <circle cx="112" cy="338" r="22" fill="#f5f0e6" stroke="#b8a080"/>
    <text x="146" y="335" font-family="system-ui, sans-serif" font-size="16" font-weight="700" fill="#1f2937">Coffee Beans</text>
    <text x="146" y="356" font-family="system-ui, sans-serif" font-size="14" fill="#4b5563">Alex - Yesterday</text>

    <!-- Row 5: Dish Soap -->
    <rect x="12" y="370" width="336" height="56" rx="6" fill="#dcc8a8" stroke="#b8a080"/>
    <circle cx="40" cy="398" r="22" fill="#f5f0e6" stroke="#b8a080"/>
    <text x="74" y="395" font-family="system-ui, sans-serif" font-size="16" font-weight="700" fill="#1f2937">Dish Soap</text>
    <text x="74" y="416" font-family="system-ui, sans-serif" font-size="14" fill="#4b5563">Jordan - 2d ago</text>

    <!-- Undo toast -->
    <rect x="36" y="442" width="288" height="44" rx="22" fill="#334155"/>
    <text x="180" y="469" text-anchor="middle" font-family="system-ui, sans-serif" font-size="14" fill="#e2e8f0">Dish Soap restocked - <tspan fill="#38bdf8" text-decoration="underline" font-weight="600">Undo</tspan></text>

    <!-- Recently restocked strip -->
    <text x="16" y="514" font-family="system-ui, sans-serif" font-size="14" font-weight="700" fill="#374151">Recently restocked</text>
    <rect x="12" y="524" width="116" height="44" rx="22" fill="#dcc8a8" stroke="#b8a080"/>
    <text x="30" y="552" font-family="system-ui, sans-serif" font-size="14" font-weight="600" fill="#1f2937">Eggs</text>
    <circle cx="104" cy="546" r="12" fill="#8b5cf6"/>
    <line x1="98" y1="546" x2="110" y2="546" stroke="#fff" stroke-width="2.5"/>
    <line x1="104" y1="540" x2="104" y2="552" stroke="#fff" stroke-width="2.5"/>
    <rect x="140" y="524" width="146" height="44" rx="22" fill="#dcc8a8" stroke="#b8a080"/>
    <text x="158" y="552" font-family="system-ui, sans-serif" font-size="14" font-weight="600" fill="#1f2937">Oat Milk</text>
    <circle cx="262" cy="546" r="12" fill="#8b5cf6"/>
    <line x1="256" y1="546" x2="268" y2="546" stroke="#fff" stroke-width="2.5"/>
    <line x1="262" y1="540" x2="262" y2="552" stroke="#fff" stroke-width="2.5"/>

    <!-- FAB above bottom nav -->
    <circle cx="304" cy="612" r="32" fill="#8b5cf6"/>
    <line x1="288" y1="612" x2="320" y2="612" stroke="#fff" stroke-width="5"/>
    <line x1="304" y1="596" x2="304" y2="628" stroke="#fff" stroke-width="5"/>

    <!-- Mobile callouts (subset) -->
    <g class="callout"><circle cx="330" cy="113" r="11" fill="#dc2626"/><text x="330" y="118" text-anchor="middle" fill="#fff" font-size="14" font-weight="bold">1</text></g>
    <g class="callout"><circle cx="330" cy="338" r="11" fill="#dc2626"/><text x="330" y="343" text-anchor="middle" fill="#fff" font-size="14" font-weight="bold">3</text></g>
    <g class="callout"><circle cx="244" cy="612" r="11" fill="#dc2626"/><text x="244" y="617" text-anchor="middle" fill="#fff" font-size="14" font-weight="bold">5</text></g>

    <use href="includes/footer-mobile.svg#mobile-bottom-nav" x="0" y="664"/>
  </g>

  <g id="annotations" transform="translate(40, 800)">
    <rect width="1840" height="220" rx="8" fill="#dcc8a8" stroke="#b8a080"/>
    <g transform="translate(20, 24)">
      <circle cx="14" cy="14" r="12" fill="#dc2626"/>
      <text x="14" y="19" text-anchor="middle" fill="#fff" font-size="14" font-weight="bold">1</text>
      <text x="38" y="19" font-family="system-ui, sans-serif" font-size="14" font-weight="700" fill="#1f2937">Live list with attribution</text>
      <text x="38" y="44" font-family="system-ui, sans-serif" font-size="14" fill="#374151">Newest first, with who 86'd it and when.</text>
      <text x="38" y="62" font-family="system-ui, sans-serif" font-size="14" fill="#374151">Changes land on every device under 2s.</text>
      <g transform="translate(38, 76)">
        <a href="#US-001"><rect width="56" height="22" rx="11" fill="#0891b2"/><text x="28" y="16" text-anchor="middle" fill="#f5f0e6" font-size="14" font-weight="700">US-001</text></a>
        <a href="#FR-001" transform="translate(64, 0)"><rect width="56" height="22" rx="11" fill="#2563eb"/><text x="28" y="16" text-anchor="middle" fill="#f5f0e6" font-size="14" font-weight="700">FR-001</text></a>
        <a href="#FR-002" transform="translate(128, 0)"><rect width="56" height="22" rx="11" fill="#2563eb"/><text x="28" y="16" text-anchor="middle" fill="#f5f0e6" font-size="14" font-weight="700">FR-002</text></a>
        <a href="#SC-002" transform="translate(192, 0)"><rect width="56" height="22" rx="11" fill="#ea580c"/><text x="28" y="16" text-anchor="middle" fill="#f5f0e6" font-size="14" font-weight="700">SC-002</text></a>
      </g>
    </g>
    <g transform="translate(384, 24)">
      <circle cx="14" cy="14" r="12" fill="#dc2626"/>
      <text x="14" y="19" text-anchor="middle" fill="#fff" font-size="14" font-weight="bold">2</text>
      <text x="38" y="19" font-family="system-ui, sans-serif" font-size="14" font-weight="700" fill="#1f2937">Circle-check restock and undo</text>
      <text x="38" y="44" font-family="system-ui, sans-serif" font-size="14" fill="#374151">44px circle target leads every row, the</text>
      <text x="38" y="62" font-family="system-ui, sans-serif" font-size="14" fill="#374151">accessible baseline. Undo within session.</text>
      <g transform="translate(38, 76)">
        <a href="#US-003"><rect width="56" height="22" rx="11" fill="#0891b2"/><text x="28" y="16" text-anchor="middle" fill="#f5f0e6" font-size="14" font-weight="700">US-003</text></a>
        <a href="#FR-008" transform="translate(64, 0)"><rect width="56" height="22" rx="11" fill="#2563eb"/><text x="28" y="16" text-anchor="middle" fill="#f5f0e6" font-size="14" font-weight="700">FR-008</text></a>
        <a href="#FR-009" transform="translate(128, 0)"><rect width="56" height="22" rx="11" fill="#2563eb"/><text x="28" y="16" text-anchor="middle" fill="#f5f0e6" font-size="14" font-weight="700">FR-009</text></a>
      </g>
    </g>
    <g transform="translate(748, 24)">
      <circle cx="14" cy="14" r="12" fill="#dc2626"/>
      <text x="14" y="19" text-anchor="middle" fill="#fff" font-size="14" font-weight="bold">3</text>
      <text x="38" y="19" font-family="system-ui, sans-serif" font-size="14" font-weight="700" fill="#1f2937">Swipe-to-restock power path</text>
      <text x="38" y="44" font-family="system-ui, sans-serif" font-size="14" fill="#374151">Swipe right reveals the green Restock</text>
      <text x="38" y="62" font-family="system-ui, sans-serif" font-size="14" fill="#374151">zone. Equivalent, never the only path.</text>
      <g transform="translate(38, 76)">
        <a href="#US-003"><rect width="56" height="22" rx="11" fill="#0891b2"/><text x="28" y="16" text-anchor="middle" fill="#f5f0e6" font-size="14" font-weight="700">US-003</text></a>
        <a href="#FR-008" transform="translate(64, 0)"><rect width="56" height="22" rx="11" fill="#2563eb"/><text x="28" y="16" text-anchor="middle" fill="#f5f0e6" font-size="14" font-weight="700">FR-008</text></a>
        <a href="#SC-005" transform="translate(128, 0)"><rect width="56" height="22" rx="11" fill="#ea580c"/><text x="28" y="16" text-anchor="middle" fill="#f5f0e6" font-size="14" font-weight="700">SC-005</text></a>
      </g>
    </g>
    <g transform="translate(1112, 24)">
      <circle cx="14" cy="14" r="12" fill="#dc2626"/>
      <text x="14" y="19" text-anchor="middle" fill="#fff" font-size="14" font-weight="bold">4</text>
      <text x="38" y="19" font-family="system-ui, sans-serif" font-size="14" font-weight="700" fill="#1f2937">Recently-restocked re-86 strip</text>
      <text x="38" y="44" font-family="system-ui, sans-serif" font-size="14" fill="#374151">One tap re-86's a frequent item from</text>
      <text x="38" y="62" font-family="system-ui, sans-serif" font-size="14" fill="#374151">history - no retyping, history persists.</text>
      <g transform="translate(38, 76)">
        <a href="#US-003"><rect width="56" height="22" rx="11" fill="#0891b2"/><text x="28" y="16" text-anchor="middle" fill="#f5f0e6" font-size="14" font-weight="700">US-003</text></a>
        <a href="#FR-010" transform="translate(64, 0)"><rect width="56" height="22" rx="11" fill="#2563eb"/><text x="28" y="16" text-anchor="middle" fill="#f5f0e6" font-size="14" font-weight="700">FR-010</text></a>
      </g>
    </g>
    <g transform="translate(1476, 24)">
      <circle cx="14" cy="14" r="12" fill="#dc2626"/>
      <text x="14" y="19" text-anchor="middle" fill="#fff" font-size="14" font-weight="bold">5</text>
      <text x="38" y="19" font-family="system-ui, sans-serif" font-size="14" font-weight="700" fill="#1f2937">FAB opens capture surface</text>
      <text x="38" y="44" font-family="system-ui, sans-serif" font-size="14" fill="#374151">Plus button opens Type / Scan / Snap.</text>
      <text x="38" y="62" font-family="system-ui, sans-serif" font-size="14" fill="#374151">Known item 86'd in under 5 seconds.</text>
      <g transform="translate(38, 76)">
        <a href="#US-002"><rect width="56" height="22" rx="11" fill="#0891b2"/><text x="28" y="16" text-anchor="middle" fill="#f5f0e6" font-size="14" font-weight="700">US-002</text></a>
        <a href="#FR-003" transform="translate(64, 0)"><rect width="56" height="22" rx="11" fill="#2563eb"/><text x="28" y="16" text-anchor="middle" fill="#f5f0e6" font-size="14" font-weight="700">FR-003</text></a>
        <a href="#SC-001" transform="translate(128, 0)"><rect width="56" height="22" rx="11" fill="#ea580c"/><text x="28" y="16" text-anchor="middle" fill="#f5f0e6" font-size="14" font-weight="700">SC-001</text></a>
      </g>
    </g>
    <g transform="translate(20, 152)">
      <text x="0" y="19" font-family="system-ui, sans-serif" font-size="14" font-weight="700" fill="#4b5563" letter-spacing="1">WHAT SHIPS</text>
      <text x="0" y="44" font-family="system-ui, sans-serif" font-size="14" fill="#374151">The live list is the realtime heart of 86. Both restock paths end in the same undo toast; the FAB leads to the three-mode capture surface on screen 02.</text>
    </g>
  </g>
  <text x="40" y="1060" fill="#374151" font-family="system-ui, sans-serif" font-size="18" font-weight="bold">049:01 | The 86 List | eightysix</text>
</svg>
