<?xml version="1.0" encoding="UTF-8"?>
<svg xmlns="http://www.w3.org/2000/svg" viewBox="0 0 1920 1080" width="1920" height="1080">
  <defs>
    <linearGradient id="bg" x1="0%" y1="0%" x2="0%" y2="100%">
      <stop offset="0%" stop-color="#c7ddf5"/>
      <stop offset="100%" stop-color="#b8d4f0"/>
    </linearGradient>
  </defs>
  <rect width="1920" height="1080" fill="url(#bg)"/>
  <text x="960" y="28" text-anchor="middle" font-family="system-ui, sans-serif" font-size="18" font-weight="700" fill="#4b5563" letter-spacing="1">ADD ITEM - TYPE MODE WITH AUTOCOMPLETE</text>
  <text x="40" y="52" fill="#8b5cf6" font-family="system-ui, sans-serif" font-size="18" font-weight="bold">DESKTOP (16:9)</text>
  <text x="1500" y="52" fill="#d946ef" font-family="system-ui, sans-serif" font-size="15" font-weight="bold">MOBILE</text>

  <g id="desktop" transform="translate(40, 60)">
    <rect width="1280" height="720" rx="8" fill="#e8d4b8" stroke="#b8a080"/>
    <use href="includes/header-desktop.svg#desktop-header" x="0" y="0"/>
    <rect x="400" y="3" width="70" height="44" rx="4" fill="#8b5cf6"/>
    <text x="435" y="31" text-anchor="middle" fill="#e8d4b8" font-family="system-ui, sans-serif" font-size="14" font-weight="600">Home</text>

    <!-- 86 list behind the sheet (will be dimmed) -->
    <rect x="40" y="70" width="1200" height="56" rx="8" fill="#dcc8a8" stroke="#b8a080"/>
    <circle cx="80" cy="98" r="16" fill="#f5f0e6" stroke="#b8a080"/>
    <text x="112" y="104" font-family="system-ui, sans-serif" font-size="16" fill="#374151">Olive Oil - Sam, 2h ago</text>
    <rect x="40" y="140" width="1200" height="56" rx="8" fill="#dcc8a8" stroke="#b8a080"/>
    <circle cx="80" cy="168" r="16" fill="#f5f0e6" stroke="#b8a080"/>
    <text x="112" y="174" font-family="system-ui, sans-serif" font-size="16" fill="#374151">Paper Towels - Jo, 5h ago</text>
    <rect x="40" y="210" width="1200" height="56" rx="8" fill="#dcc8a8" stroke="#b8a080"/>
    <circle cx="80" cy="238" r="16" fill="#f5f0e6" stroke="#b8a080"/>
    <text x="112" y="244" font-family="system-ui, sans-serif" font-size="16" fill="#374151">Coffee - Sam, yesterday</text>
    <rect x="40" y="280" width="1200" height="56" rx="8" fill="#dcc8a8" stroke="#b8a080"/>
    <rect x="40" y="350" width="1200" height="56" rx="8" fill="#dcc8a8" stroke="#b8a080"/>

    <!-- Modal dim overlay over the list content area -->
    <rect x="0" y="50" width="1280" height="590" fill="rgba(0,0,0,0.5)"/>

    <!-- Capture sheet (modal) -->
    <rect x="300" y="100" width="680" height="440" rx="12" fill="#e8d4b8" stroke="#b8a080"/>
    <text x="324" y="136" font-family="system-ui, sans-serif" font-size="22" font-weight="bold" fill="#1f2937">86 something</text>

    <!-- Mode tabs: Type active, Scan and Snap coming soon -->
    <rect x="324" y="156" width="204" height="44" rx="6" fill="#8b5cf6"/>
    <text x="426" y="184" text-anchor="middle" font-family="system-ui, sans-serif" font-size="16" font-weight="600" fill="#e8d4b8">Type</text>
    <rect x="538" y="156" width="204" height="44" rx="6" fill="#dcc8a8" stroke="#b8a080"/>
    <text x="640" y="184" text-anchor="middle" font-family="system-ui, sans-serif" font-size="16" font-weight="600" fill="#4b5563">Scan</text>
    <text x="640" y="218" text-anchor="middle" font-family="system-ui, sans-serif" font-size="14" fill="#4b5563">coming soon</text>
    <rect x="752" y="156" width="204" height="44" rx="6" fill="#dcc8a8" stroke="#b8a080"/>
    <text x="854" y="184" text-anchor="middle" font-family="system-ui, sans-serif" font-size="16" font-weight="600" fill="#4b5563">Snap</text>
    <text x="854" y="218" text-anchor="middle" font-family="system-ui, sans-serif" font-size="14" fill="#4b5563">coming soon</text>

    <!-- Text input with typed value and cursor -->
    <rect x="324" y="234" width="632" height="44" rx="6" fill="#f5f0e6" stroke="#b8a080"/>
    <text x="340" y="262" font-family="system-ui, sans-serif" font-size="16" fill="#1f2937">mi</text>
    <rect x="362" y="242" width="2" height="28" fill="#1f2937"/>

    <!-- Autocomplete dropdown from household history -->
    <rect x="324" y="282" width="632" height="44" rx="4" fill="#dcc8a8" stroke="#8b5cf6"/>
    <rect x="326" y="284" width="4" height="40" fill="#8b5cf6"/>
    <text x="348" y="310" font-family="system-ui, sans-serif" font-size="16" font-weight="600" fill="#1f2937">Milk - last 86'd 6 days ago</text>
    <rect x="324" y="326" width="632" height="44" rx="4" fill="#f5f0e6" stroke="#b8a080"/>
    <text x="348" y="354" font-family="system-ui, sans-serif" font-size="16" fill="#374151">Mixed Greens - restocked Apr 30</text>
    <rect x="324" y="370" width="632" height="44" rx="4" fill="#f5f0e6" stroke="#b8a080"/>
    <text x="348" y="398" font-family="system-ui, sans-serif" font-size="16" fill="#374151">Mint</text>

    <!-- Primary action -->
    <rect x="324" y="434" width="632" height="44" rx="6" fill="#8b5cf6"/>
    <text x="640" y="462" text-anchor="middle" font-family="system-ui, sans-serif" font-size="16" font-weight="600" fill="#e8d4b8">Next</text>
    <text x="324" y="510" font-family="system-ui, sans-serif" font-size="14" fill="#4b5563">Suggestions come from your household's history</text>

    <use href="includes/footer-desktop.svg#site-footer" x="0" y="640"/>

    <g class="callout"><circle cx="990" cy="178" r="14" fill="#dc2626"/><text x="990" y="183" text-anchor="middle" fill="#fff" font-size="14" font-weight="bold">1</text></g>
    <g class="callout"><circle cx="990" cy="348" r="14" fill="#dc2626"/><text x="990" y="353" text-anchor="middle" fill="#fff" font-size="14" font-weight="bold">2</text></g>
    <g class="callout"><circle cx="150" cy="90" r="14" fill="#dc2626"/><text x="150" y="95" text-anchor="middle" fill="#fff" font-size="14" font-weight="bold">3</text></g>
    <g class="callout"><circle cx="990" cy="456" r="14" fill="#dc2626"/><text x="990" y="461" text-anchor="middle" fill="#fff" font-size="14" font-weight="bold">4</text></g>
  </g>

  <g id="mobile" transform="translate(1360, 60)">
    <rect width="360" height="720" rx="24" fill="#e8d4b8" stroke="#b8a080"/>
    <use href="includes/header-mobile.svg#mobile-header-group" x="0" y="0"/>

    <!-- 86 list behind the bottom sheet (will be dimmed) -->
    <rect x="16" y="100" width="328" height="52" rx="8" fill="#dcc8a8" stroke="#b8a080"/>
    <circle cx="44" cy="126" r="14" fill="#f5f0e6" stroke="#b8a080"/>
    <text x="68" y="132" font-family="system-ui, sans-serif" font-size="14" fill="#374151">Olive Oil - Sam, 2h ago</text>
    <rect x="16" y="160" width="328" height="52" rx="8" fill="#dcc8a8" stroke="#b8a080"/>
    <circle cx="44" cy="186" r="14" fill="#f5f0e6" stroke="#b8a080"/>
    <text x="68" y="192" font-family="system-ui, sans-serif" font-size="14" fill="#374151">Paper Towels - Jo, 5h ago</text>
    <rect x="16" y="220" width="328" height="52" rx="8" fill="#dcc8a8" stroke="#b8a080"/>
    <circle cx="44" cy="246" r="14" fill="#f5f0e6" stroke="#b8a080"/>
    <text x="68" y="252" font-family="system-ui, sans-serif" font-size="14" fill="#374151">Coffee - Sam, yesterday</text>

    <!-- Modal dim overlay -->
    <rect x="0" y="78" width="360" height="586" fill="rgba(0,0,0,0.5)"/>

    <!-- Bottom sheet -->
    <rect x="0" y="288" width="360" height="376" rx="16" fill="#e8d4b8" stroke="#b8a080"/>
    <rect x="164" y="296" width="32" height="4" rx="2" fill="#b8a080"/>
    <text x="16" y="326" font-family="system-ui, sans-serif" font-size="18" font-weight="bold" fill="#1f2937">86 something</text>

    <rect x="16" y="340" width="104" height="44" rx="6" fill="#8b5cf6"/>
    <text x="68" y="368" text-anchor="middle" font-family="system-ui, sans-serif" font-size="14" font-weight="600" fill="#e8d4b8">Type</text>
    <rect x="128" y="340" width="104" height="44" rx="6" fill="#dcc8a8" stroke="#b8a080"/>
    <text x="180" y="368" text-anchor="middle" font-family="system-ui, sans-serif" font-size="14" font-weight="600" fill="#4b5563">Scan</text>
    <text x="180" y="400" text-anchor="middle" font-family="system-ui, sans-serif" font-size="14" fill="#4b5563">coming soon</text>
    <rect x="240" y="340" width="104" height="44" rx="6" fill="#dcc8a8" stroke="#b8a080"/>
    <text x="292" y="368" text-anchor="middle" font-family="system-ui, sans-serif" font-size="14" font-weight="600" fill="#4b5563">Snap</text>
    <text x="292" y="400" text-anchor="middle" font-family="system-ui, sans-serif" font-size="14" fill="#4b5563">coming soon</text>

    <rect x="16" y="412" width="328" height="44" rx="6" fill="#f5f0e6" stroke="#b8a080"/>
    <text x="30" y="440" font-family="system-ui, sans-serif" font-size="14" fill="#1f2937">mi</text>
    <rect x="50" y="420" width="2" height="28" fill="#1f2937"/>

    <rect x="16" y="464" width="328" height="44" rx="4" fill="#dcc8a8" stroke="#8b5cf6"/>
    <rect x="18" y="466" width="4" height="40" fill="#8b5cf6"/>
    <text x="36" y="492" font-family="system-ui, sans-serif" font-size="14" font-weight="600" fill="#1f2937">Milk - last 86'd 6 days ago</text>
    <rect x="16" y="508" width="328" height="44" rx="4" fill="#f5f0e6" stroke="#b8a080"/>
    <text x="36" y="536" font-family="system-ui, sans-serif" font-size="14" fill="#374151">Mixed Greens - restocked Apr 30</text>
    <rect x="16" y="552" width="328" height="44" rx="4" fill="#f5f0e6" stroke="#b8a080"/>
    <text x="36" y="580" font-family="system-ui, sans-serif" font-size="14" fill="#374151">Mint</text>

    <rect x="16" y="608" width="328" height="44" rx="6" fill="#8b5cf6"/>
    <text x="180" y="636" text-anchor="middle" font-family="system-ui, sans-serif" font-size="14" font-weight="600" fill="#e8d4b8">Next</text>

    <use href="includes/footer-mobile.svg#mobile-bottom-nav" x="0" y="664"/>

    <g class="callout"><circle cx="330" cy="326" r="11" fill="#dc2626"/><text x="330" y="331" text-anchor="middle" fill="#fff" font-size="14" font-weight="bold">1</text></g>
    <g class="callout"><circle cx="330" cy="486" r="11" fill="#dc2626"/><text x="330" y="491" text-anchor="middle" fill="#fff" font-size="14" font-weight="bold">2</text></g>
  </g>

  <g id="annotations" transform="translate(40, 800)">
    <rect width="1840" height="220" rx="8" fill="#dcc8a8" stroke="#b8a080"/>
    <g transform="translate(20, 16)">
      <circle cx="14" cy="14" r="12" fill="#dc2626"/>
      <text x="14" y="19" text-anchor="middle" fill="#fff" font-size="14" font-weight="bold">1</text>
      <text x="38" y="19" font-family="system-ui, sans-serif" font-size="14" font-weight="700" fill="#1f2937">Three-mode surface, one design</text>
      <text x="38" y="44" font-family="system-ui, sans-serif" font-size="14" fill="#374151">Scan and Snap ship visibly disabled from day</text>
      <text x="38" y="62" font-family="system-ui, sans-serif" font-size="14" fill="#374151">one so 052/053 plug in with zero redesign.</text>
      <a href="#US-002" transform="translate(38, 76)"><rect width="56" height="22" rx="11" fill="#0891b2"/><text x="28" y="16" text-anchor="middle" fill="#f5f0e6" font-size="14" font-weight="700">US-002</text></a>
      <a href="#FR-003" transform="translate(100, 76)"><rect width="56" height="22" rx="11" fill="#2563eb"/><text x="28" y="16" text-anchor="middle" fill="#f5f0e6" font-size="14" font-weight="700">FR-003</text></a>
      <a href="#SC-006" transform="translate(162, 76)"><rect width="56" height="22" rx="11" fill="#ea580c"/><text x="28" y="16" text-anchor="middle" fill="#f5f0e6" font-size="14" font-weight="700">SC-006</text></a>
    </g>
    <g transform="translate(480, 16)">
      <circle cx="14" cy="14" r="12" fill="#dc2626"/>
      <text x="14" y="19" text-anchor="middle" fill="#fff" font-size="14" font-weight="bold">2</text>
      <text x="38" y="19" font-family="system-ui, sans-serif" font-size="14" font-weight="700" fill="#1f2937">Autocomplete after 2 characters</text>
      <text x="38" y="44" font-family="system-ui, sans-serif" font-size="14" fill="#374151">Two typed letters surface household history;</text>
      <text x="38" y="62" font-family="system-ui, sans-serif" font-size="14" fill="#374151">repeat items become a two-tap add.</text>
      <a href="#US-002" transform="translate(38, 76)"><rect width="56" height="22" rx="11" fill="#0891b2"/><text x="28" y="16" text-anchor="middle" fill="#f5f0e6" font-size="14" font-weight="700">US-002</text></a>
      <a href="#US-003" transform="translate(100, 76)"><rect width="56" height="22" rx="11" fill="#0891b2"/><text x="28" y="16" text-anchor="middle" fill="#f5f0e6" font-size="14" font-weight="700">US-003</text></a>
      <a href="#FR-004" transform="translate(162, 76)"><rect width="56" height="22" rx="11" fill="#2563eb"/><text x="28" y="16" text-anchor="middle" fill="#f5f0e6" font-size="14" font-weight="700">FR-004</text></a>
      <a href="#SC-001" transform="translate(224, 76)"><rect width="56" height="22" rx="11" fill="#ea580c"/><text x="28" y="16" text-anchor="middle" fill="#f5f0e6" font-size="14" font-weight="700">SC-001</text></a>
    </g>
    <g transform="translate(940, 16)">
      <circle cx="14" cy="14" r="12" fill="#dc2626"/>
      <text x="14" y="19" text-anchor="middle" fill="#fff" font-size="14" font-weight="bold">3</text>
      <text x="38" y="19" font-family="system-ui, sans-serif" font-size="14" font-weight="700" fill="#1f2937">Modal sheet over the dimmed list</text>
      <text x="38" y="44" font-family="system-ui, sans-serif" font-size="14" fill="#374151">Capture never navigates away; the optimistic</text>
      <text x="38" y="62" font-family="system-ui, sans-serif" font-size="14" fill="#374151">add returns to the live list instantly.</text>
      <a href="#US-001" transform="translate(38, 76)"><rect width="56" height="22" rx="11" fill="#0891b2"/><text x="28" y="16" text-anchor="middle" fill="#f5f0e6" font-size="14" font-weight="700">US-001</text></a>
      <a href="#FR-006" transform="translate(100, 76)"><rect width="56" height="22" rx="11" fill="#2563eb"/><text x="28" y="16" text-anchor="middle" fill="#f5f0e6" font-size="14" font-weight="700">FR-006</text></a>
    </g>
    <g transform="translate(1400, 16)">
      <circle cx="14" cy="14" r="12" fill="#dc2626"/>
      <text x="14" y="19" text-anchor="middle" fill="#fff" font-size="14" font-weight="bold">4</text>
      <text x="38" y="19" font-family="system-ui, sans-serif" font-size="14" font-weight="700" fill="#1f2937">Single path to confirm</text>
      <text x="38" y="44" font-family="system-ui, sans-serif" font-size="14" fill="#374151">Every mode funnels into one confirm step and</text>
      <text x="38" y="62" font-family="system-ui, sans-serif" font-size="14" fill="#374151">one submit path, offline-queue ready.</text>
      <a href="#US-002" transform="translate(38, 76)"><rect width="56" height="22" rx="11" fill="#0891b2"/><text x="28" y="16" text-anchor="middle" fill="#f5f0e6" font-size="14" font-weight="700">US-002</text></a>
      <a href="#FR-005" transform="translate(100, 76)"><rect width="56" height="22" rx="11" fill="#2563eb"/><text x="28" y="16" text-anchor="middle" fill="#f5f0e6" font-size="14" font-weight="700">FR-005</text></a>
      <a href="#FR-016" transform="translate(162, 76)"><rect width="56" height="22" rx="11" fill="#2563eb"/><text x="28" y="16" text-anchor="middle" fill="#f5f0e6" font-size="14" font-weight="700">FR-016</text></a>
    </g>
    <g transform="translate(20, 130)">
      <text x="0" y="19" font-family="system-ui, sans-serif" font-size="14" font-weight="700" fill="#4b5563" letter-spacing="1">WHAT SHIPS</text>
      <text x="0" y="44" font-family="system-ui, sans-serif" font-size="14" fill="#374151">Type tab ships fully in this feature; Scan (052) and Snap (053) land later in the reserved tabs shown here.</text>
      <text x="0" y="64" font-family="system-ui, sans-serif" font-size="14" fill="#374151">First suggestion row is keyboard-highlighted; Next leads to the shared confirm step (name, optional category).</text>
    </g>
  </g>
  <text x="40" y="1060" fill="#374151" font-family="system-ui, sans-serif" font-size="18" font-weight="bold">049:02 | Add Item Type Mode | eightysix</text>
</svg>
