<?xml version="1.0" encoding="UTF-8"?>
<svg xmlns="http://www.w3.org/2000/svg" viewBox="0 0 1920 1080" width="1920" height="1080">
  <defs>
    <linearGradient id="bg" x1="0%" y1="0%" x2="0%" y2="100%">
      <stop offset="0%" stop-color="#c7ddf5"/>
      <stop offset="100%" stop-color="#b8d4f0"/>
    </linearGradient>
  </defs>
  <rect width="1920" height="1080" fill="url(#bg)"/>
  <text x="960" y="28" text-anchor="middle" font-family="system-ui, sans-serif" font-size="18" font-weight="700" fill="#4b5563" letter-spacing="1">ADD ITEM - CONFIRM STEP AND DUPLICATE GUARD</text>
  <text x="40" y="52" fill="#8b5cf6" font-family="system-ui, sans-serif" font-size="18" font-weight="bold">DESKTOP (16:9)</text>
  <text x="1500" y="52" fill="#d946ef" font-family="system-ui, sans-serif" font-size="15" font-weight="bold">MOBILE</text>

  <g id="desktop" transform="translate(40, 60)">
    <rect width="1280" height="720" rx="8" fill="#e8d4b8" stroke="#b8a080"/>
    <use href="includes/header-desktop.svg#desktop-header" x="0" y="0"/>
    <rect x="400" y="3" width="70" height="44" rx="4" fill="#8b5cf6"/>
    <text x="435" y="31" text-anchor="middle" fill="#e8d4b8" font-family="system-ui, sans-serif" font-size="14" font-weight="600">Home</text>

    <text x="60" y="95" font-family="system-ui, sans-serif" font-size="24" font-weight="bold" fill="#1f2937">Add Item - Confirm</text>
    <text x="660" y="95" font-family="system-ui, sans-serif" font-size="14" fill="#4b5563">Shared confirm step for Type / Scan / Snap</text>

    <!-- Left card: Confirm (editable draft) -->
    <rect x="60" y="115" width="560" height="470" rx="8" fill="#dcc8a8" stroke="#b8a080"/>
    <text x="88" y="150" font-family="system-ui, sans-serif" font-size="20" font-weight="bold" fill="#1f2937">Confirm</text>
    <text x="88" y="174" font-family="system-ui, sans-serif" font-size="14" fill="#4b5563">Review the draft before it lands on the list</text>

    <text x="88" y="210" font-family="system-ui, sans-serif" font-size="14" font-weight="600" fill="#1f2937">Item name</text>
    <rect x="88" y="222" width="496" height="44" rx="4" fill="#f5f0e6" stroke="#b8a080"/>
    <text x="104" y="249" font-family="system-ui, sans-serif" font-size="14" fill="#1f2937">Milk</text>

    <text x="88" y="296" font-family="system-ui, sans-serif" font-size="14" font-weight="600" fill="#1f2937">Category (optional)</text>
    <rect x="88" y="308" width="496" height="44" rx="4" fill="#f5f0e6" stroke="#b8a080"/>
    <text x="104" y="335" font-family="system-ui, sans-serif" font-size="14" fill="#6b7280">Dairy</text>

    <text x="88" y="374" font-family="system-ui, sans-serif" font-size="14" fill="#4b5563">Suggestions from household history</text>
    <rect x="88" y="386" width="90" height="44" rx="22" fill="#f5f0e6" stroke="#b8a080"/>
    <text x="133" y="413" text-anchor="middle" font-family="system-ui, sans-serif" font-size="14" fill="#374151">Dairy</text>
    <rect x="190" y="386" width="100" height="44" rx="22" fill="#f5f0e6" stroke="#b8a080"/>
    <text x="240" y="413" text-anchor="middle" font-family="system-ui, sans-serif" font-size="14" fill="#374151">Pantry</text>
    <rect x="302" y="386" width="110" height="44" rx="22" fill="#f5f0e6" stroke="#b8a080"/>
    <text x="357" y="413" text-anchor="middle" font-family="system-ui, sans-serif" font-size="14" fill="#374151">Cleaning</text>

    <rect x="88" y="486" width="240" height="48" rx="6" fill="#8b5cf6"/>
    <text x="208" y="516" text-anchor="middle" font-family="system-ui, sans-serif" font-size="14" font-weight="600" fill="#e8d4b8">86 it</text>
    <rect x="352" y="486" width="140" height="48" rx="6" fill="#f5f0e6" stroke="#b8a080"/>
    <text x="422" y="516" text-anchor="middle" font-family="system-ui, sans-serif" font-size="14" font-weight="600" fill="#1f2937">Back</text>

    <!-- Right card: Already on the list (duplicate guard) -->
    <rect x="660" y="115" width="560" height="470" rx="8" fill="#dcc8a8" stroke="#b8a080"/>
    <text x="688" y="150" font-family="system-ui, sans-serif" font-size="20" font-weight="bold" fill="#1f2937">Already on the list</text>
    <text x="688" y="174" font-family="system-ui, sans-serif" font-size="14" fill="#4b5563">Live excerpt from the household's 86 list</text>

    <!-- Row 1: Milk (highlighted, duplicate target) -->
    <rect x="684" y="186" width="512" height="72" rx="10" fill="none" stroke="#f59e0b"/>
    <rect x="688" y="190" width="504" height="64" rx="8" fill="#f5f0e6" stroke="#f59e0b" stroke-width="3"/>
    <circle cx="722" cy="222" r="15" fill="#f5f0e6" stroke="#8b5cf6" stroke-width="2"/>
    <text x="752" y="216" font-family="system-ui, sans-serif" font-size="16" font-weight="bold" fill="#1f2937">Milk</text>
    <text x="752" y="238" font-family="system-ui, sans-serif" font-size="14" fill="#4b5563">Alex - 2h ago</text>

    <!-- Row 2: Eggs -->
    <rect x="688" y="266" width="504" height="64" rx="8" fill="#e8d4b8" stroke="#b8a080"/>
    <circle cx="722" cy="298" r="15" fill="#f5f0e6" stroke="#8b5cf6" stroke-width="2"/>
    <text x="752" y="292" font-family="system-ui, sans-serif" font-size="16" font-weight="bold" fill="#1f2937">Eggs</text>
    <text x="752" y="314" font-family="system-ui, sans-serif" font-size="14" fill="#4b5563">Sam - 5h ago</text>

    <!-- Row 3: Paper towels -->
    <rect x="688" y="342" width="504" height="64" rx="8" fill="#e8d4b8" stroke="#b8a080"/>
    <circle cx="722" cy="374" r="15" fill="#f5f0e6" stroke="#8b5cf6" stroke-width="2"/>
    <text x="752" y="368" font-family="system-ui, sans-serif" font-size="16" font-weight="bold" fill="#1f2937">Paper towels</text>
    <text x="752" y="390" font-family="system-ui, sans-serif" font-size="14" fill="#4b5563">Riley - 1d ago</text>

    <!-- Duplicate bubble -->
    <rect x="688" y="424" width="504" height="86" rx="8" fill="#f5f0e6" stroke="#f59e0b" stroke-width="2"/>
    <text x="708" y="458" font-family="system-ui, sans-serif" font-size="14" font-weight="bold" fill="#1f2937">Milk is already 86'd - we highlighted it</text>
    <text x="708" y="482" font-family="system-ui, sans-serif" font-size="14" fill="#374151">No new row was created.</text>
    <rect x="1076" y="445" width="96" height="44" rx="6" fill="#8b5cf6"/>
    <text x="1124" y="472" text-anchor="middle" font-family="system-ui, sans-serif" font-size="14" font-weight="600" fill="#e8d4b8">OK</text>

    <text x="688" y="540" font-family="system-ui, sans-serif" font-size="14" fill="#4b5563">No duplicates: adding an existing item points you</text>
    <text x="688" y="560" font-family="system-ui, sans-serif" font-size="14" fill="#4b5563">at the live row instead</text>

    <use href="includes/footer-desktop.svg#site-footer" x="0" y="640"/>

    <g class="callout"><circle cx="604" cy="244" r="14" fill="#dc2626"/><text x="604" y="249" text-anchor="middle" fill="#fff" font-size="14" font-weight="bold">1</text></g>
    <g class="callout"><circle cx="440" cy="408" r="14" fill="#dc2626"/><text x="440" y="413" text-anchor="middle" fill="#fff" font-size="14" font-weight="bold">2</text></g>
    <g class="callout"><circle cx="1204" cy="222" r="14" fill="#dc2626"/><text x="1204" y="227" text-anchor="middle" fill="#fff" font-size="14" font-weight="bold">3</text></g>
    <g class="callout"><circle cx="208" cy="556" r="14" fill="#dc2626"/><text x="208" y="561" text-anchor="middle" fill="#fff" font-size="14" font-weight="bold">4</text></g>
    <g class="callout"><circle cx="640" cy="298" r="14" fill="#dc2626"/><text x="640" y="303" text-anchor="middle" fill="#fff" font-size="14" font-weight="bold">5</text></g>
  </g>

  <g id="mobile" transform="translate(1360, 60)">
    <rect width="360" height="720" rx="24" fill="#e8d4b8" stroke="#b8a080"/>
    <use href="includes/header-mobile.svg#mobile-header-group" x="0" y="0"/>

    <!-- Background list (behind sheet) -->
    <text x="20" y="120" font-family="system-ui, sans-serif" font-size="18" font-weight="bold" fill="#1f2937">86 List</text>
    <rect x="16" y="136" width="328" height="56" rx="8" fill="#dcc8a8" stroke="#b8a080"/>
    <circle cx="44" cy="164" r="14" fill="#f5f0e6" stroke="#8b5cf6" stroke-width="2"/>
    <text x="70" y="160" font-family="system-ui, sans-serif" font-size="14" font-weight="bold" fill="#1f2937">Eggs</text>
    <text x="70" y="180" font-family="system-ui, sans-serif" font-size="14" fill="#4b5563">Sam - 5h ago</text>
    <rect x="16" y="200" width="328" height="56" rx="8" fill="#dcc8a8" stroke="#b8a080"/>
    <circle cx="44" cy="228" r="14" fill="#f5f0e6" stroke="#8b5cf6" stroke-width="2"/>
    <text x="70" y="224" font-family="system-ui, sans-serif" font-size="14" font-weight="bold" fill="#1f2937">Paper towels</text>
    <text x="70" y="244" font-family="system-ui, sans-serif" font-size="14" fill="#4b5563">Riley - 1d ago</text>

    <!-- Dim scrim behind bottom sheet -->
    <rect x="0" y="78" width="360" height="586" fill="rgba(0,0,0,0.5)"/>

    <!-- Bottom sheet: confirm step -->
    <rect x="0" y="290" width="360" height="374" rx="16" fill="#e8d4b8" stroke="#b8a080"/>
    <rect x="160" y="298" width="40" height="6" rx="3" fill="#b8a080"/>
    <text x="20" y="330" font-family="system-ui, sans-serif" font-size="18" font-weight="bold" fill="#1f2937">Confirm</text>

    <text x="20" y="356" font-family="system-ui, sans-serif" font-size="14" font-weight="600" fill="#1f2937">Item name</text>
    <rect x="20" y="366" width="320" height="44" rx="4" fill="#f5f0e6" stroke="#b8a080"/>
    <text x="36" y="393" font-family="system-ui, sans-serif" font-size="14" fill="#1f2937">Milk</text>

    <text x="20" y="438" font-family="system-ui, sans-serif" font-size="14" font-weight="600" fill="#1f2937">Category (optional)</text>
    <rect x="20" y="448" width="320" height="44" rx="4" fill="#f5f0e6" stroke="#b8a080"/>
    <text x="36" y="475" font-family="system-ui, sans-serif" font-size="14" fill="#6b7280">Dairy</text>

    <rect x="20" y="504" width="90" height="44" rx="22" fill="#f5f0e6" stroke="#b8a080"/>
    <text x="65" y="531" text-anchor="middle" font-family="system-ui, sans-serif" font-size="14" fill="#374151">Dairy</text>
    <rect x="120" y="504" width="100" height="44" rx="22" fill="#f5f0e6" stroke="#b8a080"/>
    <text x="170" y="531" text-anchor="middle" font-family="system-ui, sans-serif" font-size="14" fill="#374151">Pantry</text>
    <rect x="230" y="504" width="110" height="44" rx="22" fill="#f5f0e6" stroke="#b8a080"/>
    <text x="285" y="531" text-anchor="middle" font-family="system-ui, sans-serif" font-size="14" fill="#374151">Cleaning</text>

    <rect x="20" y="564" width="180" height="48" rx="6" fill="#8b5cf6"/>
    <text x="110" y="594" text-anchor="middle" font-family="system-ui, sans-serif" font-size="14" font-weight="600" fill="#e8d4b8">86 it</text>
    <rect x="240" y="564" width="100" height="48" rx="6" fill="#f5f0e6" stroke="#b8a080"/>
    <text x="290" y="594" text-anchor="middle" font-family="system-ui, sans-serif" font-size="14" font-weight="600" fill="#1f2937">Back</text>

    <use href="includes/footer-mobile.svg#mobile-bottom-nav" x="0" y="664"/>
    <g class="callout"><circle cx="120" cy="324" r="11" fill="#dc2626"/><text x="120" y="329" text-anchor="middle" fill="#fff" font-size="14" font-weight="bold">1</text></g>
    <g class="callout"><circle cx="220" cy="588" r="11" fill="#dc2626"/><text x="220" y="593" text-anchor="middle" fill="#fff" font-size="14" font-weight="bold">4</text></g>
  </g>

  <g id="annotations" transform="translate(40, 800)">
    <rect width="1840" height="220" rx="8" fill="#dcc8a8" stroke="#b8a080"/>
    <g transform="translate(20, 16)">
      <circle cx="14" cy="14" r="12" fill="#dc2626"/>
      <text x="14" y="19" text-anchor="middle" fill="#fff" font-size="14" font-weight="bold">1</text>
      <text x="38" y="19" font-family="system-ui, sans-serif" font-size="14" font-weight="700" fill="#1f2937">Editable draft before commit</text>
      <a href="#US-002" transform="translate(38, 28)"><rect width="56" height="22" rx="11" fill="#0891b2"/><text x="28" y="16" text-anchor="middle" fill="#f5f0e6" font-size="14" font-weight="700">US-002</text></a>
      <a href="#FR-005" transform="translate(102, 28)"><rect width="56" height="22" rx="11" fill="#2563eb"/><text x="28" y="16" text-anchor="middle" fill="#f5f0e6" font-size="14" font-weight="700">FR-005</text></a>
      <text x="38" y="72" font-family="system-ui, sans-serif" font-size="14" fill="#374151">Name and optional category stay editable;</text>
      <text x="38" y="90" font-family="system-ui, sans-serif" font-size="14" fill="#374151">nothing auto-submits from any capture mode.</text>
    </g>
    <g transform="translate(480, 16)">
      <circle cx="14" cy="14" r="12" fill="#dc2626"/>
      <text x="14" y="19" text-anchor="middle" fill="#fff" font-size="14" font-weight="bold">2</text>
      <text x="38" y="19" font-family="system-ui, sans-serif" font-size="14" font-weight="700" fill="#1f2937">Category suggestions from history</text>
      <a href="#US-002" transform="translate(38, 28)"><rect width="56" height="22" rx="11" fill="#0891b2"/><text x="28" y="16" text-anchor="middle" fill="#f5f0e6" font-size="14" font-weight="700">US-002</text></a>
      <a href="#FR-011" transform="translate(102, 28)"><rect width="56" height="22" rx="11" fill="#2563eb"/><text x="28" y="16" text-anchor="middle" fill="#f5f0e6" font-size="14" font-weight="700">FR-011</text></a>
      <text x="38" y="72" font-family="system-ui, sans-serif" font-size="14" fill="#374151">Free-text category in v1; chips surface the</text>
      <text x="38" y="90" font-family="system-ui, sans-serif" font-size="14" fill="#374151">household's history. Taxonomy may come in 052.</text>
    </g>
    <g transform="translate(940, 16)">
      <circle cx="14" cy="14" r="12" fill="#dc2626"/>
      <text x="14" y="19" text-anchor="middle" fill="#fff" font-size="14" font-weight="bold">3</text>
      <text x="38" y="19" font-family="system-ui, sans-serif" font-size="14" font-weight="700" fill="#1f2937">Duplicates highlight, never error</text>
      <a href="#US-002" transform="translate(38, 28)"><rect width="56" height="22" rx="11" fill="#0891b2"/><text x="28" y="16" text-anchor="middle" fill="#f5f0e6" font-size="14" font-weight="700">US-002</text></a>
      <a href="#FR-007" transform="translate(102, 28)"><rect width="56" height="22" rx="11" fill="#2563eb"/><text x="28" y="16" text-anchor="middle" fill="#f5f0e6" font-size="14" font-weight="700">FR-007</text></a>
      <a href="#SC-003" transform="translate(166, 28)"><rect width="56" height="22" rx="11" fill="#ea580c"/><text x="28" y="16" text-anchor="middle" fill="#f5f0e6" font-size="14" font-weight="700">SC-003</text></a>
      <text x="38" y="72" font-family="system-ui, sans-serif" font-size="14" fill="#374151">Adding an item already 86'd points you at</text>
      <text x="38" y="90" font-family="system-ui, sans-serif" font-size="14" fill="#374151">the live row. Concurrent adds converge to one.</text>
    </g>
    <g transform="translate(1400, 16)">
      <circle cx="14" cy="14" r="12" fill="#dc2626"/>
      <text x="14" y="19" text-anchor="middle" fill="#fff" font-size="14" font-weight="bold">4</text>
      <text x="38" y="19" font-family="system-ui, sans-serif" font-size="14" font-weight="700" fill="#1f2937">Optimistic submit</text>
      <a href="#US-001" transform="translate(38, 28)"><rect width="56" height="22" rx="11" fill="#0891b2"/><text x="28" y="16" text-anchor="middle" fill="#f5f0e6" font-size="14" font-weight="700">US-001</text></a>
      <a href="#FR-006" transform="translate(102, 28)"><rect width="56" height="22" rx="11" fill="#2563eb"/><text x="28" y="16" text-anchor="middle" fill="#f5f0e6" font-size="14" font-weight="700">FR-006</text></a>
      <a href="#SC-001" transform="translate(166, 28)"><rect width="56" height="22" rx="11" fill="#ea580c"/><text x="28" y="16" text-anchor="middle" fill="#f5f0e6" font-size="14" font-weight="700">SC-001</text></a>
      <text x="38" y="72" font-family="system-ui, sans-serif" font-size="14" fill="#374151">Tap 86 it and the item is on your list</text>
      <text x="38" y="90" font-family="system-ui, sans-serif" font-size="14" fill="#374151">instantly; sync reconciles in the background.</text>
    </g>
    <g transform="translate(20, 120)">
      <circle cx="14" cy="14" r="12" fill="#dc2626"/>
      <text x="14" y="19" text-anchor="middle" fill="#fff" font-size="14" font-weight="bold">5</text>
      <text x="38" y="19" font-family="system-ui, sans-serif" font-size="14" font-weight="700" fill="#1f2937">Excerpt mirrors the live list</text>
      <a href="#US-003" transform="translate(38, 28)"><rect width="56" height="22" rx="11" fill="#0891b2"/><text x="28" y="16" text-anchor="middle" fill="#f5f0e6" font-size="14" font-weight="700">US-003</text></a>
      <a href="#FR-008" transform="translate(102, 28)"><rect width="56" height="22" rx="11" fill="#2563eb"/><text x="28" y="16" text-anchor="middle" fill="#f5f0e6" font-size="14" font-weight="700">FR-008</text></a>
      <text x="38" y="72" font-family="system-ui, sans-serif" font-size="14" fill="#374151">Rows keep attribution and 44px restock targets.</text>
    </g>
  </g>
  <text x="40" y="1060" fill="#374151" font-family="system-ui, sans-serif" font-size="18" font-weight="bold">049:04 | Confirm and Duplicates | eightysix</text>
</svg>
