<?xml version="1.0" encoding="UTF-8"?>
<svg xmlns="http://www.w3.org/2000/svg" viewBox="0 0 1920 1080" width="1920" height="1080">
  <defs>
    <linearGradient id="bg" x1="0%" y1="0%" x2="0%" y2="100%">
      <stop offset="0%" stop-color="#c7ddf5"/>
      <stop offset="100%" stop-color="#b8d4f0"/>
    </linearGradient>
    <marker id="arrow" markerWidth="10" markerHeight="8" refX="8" refY="3" orient="auto" markerUnits="userSpaceOnUse">
      <path d="M0,0 L8,3 L0,6 Z" fill="#4b5563"/>
    </marker>
  </defs>
  <rect width="1920" height="1080" fill="url(#bg)"/>
  <text x="960" y="28" text-anchor="middle" font-family="system-ui, sans-serif" font-size="18" font-weight="700" fill="#4b5563" letter-spacing="1">RESTOCK INTERACTIONS AND HISTORY LOOP</text>
  <text x="40" y="52" fill="#8b5cf6" font-family="system-ui, sans-serif" font-size="18" font-weight="bold">DESKTOP (16:9)</text>
  <text x="1500" y="52" fill="#d946ef" font-family="system-ui, sans-serif" font-size="15" font-weight="bold">MOBILE</text>

  <g id="desktop" transform="translate(40, 60)">
    <rect width="1280" height="720" rx="8" fill="#e8d4b8" stroke="#b8a080"/>
    <use href="includes/header-desktop.svg#desktop-header" x="0" y="0"/>
    <rect x="400" y="3" width="70" height="44" rx="4" fill="#8b5cf6"/>
    <text x="435" y="31" text-anchor="middle" fill="#e8d4b8" font-family="system-ui, sans-serif" font-size="14" font-weight="600">Home</text>

    <!-- Card A: Restock - two equivalent paths -->
    <rect x="24" y="66" width="840" height="330" rx="8" fill="#dcc8a8" stroke="#b8a080"/>
    <text x="44" y="94" font-family="system-ui, sans-serif" font-size="18" font-weight="bold" fill="#1f2937">Restock - two equivalent paths</text>

    <!-- (a) tap the circle check -->
    <text x="44" y="120" font-family="system-ui, sans-serif" font-size="14" fill="#4b5563">(a) Tap the leading 44px circle check</text>
    <rect x="44" y="130" width="800" height="56" rx="8" fill="#f5f0e6" stroke="#b8a080"/>
    <circle cx="80" cy="158" r="22" fill="#22c55e"/>
    <path d="M 70 158 l 7 8 l 13 -15" stroke="#f5f0e6" stroke-width="4" fill="none" stroke-linecap="round" stroke-linejoin="round"/>
    <circle cx="80" cy="158" r="30" fill="none" stroke="#8b5cf6" stroke-width="2" stroke-dasharray="6 4"/>
    <text x="120" y="152" font-family="system-ui, sans-serif" font-size="16" font-weight="bold" fill="#1f2937">Milk</text>
    <text x="120" y="174" font-family="system-ui, sans-serif" font-size="14" fill="#4b5563">Alex - 2h ago</text>

    <!-- (b) mid-swipe right, green action zone revealed -->
    <text x="44" y="216" font-family="system-ui, sans-serif" font-size="14" fill="#4b5563">(b) The same row mid-swipe right - green action zone revealed</text>
    <rect x="44" y="226" width="180" height="56" rx="8" fill="#22c55e"/>
    <text x="134" y="259" text-anchor="middle" font-family="system-ui, sans-serif" font-size="16" font-weight="bold" fill="#f5f0e6">Restock</text>
    <rect x="232" y="226" width="612" height="56" rx="8" fill="#f5f0e6" stroke="#b8a080"/>
    <circle cx="268" cy="254" r="22" fill="#f5f0e6" stroke="#4b5563" stroke-width="2"/>
    <text x="304" y="248" font-family="system-ui, sans-serif" font-size="16" font-weight="bold" fill="#1f2937">Milk</text>
    <text x="304" y="270" font-family="system-ui, sans-serif" font-size="14" fill="#4b5563">Alex - 2h ago</text>
    <line x1="560" y1="254" x2="640" y2="254" stroke="#4b5563" stroke-width="2.5" marker-end="url(#arrow)"/>
    <text x="660" y="259" font-family="system-ui, sans-serif" font-size="14" fill="#4b5563">swiping right</text>

    <!-- (c) post-restock undo toast -->
    <text x="44" y="312" font-family="system-ui, sans-serif" font-size="14" fill="#4b5563">(c) After restock - both paths end in the same undo toast</text>
    <rect x="44" y="322" width="460" height="56" rx="8" fill="#1f2937"/>
    <text x="68" y="356" font-family="system-ui, sans-serif" font-size="16" fill="#e8d4b8">Milk restocked</text>
    <rect x="380" y="328" width="104" height="44" rx="6" fill="#8b5cf6"/>
    <text x="432" y="356" text-anchor="middle" font-family="system-ui, sans-serif" font-size="14" font-weight="600" fill="#e8d4b8">Undo</text>

    <!-- Card B: The history flywheel -->
    <rect x="24" y="412" width="840" height="212" rx="8" fill="#dcc8a8" stroke="#b8a080"/>
    <text x="44" y="440" font-family="system-ui, sans-serif" font-size="18" font-weight="bold" fill="#1f2937">The history flywheel</text>
    <rect x="44" y="456" width="120" height="48" rx="6" fill="#f5f0e6" stroke="#b8a080"/>
    <text x="104" y="485" text-anchor="middle" font-family="system-ui, sans-serif" font-size="14" font-weight="600" fill="#1f2937">86'd</text>
    <line x1="166" y1="480" x2="198" y2="480" stroke="#4b5563" stroke-width="2" marker-end="url(#arrow)"/>
    <rect x="204" y="456" width="150" height="48" rx="6" fill="#f5f0e6" stroke="#b8a080"/>
    <text x="279" y="485" text-anchor="middle" font-family="system-ui, sans-serif" font-size="14" font-weight="600" fill="#1f2937">On the list</text>
    <line x1="356" y1="480" x2="388" y2="480" stroke="#4b5563" stroke-width="2" marker-end="url(#arrow)"/>
    <rect x="394" y="456" width="190" height="48" rx="6" fill="#f5f0e6" stroke="#22c55e"/>
    <text x="489" y="485" text-anchor="middle" font-family="system-ui, sans-serif" font-size="14" font-weight="600" fill="#1f2937">Restocked (history)</text>
    <line x1="586" y1="480" x2="618" y2="480" stroke="#4b5563" stroke-width="2" marker-end="url(#arrow)"/>
    <rect x="624" y="456" width="220" height="48" rx="6" fill="#f5f0e6" stroke="#b8a080"/>
    <text x="734" y="485" text-anchor="middle" font-family="system-ui, sans-serif" font-size="14" font-weight="600" fill="#1f2937">Autocomplete and Re-86 strip</text>
    <path d="M 734 506 L 734 528 L 104 528 L 104 510" fill="none" stroke="#4b5563" stroke-width="2" marker-end="url(#arrow)"/>
    <text x="434" y="548" text-anchor="middle" font-family="system-ui, sans-serif" font-size="14" fill="#4b5563">one tap re-86's it again - no retyping</text>
    <text x="44" y="580" font-family="system-ui, sans-serif" font-size="14" fill="#374151">Restocked rows are never deleted - they power autocomplete (FR-004) and one-tap re-86 (FR-010)</text>

    <!-- Side note: stale-action safety -->
    <rect x="880" y="66" width="376" height="140" rx="8" fill="#dcc8a8" stroke="#b8a080"/>
    <text x="900" y="96" font-family="system-ui, sans-serif" font-size="16" font-weight="bold" fill="#1f2937">Stale-action safety</text>
    <text x="900" y="124" font-family="system-ui, sans-serif" font-size="14" fill="#374151">Acting on an already-restocked item is a</text>
    <text x="900" y="144" font-family="system-ui, sans-serif" font-size="14" fill="#374151">no-op - live sync prevents stale check-offs.</text>

    <!-- Side card: recently restocked strip -->
    <rect x="880" y="222" width="376" height="170" rx="8" fill="#dcc8a8" stroke="#b8a080"/>
    <text x="900" y="250" font-family="system-ui, sans-serif" font-size="16" font-weight="bold" fill="#1f2937">Recently restocked - tap to re-86</text>
    <rect x="900" y="266" width="92" height="44" rx="22" fill="#f5f0e6" stroke="#b8a080"/>
    <text x="946" y="293" text-anchor="middle" font-family="system-ui, sans-serif" font-size="14" font-weight="600" fill="#1f2937">Milk</text>
    <rect x="1000" y="266" width="92" height="44" rx="22" fill="#f5f0e6" stroke="#b8a080"/>
    <text x="1046" y="293" text-anchor="middle" font-family="system-ui, sans-serif" font-size="14" font-weight="600" fill="#1f2937">Eggs</text>
    <rect x="1100" y="266" width="92" height="44" rx="22" fill="#f5f0e6" stroke="#b8a080"/>
    <text x="1146" y="293" text-anchor="middle" font-family="system-ui, sans-serif" font-size="14" font-weight="600" fill="#1f2937">Coffee</text>
    <text x="900" y="340" font-family="system-ui, sans-serif" font-size="14" fill="#374151">One tap re-86's a frequent item from</text>
    <text x="900" y="360" font-family="system-ui, sans-serif" font-size="14" fill="#374151">history - no retyping, no autocomplete.</text>

    <!-- Side card: live sync -->
    <rect x="880" y="408" width="376" height="224" rx="8" fill="#dcc8a8" stroke="#b8a080"/>
    <text x="900" y="434" font-family="system-ui, sans-serif" font-size="16" font-weight="bold" fill="#1f2937">Live sync - under 2 seconds</text>
    <rect x="900" y="444" width="336" height="44" rx="6" fill="#f5f0e6" stroke="#b8a080"/>
    <text x="1068" y="471" text-anchor="middle" font-family="system-ui, sans-serif" font-size="14" fill="#1f2937">Device A restocks Milk</text>
    <line x1="1068" y1="490" x2="1068" y2="506" stroke="#4b5563" stroke-width="2" marker-end="url(#arrow)"/>
    <rect x="900" y="510" width="336" height="44" rx="6" fill="#f5f0e6" stroke="#b8a080"/>
    <text x="1068" y="537" text-anchor="middle" font-family="system-ui, sans-serif" font-size="14" fill="#1f2937">Realtime channel broadcasts the change</text>
    <line x1="1068" y1="556" x2="1068" y2="572" stroke="#4b5563" stroke-width="2" marker-end="url(#arrow)"/>
    <rect x="900" y="576" width="336" height="44" rx="6" fill="#f5f0e6" stroke="#b8a080"/>
    <text x="1068" y="603" text-anchor="middle" font-family="system-ui, sans-serif" font-size="14" fill="#1f2937">Device B's list updates - no refresh</text>

    <use href="includes/footer-desktop.svg#site-footer" x="0" y="640"/>

    <g class="callout"><circle cx="820" cy="158" r="14" fill="#dc2626"/><text x="820" y="163" text-anchor="middle" fill="#fff" font-size="14" font-weight="bold">1</text></g>
    <g class="callout"><circle cx="530" cy="350" r="14" fill="#dc2626"/><text x="530" y="355" text-anchor="middle" fill="#fff" font-size="14" font-weight="bold">2</text></g>
    <g class="callout"><circle cx="300" cy="434" r="14" fill="#dc2626"/><text x="300" y="439" text-anchor="middle" fill="#fff" font-size="14" font-weight="bold">3</text></g>
    <g class="callout"><circle cx="1216" cy="92" r="14" fill="#dc2626"/><text x="1216" y="97" text-anchor="middle" fill="#fff" font-size="14" font-weight="bold">4</text></g>
  </g>

  <g id="mobile" transform="translate(1360, 60)">
    <rect width="360" height="720" rx="24" fill="#e8d4b8" stroke="#b8a080"/>
    <use href="includes/header-mobile.svg#mobile-header-group" x="0" y="0"/>

    <!-- (a) tap state -->
    <rect x="16" y="110" width="328" height="114" rx="8" fill="#dcc8a8" stroke="#b8a080"/>
    <text x="32" y="134" font-family="system-ui, sans-serif" font-size="14" fill="#4b5563">(a) Tap the circle check</text>
    <rect x="32" y="146" width="296" height="64" rx="8" fill="#f5f0e6" stroke="#b8a080"/>
    <circle cx="68" cy="178" r="22" fill="#22c55e"/>
    <path d="M 58 178 l 7 8 l 13 -15" stroke="#f5f0e6" stroke-width="4" fill="none" stroke-linecap="round" stroke-linejoin="round"/>
    <circle cx="68" cy="178" r="30" fill="none" stroke="#8b5cf6" stroke-width="2" stroke-dasharray="6 4"/>
    <text x="108" y="172" font-family="system-ui, sans-serif" font-size="16" font-weight="bold" fill="#1f2937">Milk</text>
    <text x="108" y="194" font-family="system-ui, sans-serif" font-size="14" fill="#4b5563">Alex - 2h ago</text>

    <!-- (c) undo toast -->
    <rect x="16" y="248" width="328" height="116" rx="8" fill="#dcc8a8" stroke="#b8a080"/>
    <text x="32" y="272" font-family="system-ui, sans-serif" font-size="14" fill="#4b5563">(c) Undo toast after restock</text>
    <rect x="32" y="284" width="296" height="64" rx="8" fill="#1f2937"/>
    <text x="52" y="322" font-family="system-ui, sans-serif" font-size="14" fill="#e8d4b8">Milk restocked</text>
    <rect x="236" y="294" width="80" height="44" rx="6" fill="#8b5cf6"/>
    <text x="276" y="322" text-anchor="middle" font-family="system-ui, sans-serif" font-size="14" font-weight="600" fill="#e8d4b8">Undo</text>

    <!-- recently restocked strip -->
    <rect x="16" y="388" width="328" height="150" rx="8" fill="#dcc8a8" stroke="#b8a080"/>
    <text x="32" y="412" font-family="system-ui, sans-serif" font-size="14" font-weight="bold" fill="#1f2937">Recently restocked - tap to re-86</text>
    <rect x="32" y="428" width="88" height="44" rx="22" fill="#f5f0e6" stroke="#b8a080"/>
    <text x="76" y="455" text-anchor="middle" font-family="system-ui, sans-serif" font-size="14" font-weight="600" fill="#1f2937">Milk</text>
    <rect x="128" y="428" width="88" height="44" rx="22" fill="#f5f0e6" stroke="#b8a080"/>
    <text x="172" y="455" text-anchor="middle" font-family="system-ui, sans-serif" font-size="14" font-weight="600" fill="#1f2937">Eggs</text>
    <rect x="224" y="428" width="88" height="44" rx="22" fill="#f5f0e6" stroke="#b8a080"/>
    <text x="268" y="455" text-anchor="middle" font-family="system-ui, sans-serif" font-size="14" font-weight="600" fill="#1f2937">Coffee</text>
    <text x="32" y="496" font-family="system-ui, sans-serif" font-size="14" fill="#374151">Restocked rows persist as history -</text>
    <text x="32" y="516" font-family="system-ui, sans-serif" font-size="14" fill="#374151">they power autocomplete and re-86.</text>

    <!-- live sync note -->
    <rect x="16" y="552" width="328" height="96" rx="8" fill="#dcc8a8" stroke="#b8a080"/>
    <text x="32" y="576" font-family="system-ui, sans-serif" font-size="14" font-weight="bold" fill="#1f2937">Live sync</text>
    <text x="32" y="600" font-family="system-ui, sans-serif" font-size="14" fill="#374151">Already restocked elsewhere? Acting</text>
    <text x="32" y="620" font-family="system-ui, sans-serif" font-size="14" fill="#374151">on it is a no-op - never stale.</text>

    <use href="includes/footer-mobile.svg#mobile-bottom-nav" x="0" y="664"/>

    <g class="callout"><circle cx="308" cy="178" r="11" fill="#dc2626"/><text x="308" y="183" text-anchor="middle" fill="#fff" font-size="14" font-weight="bold">1</text></g>
    <g class="callout"><circle cx="200" cy="316" r="11" fill="#dc2626"/><text x="200" y="321" text-anchor="middle" fill="#fff" font-size="14" font-weight="bold">2</text></g>
    <g class="callout"><circle cx="320" cy="410" r="11" fill="#dc2626"/><text x="320" y="415" text-anchor="middle" fill="#fff" font-size="14" font-weight="bold">3</text></g>
  </g>

  <g id="annotations" transform="translate(40, 800)">
    <rect width="1840" height="220" rx="8" fill="#dcc8a8" stroke="#b8a080"/>
    <g transform="translate(20, 16)">
      <circle cx="14" cy="14" r="12" fill="#dc2626"/>
      <text x="14" y="19" text-anchor="middle" fill="#fff" font-size="14" font-weight="bold">1</text>
      <text x="38" y="19" font-family="system-ui, sans-serif" font-size="14" font-weight="700" fill="#1f2937">Two equivalent restock paths</text>
      <text x="38" y="44" font-family="system-ui, sans-serif" font-size="14" fill="#374151">A 44px circle check leads every row - the accessible</text>
      <text x="38" y="62" font-family="system-ui, sans-serif" font-size="14" fill="#374151">baseline. Swipe-right is the power path; both restock.</text>
      <a href="#US-003" transform="translate(38, 76)"><rect width="56" height="22" rx="11" fill="#0891b2"/><text x="28" y="17" text-anchor="middle" fill="#f5f0e6" font-size="14" font-weight="700">US-003</text></a>
      <a href="#FR-008" transform="translate(102, 76)"><rect width="56" height="22" rx="11" fill="#2563eb"/><text x="28" y="17" text-anchor="middle" fill="#f5f0e6" font-size="14" font-weight="700">FR-008</text></a>
      <a href="#SC-005" transform="translate(166, 76)"><rect width="56" height="22" rx="11" fill="#ea580c"/><text x="28" y="17" text-anchor="middle" fill="#f5f0e6" font-size="14" font-weight="700">SC-005</text></a>
    </g>
    <g transform="translate(480, 16)">
      <circle cx="14" cy="14" r="12" fill="#dc2626"/>
      <text x="14" y="19" text-anchor="middle" fill="#fff" font-size="14" font-weight="bold">2</text>
      <text x="38" y="19" font-family="system-ui, sans-serif" font-size="14" font-weight="700" fill="#1f2937">Session undo</text>
      <text x="38" y="44" font-family="system-ui, sans-serif" font-size="14" fill="#374151">Both paths end in the same toast. A mis-tap at the</text>
      <text x="38" y="62" font-family="system-ui, sans-serif" font-size="14" fill="#374151">store recovers in one tap within the session.</text>
      <a href="#US-003" transform="translate(38, 76)"><rect width="56" height="22" rx="11" fill="#0891b2"/><text x="28" y="17" text-anchor="middle" fill="#f5f0e6" font-size="14" font-weight="700">US-003</text></a>
      <a href="#FR-009" transform="translate(102, 76)"><rect width="56" height="22" rx="11" fill="#2563eb"/><text x="28" y="17" text-anchor="middle" fill="#f5f0e6" font-size="14" font-weight="700">FR-009</text></a>
    </g>
    <g transform="translate(940, 16)">
      <circle cx="14" cy="14" r="12" fill="#dc2626"/>
      <text x="14" y="19" text-anchor="middle" fill="#fff" font-size="14" font-weight="bold">3</text>
      <text x="38" y="19" font-family="system-ui, sans-serif" font-size="14" font-weight="700" fill="#1f2937">History flywheel</text>
      <text x="38" y="44" font-family="system-ui, sans-serif" font-size="14" fill="#374151">Restocked rows are never deleted. History feeds</text>
      <text x="38" y="62" font-family="system-ui, sans-serif" font-size="14" fill="#374151">autocomplete and one-tap re-86 - faster every capture.</text>
      <a href="#US-003" transform="translate(38, 76)"><rect width="56" height="22" rx="11" fill="#0891b2"/><text x="28" y="17" text-anchor="middle" fill="#f5f0e6" font-size="14" font-weight="700">US-003</text></a>
      <a href="#US-002" transform="translate(102, 76)"><rect width="56" height="22" rx="11" fill="#0891b2"/><text x="28" y="17" text-anchor="middle" fill="#f5f0e6" font-size="14" font-weight="700">US-002</text></a>
      <a href="#FR-004" transform="translate(166, 76)"><rect width="56" height="22" rx="11" fill="#2563eb"/><text x="28" y="17" text-anchor="middle" fill="#f5f0e6" font-size="14" font-weight="700">FR-004</text></a>
      <a href="#FR-010" transform="translate(230, 76)"><rect width="56" height="22" rx="11" fill="#2563eb"/><text x="28" y="17" text-anchor="middle" fill="#f5f0e6" font-size="14" font-weight="700">FR-010</text></a>
    </g>
    <g transform="translate(1400, 16)">
      <circle cx="14" cy="14" r="12" fill="#dc2626"/>
      <text x="14" y="19" text-anchor="middle" fill="#fff" font-size="14" font-weight="bold">4</text>
      <text x="38" y="19" font-family="system-ui, sans-serif" font-size="14" font-weight="700" fill="#1f2937">Stale-action safety</text>
      <text x="38" y="44" font-family="system-ui, sans-serif" font-size="14" fill="#374151">Restocking an already-restocked item is a no-op.</text>
      <text x="38" y="62" font-family="system-ui, sans-serif" font-size="14" fill="#374151">Realtime sync means no stale check-offs, ever.</text>
      <a href="#US-001" transform="translate(38, 76)"><rect width="56" height="22" rx="11" fill="#0891b2"/><text x="28" y="17" text-anchor="middle" fill="#f5f0e6" font-size="14" font-weight="700">US-001</text></a>
      <a href="#FR-002" transform="translate(102, 76)"><rect width="56" height="22" rx="11" fill="#2563eb"/><text x="28" y="17" text-anchor="middle" fill="#f5f0e6" font-size="14" font-weight="700">FR-002</text></a>
    </g>
    <g transform="translate(20, 130)">
      <text x="0" y="19" font-family="system-ui, sans-serif" font-size="14" font-weight="700" fill="#4b5563" letter-spacing="1">WHAT SHIPS</text>
      <text x="0" y="44" font-family="system-ui, sans-serif" font-size="14" fill="#374151">Both restock paths call the same restock action and surface the same undo toast; undo re-86's through the shared submit path (FR-016).</text>
      <text x="0" y="64" font-family="system-ui, sans-serif" font-size="14" fill="#374151">A restock flips status to stocked - the row leaves every member's list within 2 seconds (FR-002, SC-002) and joins history forever.</text>
    </g>
  </g>
  <text x="40" y="1060" fill="#374151" font-family="system-ui, sans-serif" font-size="18" font-weight="bold">049:05 | Restock and History | eightysix</text>
</svg>
