<?xml version="1.0" encoding="UTF-8"?>
<svg xmlns="http://www.w3.org/2000/svg" viewBox="0 0 1920 1080" width="1920" height="1080">
  <defs>
    <linearGradient id="bg" x1="0%" y1="0%" x2="0%" y2="100%">
      <stop offset="0%" stop-color="#c7ddf5"/>
      <stop offset="100%" stop-color="#b8d4f0"/>
    </linearGradient>
  </defs>
  <rect width="1920" height="1080" fill="url(#bg)"/>
  <text x="960" y="28" text-anchor="middle" font-family="system-ui, sans-serif" font-size="18" font-weight="700" fill="#4b5563" letter-spacing="1">SCAN TAB - LIVE VIEWFINDER</text>
  <text x="40" y="52" fill="#8b5cf6" font-family="system-ui, sans-serif" font-size="18" font-weight="bold">DESKTOP (16:9)</text>
  <text x="1500" y="52" fill="#d946ef" font-family="system-ui, sans-serif" font-size="15" font-weight="bold">MOBILE</text>

  <g id="desktop" transform="translate(40, 60)">
    <rect width="1280" height="720" rx="8" fill="#e8d4b8" stroke="#b8a080"/>
    <use href="includes/header-desktop.svg#desktop-header" x="0" y="0"/>
    <rect x="400" y="3" width="70" height="44" rx="4" fill="#8b5cf6"/>
    <text x="435" y="31" text-anchor="middle" fill="#e8d4b8" font-family="system-ui, sans-serif" font-size="14" font-weight="600">Home</text>

    <!-- Background list (dimmed under modal capture sheet) -->
    <text x="60" y="105" font-family="system-ui, sans-serif" font-size="24" font-weight="bold" fill="#1f2937">The 86 List</text>
    <rect x="60" y="130" width="1160" height="56" rx="8" fill="#dcc8a8" stroke="#b8a080"/>
    <text x="84" y="164" font-family="system-ui, sans-serif" font-size="14" fill="#1f2937">Sriracha Hot Chili Sauce</text>
    <text x="1196" y="164" text-anchor="end" font-family="system-ui, sans-serif" font-size="14" fill="#4b5563">Condiments</text>
    <rect x="60" y="198" width="1160" height="56" rx="8" fill="#dcc8a8" stroke="#b8a080"/>
    <text x="84" y="232" font-family="system-ui, sans-serif" font-size="14" fill="#1f2937">Oat Milk</text>
    <text x="1196" y="232" text-anchor="end" font-family="system-ui, sans-serif" font-size="14" fill="#4b5563">Dairy</text>
    <rect x="60" y="266" width="1160" height="56" rx="8" fill="#dcc8a8" stroke="#b8a080"/>
    <text x="84" y="300" font-family="system-ui, sans-serif" font-size="14" fill="#1f2937">Coffee Beans</text>
    <text x="1196" y="300" text-anchor="end" font-family="system-ui, sans-serif" font-size="14" fill="#4b5563">Pantry</text>

    <!-- Dark dimming overlay for the modal capture sheet -->
    <rect x="0" y="50" width="1280" height="590" fill="rgba(0,0,0,0.5)"/>

    <!-- Modal capture sheet (049 surface, Scan tab live) -->
    <rect x="390" y="110" width="500" height="490" rx="12" fill="#e8d4b8" stroke="#b8a080"/>
    <text x="414" y="148" font-family="system-ui, sans-serif" font-size="18" font-weight="bold" fill="#1f2937">86 something</text>
    <rect x="830" y="122" width="44" height="44" rx="4" fill="#dcc8a8" stroke="#b8a080"/>
    <text x="852" y="150" text-anchor="middle" font-family="system-ui, sans-serif" font-size="14" font-weight="600" fill="#374151">X</text>

    <!-- Tabs: Type | Scan (active) | Snap -->
    <rect x="410" y="170" width="146" height="44" rx="4" fill="#dcc8a8" stroke="#b8a080"/>
    <text x="483" y="197" text-anchor="middle" font-family="system-ui, sans-serif" font-size="14" font-weight="500" fill="#374151">Type</text>
    <rect x="566" y="170" width="146" height="44" rx="4" fill="#f5f0e6" stroke="#8b5cf6"/>
    <text x="639" y="197" text-anchor="middle" font-family="system-ui, sans-serif" font-size="14" font-weight="700" fill="#8b5cf6">Scan</text>
    <rect x="566" y="214" width="146" height="4" fill="#8b5cf6"/>
    <rect x="722" y="170" width="146" height="44" rx="4" fill="#dcc8a8" stroke="#b8a080"/>
    <text x="795" y="197" text-anchor="middle" font-family="system-ui, sans-serif" font-size="14" font-weight="500" fill="#374151">Snap</text>

    <!-- Camera viewfinder (dark rect = live camera preview content) -->
    <rect x="420" y="240" width="440" height="248" rx="8" fill="#1e293b"/>
    <path d="M 440 276 L 440 258 L 458 258" stroke="#38bdf8" stroke-width="3" fill="none"/>
    <path d="M 822 258 L 840 258 L 840 276" stroke="#38bdf8" stroke-width="3" fill="none"/>
    <path d="M 440 452 L 440 470 L 458 470" stroke="#38bdf8" stroke-width="3" fill="none"/>
    <path d="M 822 470 L 840 470 L 840 452" stroke="#38bdf8" stroke-width="3" fill="none"/>
    <g transform="translate(575, 300) rotate(-6)">
      <rect width="130" height="76" rx="4" fill="#f5f0e6" stroke="#94a3b8"/>
      <rect x="10" y="10" width="3" height="40" fill="#1f2937"/>
      <rect x="15" y="10" width="2" height="40" fill="#1f2937"/>
      <rect x="19" y="10" width="4" height="40" fill="#1f2937"/>
      <rect x="25" y="10" width="2" height="40" fill="#1f2937"/>
      <rect x="29" y="10" width="3" height="40" fill="#1f2937"/>
      <rect x="34" y="10" width="2" height="40" fill="#1f2937"/>
      <rect x="38" y="10" width="4" height="40" fill="#1f2937"/>
      <rect x="44" y="10" width="2" height="40" fill="#1f2937"/>
      <rect x="48" y="10" width="3" height="40" fill="#1f2937"/>
      <rect x="53" y="10" width="2" height="40" fill="#1f2937"/>
      <rect x="57" y="10" width="4" height="40" fill="#1f2937"/>
      <rect x="63" y="10" width="2" height="40" fill="#1f2937"/>
      <rect x="67" y="10" width="3" height="40" fill="#1f2937"/>
      <rect x="72" y="10" width="2" height="40" fill="#1f2937"/>
      <rect x="76" y="10" width="4" height="40" fill="#1f2937"/>
      <rect x="82" y="10" width="2" height="40" fill="#1f2937"/>
      <rect x="86" y="10" width="3" height="40" fill="#1f2937"/>
      <rect x="91" y="10" width="2" height="40" fill="#1f2937"/>
      <rect x="95" y="10" width="4" height="40" fill="#1f2937"/>
      <rect x="101" y="10" width="2" height="40" fill="#1f2937"/>
      <rect x="105" y="10" width="3" height="40" fill="#1f2937"/>
      <rect x="110" y="10" width="2" height="40" fill="#1f2937"/>
      <rect x="114" y="10" width="4" height="40" fill="#1f2937"/>
      <text x="65" y="64" text-anchor="middle" font-family="monospace" font-size="14" fill="#1f2937">012345678905</text>
    </g>
    <line x1="436" y1="364" x2="844" y2="364" stroke="#ef4444" stroke-width="2"/>
    <rect x="510" y="444" width="260" height="32" rx="16" fill="#e8d4b8" stroke="#b8a080"/>
    <text x="640" y="464" text-anchor="middle" font-family="system-ui, sans-serif" font-size="14" fill="#374151">Hold steady - no shutter needed</text>

    <text x="640" y="520" text-anchor="middle" font-family="system-ui, sans-serif" font-size="14" fill="#4b5563">Looking for a barcode...</text>
    <text x="540" y="556" text-anchor="middle" font-family="system-ui, sans-serif" font-size="14" fill="#8b5cf6" text-decoration="underline">Enter digits instead</text>
    <text x="765" y="556" text-anchor="middle" font-family="system-ui, sans-serif" font-size="14" fill="#8b5cf6" text-decoration="underline">Switch to Type</text>

    <use href="includes/footer-desktop.svg#site-footer" x="0" y="640"/>

    <g class="callout"><circle cx="895" cy="364" r="14" fill="#dc2626"/><text x="895" y="369" text-anchor="middle" fill="#fff" font-size="14" font-weight="bold">1</text></g>
    <g class="callout"><circle cx="455" cy="552" r="14" fill="#dc2626"/><text x="455" y="557" text-anchor="middle" fill="#fff" font-size="14" font-weight="bold">2</text></g>
    <g class="callout"><circle cx="905" cy="192" r="14" fill="#dc2626"/><text x="905" y="197" text-anchor="middle" fill="#fff" font-size="14" font-weight="bold">3</text></g>
    <g class="callout"><circle cx="380" cy="302" r="14" fill="#dc2626"/><text x="380" y="307" text-anchor="middle" fill="#fff" font-size="14" font-weight="bold">4</text></g>
  </g>

  <g id="mobile" transform="translate(1360, 60)">
    <rect width="360" height="720" rx="24" fill="#e8d4b8" stroke="#b8a080"/>
    <use href="includes/header-mobile.svg#mobile-header-group" x="0" y="0"/>

    <!-- Background list (dimmed under bottom sheet) -->
    <text x="20" y="112" font-family="system-ui, sans-serif" font-size="18" font-weight="bold" fill="#1f2937">The 86 List</text>
    <rect x="16" y="128" width="328" height="48" rx="8" fill="#dcc8a8" stroke="#b8a080"/>
    <text x="32" y="157" font-family="system-ui, sans-serif" font-size="14" fill="#1f2937">Sriracha Hot Chili Sauce</text>
    <rect x="16" y="184" width="328" height="48" rx="8" fill="#dcc8a8" stroke="#b8a080"/>
    <text x="32" y="213" font-family="system-ui, sans-serif" font-size="14" fill="#1f2937">Oat Milk</text>

    <!-- Dark dimming overlay for the bottom sheet -->
    <rect x="0" y="78" width="360" height="586" fill="rgba(0,0,0,0.5)"/>

    <!-- Bottom sheet capture surface -->
    <rect x="0" y="236" width="360" height="428" rx="16" fill="#e8d4b8" stroke="#b8a080"/>
    <rect x="164" y="244" width="32" height="5" rx="2" fill="#b8a080"/>
    <text x="20" y="274" font-family="system-ui, sans-serif" font-size="16" font-weight="bold" fill="#1f2937">86 something</text>

    <rect x="16" y="284" width="104" height="44" rx="4" fill="#dcc8a8" stroke="#b8a080"/>
    <text x="68" y="311" text-anchor="middle" font-family="system-ui, sans-serif" font-size="14" font-weight="500" fill="#374151">Type</text>
    <rect x="128" y="284" width="104" height="44" rx="4" fill="#f5f0e6" stroke="#8b5cf6"/>
    <text x="180" y="311" text-anchor="middle" font-family="system-ui, sans-serif" font-size="14" font-weight="700" fill="#8b5cf6">Scan</text>
    <rect x="128" y="328" width="104" height="4" fill="#8b5cf6"/>
    <rect x="240" y="284" width="104" height="44" rx="4" fill="#dcc8a8" stroke="#b8a080"/>
    <text x="292" y="311" text-anchor="middle" font-family="system-ui, sans-serif" font-size="14" font-weight="500" fill="#374151">Snap</text>

    <!-- Taller camera viewfinder (dark rect = live camera preview content) -->
    <rect x="20" y="344" width="320" height="216" rx="8" fill="#1e293b"/>
    <path d="M 36 376 L 36 360 L 52 360" stroke="#38bdf8" stroke-width="3" fill="none"/>
    <path d="M 308 360 L 324 360 L 324 376" stroke="#38bdf8" stroke-width="3" fill="none"/>
    <path d="M 36 528 L 36 544 L 52 544" stroke="#38bdf8" stroke-width="3" fill="none"/>
    <path d="M 308 544 L 324 544 L 324 528" stroke="#38bdf8" stroke-width="3" fill="none"/>
    <g transform="translate(122, 408) rotate(-5)">
      <rect width="116" height="64" rx="4" fill="#f5f0e6" stroke="#94a3b8"/>
      <rect x="10" y="8" width="3" height="32" fill="#1f2937"/>
      <rect x="15" y="8" width="2" height="32" fill="#1f2937"/>
      <rect x="19" y="8" width="4" height="32" fill="#1f2937"/>
      <rect x="25" y="8" width="2" height="32" fill="#1f2937"/>
      <rect x="29" y="8" width="3" height="32" fill="#1f2937"/>
      <rect x="34" y="8" width="2" height="32" fill="#1f2937"/>
      <rect x="38" y="8" width="4" height="32" fill="#1f2937"/>
      <rect x="44" y="8" width="2" height="32" fill="#1f2937"/>
      <rect x="48" y="8" width="3" height="32" fill="#1f2937"/>
      <rect x="53" y="8" width="2" height="32" fill="#1f2937"/>
      <rect x="57" y="8" width="4" height="32" fill="#1f2937"/>
      <rect x="63" y="8" width="2" height="32" fill="#1f2937"/>
      <rect x="67" y="8" width="3" height="32" fill="#1f2937"/>
      <rect x="72" y="8" width="2" height="32" fill="#1f2937"/>
      <rect x="76" y="8" width="4" height="32" fill="#1f2937"/>
      <rect x="82" y="8" width="2" height="32" fill="#1f2937"/>
      <rect x="86" y="8" width="3" height="32" fill="#1f2937"/>
      <rect x="91" y="8" width="2" height="32" fill="#1f2937"/>
      <rect x="95" y="8" width="4" height="32" fill="#1f2937"/>
      <rect x="101" y="8" width="3" height="32" fill="#1f2937"/>
      <text x="58" y="56" text-anchor="middle" font-family="monospace" font-size="14" fill="#1f2937">012345678905</text>
    </g>
    <line x1="34" y1="452" x2="326" y2="452" stroke="#ef4444" stroke-width="2"/>
    <rect x="55" y="520" width="250" height="30" rx="15" fill="#e8d4b8" stroke="#b8a080"/>
    <text x="180" y="539" text-anchor="middle" font-family="system-ui, sans-serif" font-size="14" fill="#374151">Hold steady - no shutter needed</text>

    <text x="180" y="586" text-anchor="middle" font-family="system-ui, sans-serif" font-size="14" fill="#4b5563">Looking for a barcode...</text>
    <text x="95" y="616" text-anchor="middle" font-family="system-ui, sans-serif" font-size="14" fill="#8b5cf6" text-decoration="underline">Enter digits instead</text>
    <text x="255" y="616" text-anchor="middle" font-family="system-ui, sans-serif" font-size="14" fill="#8b5cf6" text-decoration="underline">Switch to Type</text>

    <use href="includes/footer-mobile.svg#mobile-bottom-nav" x="0" y="664"/>

    <g class="callout"><circle cx="334" cy="452" r="11" fill="#dc2626"/><text x="334" y="457" text-anchor="middle" fill="#fff" font-size="14" font-weight="bold">1</text></g>
    <g class="callout"><circle cx="336" cy="612" r="11" fill="#dc2626"/><text x="336" y="617" text-anchor="middle" fill="#fff" font-size="14" font-weight="bold">2</text></g>
  </g>

  <g id="annotations" transform="translate(40, 800)">
    <rect width="1840" height="220" rx="8" fill="#dcc8a8" stroke="#b8a080"/>
    <g transform="translate(20, 16)">
      <circle cx="14" cy="14" r="12" fill="#dc2626"/>
      <text x="14" y="19" text-anchor="middle" fill="#fff" font-size="14" font-weight="bold">1</text>
      <text x="38" y="19" font-family="system-ui, sans-serif" font-size="14" font-weight="700" fill="#1f2937">Continuous detection, no shutter</text>
      <text x="38" y="44" font-family="system-ui, sans-serif" font-size="14" fill="#374151">Viewfinder reads the barcode the moment it</text>
      <text x="38" y="62" font-family="system-ui, sans-serif" font-size="14" fill="#374151">lands in frame - point and it reads.</text>
      <g transform="translate(38, 76)">
        <a href="#US-001"><rect width="56" height="22" rx="11" fill="#0891b2"/><text x="28" y="16" text-anchor="middle" fill="#f5f0e6" font-size="14" font-weight="700">US-001</text></a>
        <a href="#FR-001" transform="translate(64, 0)"><rect width="56" height="22" rx="11" fill="#2563eb"/><text x="28" y="16" text-anchor="middle" fill="#f5f0e6" font-size="14" font-weight="700">FR-001</text></a>
        <a href="#SC-001" transform="translate(128, 0)"><rect width="56" height="22" rx="11" fill="#ea580c"/><text x="28" y="16" text-anchor="middle" fill="#f5f0e6" font-size="14" font-weight="700">SC-001</text></a>
      </g>
    </g>
    <g transform="translate(480, 16)">
      <circle cx="14" cy="14" r="12" fill="#dc2626"/>
      <text x="14" y="19" text-anchor="middle" fill="#fff" font-size="14" font-weight="bold">2</text>
      <text x="38" y="19" font-family="system-ui, sans-serif" font-size="14" font-weight="700" fill="#1f2937">Digit-entry escape hatch always visible</text>
      <text x="38" y="44" font-family="system-ui, sans-serif" font-size="14" fill="#374151">Permission or focus problems never dead-end -</text>
      <text x="38" y="62" font-family="system-ui, sans-serif" font-size="14" fill="#374151">typed digits run the same lookup chain.</text>
      <g transform="translate(38, 76)">
        <a href="#US-003"><rect width="56" height="22" rx="11" fill="#0891b2"/><text x="28" y="16" text-anchor="middle" fill="#f5f0e6" font-size="14" font-weight="700">US-003</text></a>
        <a href="#FR-007" transform="translate(64, 0)"><rect width="56" height="22" rx="11" fill="#2563eb"/><text x="28" y="16" text-anchor="middle" fill="#f5f0e6" font-size="14" font-weight="700">FR-007</text></a>
        <a href="#FR-009" transform="translate(128, 0)"><rect width="56" height="22" rx="11" fill="#2563eb"/><text x="28" y="16" text-anchor="middle" fill="#f5f0e6" font-size="14" font-weight="700">FR-009</text></a>
      </g>
    </g>
    <g transform="translate(940, 16)">
      <circle cx="14" cy="14" r="12" fill="#dc2626"/>
      <text x="14" y="19" text-anchor="middle" fill="#fff" font-size="14" font-weight="bold">3</text>
      <text x="38" y="19" font-family="system-ui, sans-serif" font-size="14" font-weight="700" fill="#1f2937">Same sheet, third tab unchanged</text>
      <text x="38" y="44" font-family="system-ui, sans-serif" font-size="14" fill="#374151">The 049 surface promise holds - every tab</text>
      <text x="38" y="62" font-family="system-ui, sans-serif" font-size="14" fill="#374151">converges on the identical submit path.</text>
      <g transform="translate(38, 76)">
        <a href="#US-001"><rect width="56" height="22" rx="11" fill="#0891b2"/><text x="28" y="16" text-anchor="middle" fill="#f5f0e6" font-size="14" font-weight="700">US-001</text></a>
        <a href="#US-002" transform="translate(64, 0)"><rect width="56" height="22" rx="11" fill="#0891b2"/><text x="28" y="16" text-anchor="middle" fill="#f5f0e6" font-size="14" font-weight="700">US-002</text></a>
        <a href="#FR-011" transform="translate(128, 0)"><rect width="56" height="22" rx="11" fill="#2563eb"/><text x="28" y="16" text-anchor="middle" fill="#f5f0e6" font-size="14" font-weight="700">FR-011</text></a>
      </g>
    </g>
    <g transform="translate(1400, 16)">
      <circle cx="14" cy="14" r="12" fill="#dc2626"/>
      <text x="14" y="19" text-anchor="middle" fill="#fff" font-size="14" font-weight="bold">4</text>
      <text x="38" y="19" font-family="system-ui, sans-serif" font-size="14" font-weight="700" fill="#1f2937">Non-product code rejection</text>
      <text x="38" y="44" font-family="system-ui, sans-serif" font-size="14" fill="#374151">QR and URL codes bounce with a specific</text>
      <text x="38" y="62" font-family="system-ui, sans-serif" font-size="14" fill="#374151">message while scanning continues.</text>
      <g transform="translate(38, 76)">
        <a href="#US-001"><rect width="56" height="22" rx="11" fill="#0891b2"/><text x="28" y="16" text-anchor="middle" fill="#f5f0e6" font-size="14" font-weight="700">US-001</text></a>
        <a href="#FR-012" transform="translate(64, 0)"><rect width="56" height="22" rx="11" fill="#2563eb"/><text x="28" y="16" text-anchor="middle" fill="#f5f0e6" font-size="14" font-weight="700">FR-012</text></a>
      </g>
    </g>
    <g transform="translate(20, 130)">
      <text x="0" y="19" font-family="system-ui, sans-serif" font-size="14" font-weight="700" fill="#4b5563" letter-spacing="1">WHAT SHIPS</text>
      <text x="0" y="44" font-family="system-ui, sans-serif" font-size="14" fill="#374151">Scan tab goes live inside the 049 capture sheet: continuous detection via @zxing/browser, lookup chain cache-first then Open Food Facts.</text>
      <text x="0" y="64" font-family="system-ui, sans-serif" font-size="14" fill="#374151">Every result lands on the standard confirm step - a scan never adds anything by itself. Snap tab ships in 053.</text>
    </g>
  </g>
  <text x="40" y="1060" fill="#374151" font-family="system-ui, sans-serif" font-size="18" font-weight="bold">052:01 | Scan Viewfinder | eightysix</text>
</svg>
