<?xml version="1.0" encoding="UTF-8"?>
<svg xmlns="http://www.w3.org/2000/svg" viewBox="0 0 1920 1080" width="1920" height="1080">
  <defs>
    <linearGradient id="bg" x1="0%" y1="0%" x2="0%" y2="100%">
      <stop offset="0%" stop-color="#c7ddf5"/>
      <stop offset="100%" stop-color="#b8d4f0"/>
    </linearGradient>
  </defs>
  <rect width="1920" height="1080" fill="url(#bg)"/>
  <text x="960" y="28" text-anchor="middle" font-family="system-ui, sans-serif" font-size="18" font-weight="700" fill="#4b5563" letter-spacing="1">SCAN FALLBACKS - PERMISSION OFFLINE AND SLOW</text>
  <text x="40" y="52" fill="#8b5cf6" font-family="system-ui, sans-serif" font-size="18" font-weight="bold">DESKTOP (16:9)</text>
  <text x="1500" y="52" fill="#d946ef" font-family="system-ui, sans-serif" font-size="15" font-weight="bold">MOBILE</text>

  <g id="desktop" transform="translate(40, 60)">
    <rect width="1280" height="720" rx="8" fill="#e8d4b8" stroke="#b8a080"/>
    <use href="includes/header-desktop.svg#desktop-header" x="0" y="0"/>
    <rect x="400" y="3" width="70" height="44" rx="4" fill="#8b5cf6"/>
    <text x="435" y="31" text-anchor="middle" fill="#e8d4b8" font-family="system-ui, sans-serif" font-size="14" font-weight="600">Home</text>

    <text x="40" y="84" font-family="system-ui, sans-serif" font-size="20" font-weight="bold" fill="#1f2937">Scan - when things get in the way</text>

    <!-- Card 1: Camera permission denied -->
    <rect x="40" y="94" width="1200" height="152" rx="8" fill="#dcc8a8" stroke="#b8a080"/>
    <!-- Lock glyph -->
    <path d="M 88 138 L 88 128 A 14 14 0 0 1 116 128 L 116 138" fill="none" stroke="#4b5563" stroke-width="4"/>
    <rect x="80" y="138" width="44" height="34" rx="4" fill="#4b5563"/>
    <circle cx="102" cy="153" r="5" fill="#f5f0e6"/>
    <text x="160" y="128" font-family="system-ui, sans-serif" font-size="16" font-weight="700" fill="#1f2937">Camera permission denied</text>
    <text x="160" y="152" font-family="system-ui, sans-serif" font-size="14" fill="#374151">Camera is off for 86</text>
    <!-- Digit entry row: 8 boxes, 7 filled -->
    <rect x="160" y="172" width="44" height="44" rx="4" fill="#f5f0e6" stroke="#b8a080"/>
    <text x="182" y="200" text-anchor="middle" font-family="system-ui, sans-serif" font-size="18" font-weight="700" fill="#1f2937">0</text>
    <rect x="214" y="172" width="44" height="44" rx="4" fill="#f5f0e6" stroke="#b8a080"/>
    <text x="236" y="200" text-anchor="middle" font-family="system-ui, sans-serif" font-size="18" font-weight="700" fill="#1f2937">7</text>
    <rect x="268" y="172" width="44" height="44" rx="4" fill="#f5f0e6" stroke="#b8a080"/>
    <text x="290" y="200" text-anchor="middle" font-family="system-ui, sans-serif" font-size="18" font-weight="700" fill="#1f2937">8</text>
    <rect x="322" y="172" width="44" height="44" rx="4" fill="#f5f0e6" stroke="#b8a080"/>
    <text x="344" y="200" text-anchor="middle" font-family="system-ui, sans-serif" font-size="18" font-weight="700" fill="#1f2937">9</text>
    <rect x="376" y="172" width="44" height="44" rx="4" fill="#f5f0e6" stroke="#b8a080"/>
    <text x="398" y="200" text-anchor="middle" font-family="system-ui, sans-serif" font-size="18" font-weight="700" fill="#1f2937">2</text>
    <rect x="430" y="172" width="44" height="44" rx="4" fill="#f5f0e6" stroke="#b8a080"/>
    <text x="452" y="200" text-anchor="middle" font-family="system-ui, sans-serif" font-size="18" font-weight="700" fill="#1f2937">7</text>
    <rect x="484" y="172" width="44" height="44" rx="4" fill="#f5f0e6" stroke="#b8a080"/>
    <text x="506" y="200" text-anchor="middle" font-family="system-ui, sans-serif" font-size="18" font-weight="700" fill="#1f2937">3</text>
    <rect x="538" y="172" width="44" height="44" rx="4" fill="#f5f0e6" stroke="#8b5cf6" stroke-width="2"/>
    <line x1="560" y1="182" x2="560" y2="206" stroke="#8b5cf6" stroke-width="2"/>
    <text x="760" y="152" font-family="system-ui, sans-serif" font-size="14" fill="#8b5cf6" text-decoration="underline">Enable camera in settings</text>
    <text x="760" y="200" font-family="system-ui, sans-serif" font-size="14" fill="#4b5563">Digits run the same lookup</text>

    <!-- Card 2: Offline at the fridge -->
    <rect x="40" y="256" width="1200" height="152" rx="8" fill="#dcc8a8" stroke="#b8a080"/>
    <!-- Cloud-off glyph -->
    <circle cx="88" cy="318" r="14" fill="#4b5563"/>
    <circle cx="106" cy="310" r="17" fill="#4b5563"/>
    <circle cx="123" cy="320" r="12" fill="#4b5563"/>
    <rect x="76" y="318" width="60" height="14" rx="7" fill="#4b5563"/>
    <line x1="70" y1="344" x2="140" y2="290" stroke="#dcc8a8" stroke-width="9"/>
    <line x1="70" y1="344" x2="140" y2="290" stroke="#4b5563" stroke-width="4"/>
    <text x="160" y="290" font-family="system-ui, sans-serif" font-size="16" font-weight="700" fill="#1f2937">Offline at the fridge</text>
    <text x="160" y="314" font-family="system-ui, sans-serif" font-size="14" fill="#374151">No connection - name it now, we will look it up later</text>
    <rect x="160" y="330" width="420" height="44" rx="4" fill="#f5f0e6" stroke="#b8a080"/>
    <text x="176" y="357" font-family="system-ui, sans-serif" font-size="14" fill="#6b7280">Name the item</text>
    <!-- Barcode chip -->
    <rect x="600" y="330" width="190" height="44" rx="22" fill="#f5f0e6" stroke="#b8a080"/>
    <line x1="620" y1="342" x2="620" y2="362" stroke="#1f2937" stroke-width="2"/>
    <line x1="625" y1="342" x2="625" y2="362" stroke="#1f2937" stroke-width="1"/>
    <line x1="630" y1="342" x2="630" y2="362" stroke="#1f2937" stroke-width="3"/>
    <line x1="636" y1="342" x2="636" y2="362" stroke="#1f2937" stroke-width="1"/>
    <text x="648" y="357" font-family="system-ui, sans-serif" font-size="14" fill="#374151">0789273158426</text>
    <rect x="810" y="330" width="120" height="44" rx="6" fill="#8b5cf6"/>
    <text x="870" y="358" text-anchor="middle" font-family="system-ui, sans-serif" font-size="14" font-weight="600" fill="#e8d4b8">86 it</text>
    <text x="160" y="398" font-family="system-ui, sans-serif" font-size="14" fill="#4b5563">Lookup retries when the connection returns</text>

    <!-- Card 3: Slow lookup -->
    <rect x="40" y="418" width="1200" height="148" rx="8" fill="#dcc8a8" stroke="#b8a080"/>
    <!-- Spinner -->
    <circle cx="102" cy="480" r="20" fill="none" stroke="#b8a080" stroke-width="4"/>
    <circle cx="102" cy="480" r="20" fill="none" stroke="#8b5cf6" stroke-width="4" stroke-dasharray="40 86" stroke-linecap="round"/>
    <text x="102" y="525" text-anchor="middle" font-family="system-ui, sans-serif" font-size="14" font-weight="600" fill="#4b5563">3s</text>
    <text x="160" y="452" font-family="system-ui, sans-serif" font-size="16" font-weight="700" fill="#1f2937">Slow lookup</text>
    <text x="160" y="478" font-family="system-ui, sans-serif" font-size="14" fill="#374151">Checking the product database...</text>
    <rect x="160" y="496" width="260" height="44" rx="6" fill="#f5f0e6" stroke="#8b5cf6" stroke-width="2"/>
    <text x="290" y="524" text-anchor="middle" font-family="system-ui, sans-serif" font-size="14" font-weight="600" fill="#8b5cf6">Skip - type it myself</text>
    <text x="520" y="524" font-family="system-ui, sans-serif" font-size="14" fill="#4b5563">The barcode stays on the draft either way</text>

    <!-- Decode timeout strip -->
    <rect x="40" y="576" width="1200" height="56" rx="8" fill="#dcc8a8" stroke="#b8a080"/>
    <text x="60" y="610" font-family="system-ui, sans-serif" font-size="14" font-weight="700" fill="#1f2937">Decode timeout</text>
    <text x="200" y="610" font-family="system-ui, sans-serif" font-size="14" fill="#374151">After 10 seconds of failed decoding the viewfinder offers digit entry and the Type tab - zero dead ends</text>

    <use href="includes/footer-desktop.svg#site-footer" x="0" y="640"/>

    <g class="callout"><circle cx="620" cy="194" r="14" fill="#dc2626"/><text x="620" y="199" text-anchor="middle" fill="#fff" font-size="14" font-weight="bold">1</text></g>
    <g class="callout"><circle cx="965" cy="352" r="14" fill="#dc2626"/><text x="965" y="357" text-anchor="middle" fill="#fff" font-size="14" font-weight="bold">2</text></g>
    <g class="callout"><circle cx="460" cy="518" r="14" fill="#dc2626"/><text x="460" y="523" text-anchor="middle" fill="#fff" font-size="14" font-weight="bold">3</text></g>
    <g class="callout"><circle cx="1180" cy="586" r="14" fill="#dc2626"/><text x="1180" y="591" text-anchor="middle" fill="#fff" font-size="14" font-weight="bold">4</text></g>
  </g>

  <g id="mobile" transform="translate(1360, 60)">
    <rect width="360" height="720" rx="24" fill="#e8d4b8" stroke="#b8a080"/>
    <use href="includes/header-mobile.svg#mobile-header-group" x="0" y="0"/>
    <text x="180" y="124" text-anchor="middle" font-family="system-ui, sans-serif" font-size="18" font-weight="bold" fill="#1f2937">Scan</text>

    <!-- Card 1 stacked: camera permission denied -->
    <rect x="16" y="140" width="328" height="440" rx="8" fill="#dcc8a8" stroke="#b8a080"/>
    <path d="M 166 200 L 166 188 A 14 14 0 0 1 194 188 L 194 200" fill="none" stroke="#4b5563" stroke-width="4"/>
    <rect x="158" y="200" width="44" height="34" rx="4" fill="#4b5563"/>
    <circle cx="180" cy="215" r="5" fill="#f5f0e6"/>
    <text x="180" y="266" text-anchor="middle" font-family="system-ui, sans-serif" font-size="16" font-weight="700" fill="#1f2937">Camera permission denied</text>
    <text x="180" y="290" text-anchor="middle" font-family="system-ui, sans-serif" font-size="14" fill="#374151">Camera is off for 86</text>
    <!-- Digit entry row: 8 boxes, 7 filled -->
    <rect x="30" y="310" width="34" height="44" rx="4" fill="#f5f0e6" stroke="#b8a080"/>
    <text x="47" y="338" text-anchor="middle" font-family="system-ui, sans-serif" font-size="16" font-weight="700" fill="#1f2937">0</text>
    <rect x="68" y="310" width="34" height="44" rx="4" fill="#f5f0e6" stroke="#b8a080"/>
    <text x="85" y="338" text-anchor="middle" font-family="system-ui, sans-serif" font-size="16" font-weight="700" fill="#1f2937">7</text>
    <rect x="106" y="310" width="34" height="44" rx="4" fill="#f5f0e6" stroke="#b8a080"/>
    <text x="123" y="338" text-anchor="middle" font-family="system-ui, sans-serif" font-size="16" font-weight="700" fill="#1f2937">8</text>
    <rect x="144" y="310" width="34" height="44" rx="4" fill="#f5f0e6" stroke="#b8a080"/>
    <text x="161" y="338" text-anchor="middle" font-family="system-ui, sans-serif" font-size="16" font-weight="700" fill="#1f2937">9</text>
    <rect x="182" y="310" width="34" height="44" rx="4" fill="#f5f0e6" stroke="#b8a080"/>
    <text x="199" y="338" text-anchor="middle" font-family="system-ui, sans-serif" font-size="16" font-weight="700" fill="#1f2937">2</text>
    <rect x="220" y="310" width="34" height="44" rx="4" fill="#f5f0e6" stroke="#b8a080"/>
    <text x="237" y="338" text-anchor="middle" font-family="system-ui, sans-serif" font-size="16" font-weight="700" fill="#1f2937">7</text>
    <rect x="258" y="310" width="34" height="44" rx="4" fill="#f5f0e6" stroke="#b8a080"/>
    <text x="275" y="338" text-anchor="middle" font-family="system-ui, sans-serif" font-size="16" font-weight="700" fill="#1f2937">3</text>
    <rect x="296" y="310" width="34" height="44" rx="4" fill="#f5f0e6" stroke="#8b5cf6" stroke-width="2"/>
    <line x1="313" y1="320" x2="313" y2="344" stroke="#8b5cf6" stroke-width="2"/>
    <text x="180" y="402" text-anchor="middle" font-family="system-ui, sans-serif" font-size="14" fill="#8b5cf6" text-decoration="underline">Enable camera in settings</text>
    <text x="180" y="432" text-anchor="middle" font-family="system-ui, sans-serif" font-size="14" fill="#4b5563">Digits run the same lookup</text>
    <rect x="32" y="456" width="296" height="44" rx="6" fill="#8b5cf6"/>
    <text x="180" y="484" text-anchor="middle" font-family="system-ui, sans-serif" font-size="14" font-weight="600" fill="#e8d4b8">Look it up</text>
    <text x="180" y="540" text-anchor="middle" font-family="system-ui, sans-serif" font-size="14" fill="#4b5563">Offline? Name it now - lookup waits</text>

    <use href="includes/footer-mobile.svg#mobile-bottom-nav" x="0" y="664"/>
    <g class="callout"><circle cx="320" cy="376" r="11" fill="#dc2626"/><text x="320" y="381" text-anchor="middle" fill="#fff" font-size="14" font-weight="bold">1</text></g>
  </g>

  <g id="annotations" transform="translate(40, 800)">
    <rect width="1840" height="220" rx="8" fill="#dcc8a8" stroke="#b8a080"/>
    <g transform="translate(20, 16)">
      <circle cx="14" cy="14" r="12" fill="#dc2626"/>
      <text x="14" y="19" text-anchor="middle" fill="#fff" font-size="14" font-weight="bold">1</text>
      <text x="38" y="19" font-family="system-ui, sans-serif" font-size="14" font-weight="700" fill="#1f2937">Digit entry fallback</text>
      <text x="38" y="44" font-family="system-ui, sans-serif" font-size="14" fill="#374151">Permission denial degrades to typing the digits -</text>
      <text x="38" y="62" font-family="system-ui, sans-serif" font-size="14" fill="#374151">the exact same lookup chain runs.</text>
      <a href="#US-003" transform="translate(38, 76)"><rect width="56" height="22" rx="11" fill="#0891b2"/><text x="28" y="17" text-anchor="middle" fill="#f5f0e6" font-size="14" font-weight="700">US-003</text></a>
      <a href="#US-001" transform="translate(102, 76)"><rect width="56" height="22" rx="11" fill="#0891b2"/><text x="28" y="17" text-anchor="middle" fill="#f5f0e6" font-size="14" font-weight="700">US-001</text></a>
      <a href="#FR-007" transform="translate(166, 76)"><rect width="56" height="22" rx="11" fill="#2563eb"/><text x="28" y="17" text-anchor="middle" fill="#f5f0e6" font-size="14" font-weight="700">FR-007</text></a>
      <a href="#SC-004" transform="translate(230, 76)"><rect width="56" height="22" rx="11" fill="#ea580c"/><text x="28" y="17" text-anchor="middle" fill="#f5f0e6" font-size="14" font-weight="700">SC-004</text></a>
    </g>
    <g transform="translate(480, 16)">
      <circle cx="14" cy="14" r="12" fill="#dc2626"/>
      <text x="14" y="19" text-anchor="middle" fill="#fff" font-size="14" font-weight="bold">2</text>
      <text x="38" y="19" font-family="system-ui, sans-serif" font-size="14" font-weight="700" fill="#1f2937">Offline capture completes NOW</text>
      <text x="38" y="44" font-family="system-ui, sans-serif" font-size="14" fill="#374151">Lookup defers to reconnection; capture never</text>
      <text x="38" y="62" font-family="system-ui, sans-serif" font-size="14" fill="#374151">waits. Queue-ready for feature 051.</text>
      <a href="#US-003" transform="translate(38, 76)"><rect width="56" height="22" rx="11" fill="#0891b2"/><text x="28" y="17" text-anchor="middle" fill="#f5f0e6" font-size="14" font-weight="700">US-003</text></a>
      <a href="#US-002" transform="translate(102, 76)"><rect width="56" height="22" rx="11" fill="#0891b2"/><text x="28" y="17" text-anchor="middle" fill="#f5f0e6" font-size="14" font-weight="700">US-002</text></a>
      <a href="#FR-008" transform="translate(166, 76)"><rect width="56" height="22" rx="11" fill="#2563eb"/><text x="28" y="17" text-anchor="middle" fill="#f5f0e6" font-size="14" font-weight="700">FR-008</text></a>
    </g>
    <g transform="translate(940, 16)">
      <circle cx="14" cy="14" r="12" fill="#dc2626"/>
      <text x="14" y="19" text-anchor="middle" fill="#fff" font-size="14" font-weight="bold">3</text>
      <text x="38" y="19" font-family="system-ui, sans-serif" font-size="14" font-weight="700" fill="#1f2937">Skippable slow lookups</text>
      <text x="38" y="44" font-family="system-ui, sans-serif" font-size="14" fill="#374151">3 seconds is the patience budget; skipping to</text>
      <text x="38" y="62" font-family="system-ui, sans-serif" font-size="14" fill="#374151">manual entry never loses the barcode.</text>
      <a href="#US-003" transform="translate(38, 76)"><rect width="56" height="22" rx="11" fill="#0891b2"/><text x="28" y="17" text-anchor="middle" fill="#f5f0e6" font-size="14" font-weight="700">US-003</text></a>
      <a href="#FR-009" transform="translate(102, 76)"><rect width="56" height="22" rx="11" fill="#2563eb"/><text x="28" y="17" text-anchor="middle" fill="#f5f0e6" font-size="14" font-weight="700">FR-009</text></a>
    </g>
    <g transform="translate(1400, 16)">
      <circle cx="14" cy="14" r="12" fill="#dc2626"/>
      <text x="14" y="19" text-anchor="middle" fill="#fff" font-size="14" font-weight="bold">4</text>
      <text x="38" y="19" font-family="system-ui, sans-serif" font-size="14" font-weight="700" fill="#1f2937">Decode timeout escape</text>
      <text x="38" y="44" font-family="system-ui, sans-serif" font-size="14" fill="#374151">10s of failed decoding offers digit entry and</text>
      <text x="38" y="62" font-family="system-ui, sans-serif" font-size="14" fill="#374151">the Type tab - zero dead ends.</text>
      <a href="#US-003" transform="translate(38, 76)"><rect width="56" height="22" rx="11" fill="#0891b2"/><text x="28" y="17" text-anchor="middle" fill="#f5f0e6" font-size="14" font-weight="700">US-003</text></a>
      <a href="#FR-001" transform="translate(102, 76)"><rect width="56" height="22" rx="11" fill="#2563eb"/><text x="28" y="17" text-anchor="middle" fill="#f5f0e6" font-size="14" font-weight="700">FR-001</text></a>
      <a href="#SC-002" transform="translate(166, 76)"><rect width="56" height="22" rx="11" fill="#ea580c"/><text x="28" y="17" text-anchor="middle" fill="#f5f0e6" font-size="14" font-weight="700">SC-002</text></a>
    </g>
    <g transform="translate(20, 130)">
      <text x="0" y="19" font-family="system-ui, sans-serif" font-size="14" font-weight="700" fill="#4b5563" letter-spacing="1">WHAT SHIPS</text>
      <text x="0" y="44" font-family="system-ui, sans-serif" font-size="14" fill="#374151">Every fallback lands on a working capture path and converges on the 049 confirm step with the barcode preserved on the draft.</text>
      <text x="0" y="64" font-family="system-ui, sans-serif" font-size="14" fill="#374151">Stepwise degradation: live viewfinder, then digit entry, then plain manual naming - the Scan tab never dead-ends.</text>
    </g>
  </g>
  <text x="40" y="1060" fill="#374151" font-family="system-ui, sans-serif" font-size="18" font-weight="bold">052:03 | Scan Fallbacks | eightysix</text>
</svg>
