<?xml version="1.0" encoding="UTF-8"?>
<svg xmlns="http://www.w3.org/2000/svg" xmlns:xlink="http://www.w3.org/1999/xlink"
     viewBox="0 0 1920 1080" width="1920" height="1080">
  <defs>
    <linearGradient id="bg" x1="0%" y1="0%" x2="0%" y2="100%">
      <stop offset="0%" stop-color="#c7ddf5"/>
      <stop offset="100%" stop-color="#b8d4f0"/>
    </linearGradient>
  </defs>

  <!-- Canvas background -->
  <rect width="1920" height="1080" fill="url(#bg)"/>

  <!-- CENTERED TITLE -->
  <text x="960" y="28" text-anchor="middle" font-family="system-ui, sans-serif"
        font-size="20" font-weight="bold" fill="#1f2937">
    COLORBLIND MODE - ACCESSIBILITY SETTINGS
  </text>

  <!-- Section labels -->
  <text x="40" y="52" fill="#8b5cf6" font-family="system-ui, sans-serif"
        font-size="18" font-weight="bold">DESKTOP (16:9)</text>
  <text x="1500" y="52" fill="#d946ef" font-family="system-ui, sans-serif"
        font-size="15" font-weight="bold">MOBILE</text>

  <!-- DESKTOP (1280x720) -->
  <g id="desktop" transform="translate(40, 60)">
    <rect width="1280" height="720" rx="8" fill="#e8d4b8" stroke="#b8a080"/>

    <!-- Header -->
    <use href="includes/header-desktop.svg#desktop-header" x="0" y="0"/>

    <!-- Active nav state for Account -->
    <rect x="660" y="3" width="80" height="44" rx="4" fill="#8b5cf6"/>
    <text x="700" y="31" text-anchor="middle" fill="#e8d4b8" font-family="system-ui, sans-serif"
          font-size="14" font-weight="600">Account</text>

    <!-- Main content area -->
    <g transform="translate(140, 80)">
      <!-- Settings Panel -->
      <rect x="0" y="0" width="1000" height="520" rx="12" fill="#dcc8a8" stroke="#b8a080" stroke-width="2"/>

      <!-- Panel Header -->
      <text x="40" y="50" fill="#374151" font-family="system-ui, sans-serif"
            font-size="24" font-weight="bold">Accessibility Settings</text>
      <text x="40" y="80" fill="#4b5563" font-family="system-ui, sans-serif"
            font-size="14">Configure colorblind mode and visual accessibility options</text>

      <!-- Colorblind Type Section -->
      <g transform="translate(40, 120)">
        <text x="0" y="0" fill="#374151" font-family="system-ui, sans-serif"
              font-size="16" font-weight="600">Colorblind Type</text>
        <text x="0" y="24" fill="#4b5563" font-family="system-ui, sans-serif"
              font-size="14">Select your color vision deficiency type for optimized colors</text>

        <!-- Dropdown -->
        <rect x="0" y="40" width="400" height="48" rx="8" fill="#f5f0e6" stroke="#b8a080" stroke-width="1"/>
        <text x="16" y="70" fill="#374151" font-family="system-ui, sans-serif" font-size="14">Deuteranopia (Green-blind)</text>
        <path d="M380 58 L388 66 L396 58" stroke="#374151" stroke-width="2" fill="none"/>
      </g>

      <!-- Pattern Overlays Section -->
      <g transform="translate(40, 250)">
        <text x="0" y="0" fill="#374151" font-family="system-ui, sans-serif"
              font-size="16" font-weight="600">Pattern Overlays</text>
        <text x="0" y="24" fill="#4b5563" font-family="system-ui, sans-serif"
              font-size="14">Add visual patterns to distinguish UI elements beyond color</text>

        <!-- Toggle Row -->
        <rect x="0" y="40" width="400" height="48" rx="8" fill="#f5f0e6" stroke="#b8a080" stroke-width="1"/>
        <text x="16" y="70" fill="#374151" font-family="system-ui, sans-serif" font-size="14">Enable Patterns</text>
        <!-- Toggle ON -->
        <rect x="320" y="52" width="56" height="28" rx="14" fill="#22c55e"/>
        <circle cx="362" cy="66" r="10" fill="#e8d4b8"/>
      </g>

      <!-- Simulation Mode Section -->
      <g transform="translate(40, 370)">
        <text x="0" y="0" fill="#374151" font-family="system-ui, sans-serif"
              font-size="16" font-weight="600">Simulation Mode</text>
        <text x="0" y="24" fill="#4b5563" font-family="system-ui, sans-serif"
              font-size="14">For developers: simulate colorblind vision to test designs</text>

        <!-- Toggle Row -->
        <rect x="0" y="40" width="400" height="48" rx="8" fill="#f5f0e6" stroke="#b8a080" stroke-width="1"/>
        <text x="16" y="70" fill="#374151" font-family="system-ui, sans-serif" font-size="14">Enable Simulation</text>
        <!-- Toggle OFF -->
        <rect x="320" y="52" width="56" height="28" rx="14" fill="#6b7280"/>
        <circle cx="334" cy="66" r="10" fill="#e8d4b8"/>
      </g>

      <!-- Preview Panel -->
      <g transform="translate(500, 120)">
        <text x="0" y="0" fill="#374151" font-family="system-ui, sans-serif"
              font-size="16" font-weight="600">Live Preview</text>

        <rect x="0" y="20" width="460" height="360" rx="8" fill="#e8d4b8" stroke="#b8a080"/>

        <!-- Sample UI Elements -->
        <g transform="translate(20, 50)">
          <!-- Success state with pattern -->
          <rect x="0" y="0" width="200" height="44" rx="6" fill="#009988"/>
          <text x="100" y="28" text-anchor="middle" fill="#e8d4b8" font-family="system-ui, sans-serif"
                font-size="14" font-weight="600">Success Button</text>

          <!-- Warning state -->
          <rect x="220" y="0" width="200" height="44" rx="6" fill="#EE7733"/>
          <text x="320" y="28" text-anchor="middle" fill="#e8d4b8" font-family="system-ui, sans-serif"
                font-size="14" font-weight="600">Warning</text>

          <!-- Error state -->
          <rect x="0" y="60" width="200" height="44" rx="6" fill="#CC3311"/>
          <text x="100" y="88" text-anchor="middle" fill="#e8d4b8" font-family="system-ui, sans-serif"
                font-size="14" font-weight="600">Error</text>

          <!-- Info state -->
          <rect x="220" y="60" width="200" height="44" rx="6" fill="#0077BB"/>
          <text x="320" y="88" text-anchor="middle" fill="#e8d4b8" font-family="system-ui, sans-serif"
                font-size="14" font-weight="600">Info</text>

          <!-- Sample badges -->
          <text x="0" y="140" fill="#374151" font-family="system-ui, sans-serif"
                font-size="14" font-weight="600">Status Badges:</text>

          <rect x="0" y="160" width="90" height="28" rx="4" fill="#009988"/>
          <text x="45" y="180" text-anchor="middle" fill="#e8d4b8" font-family="system-ui, sans-serif"
                font-size="14">Active</text>

          <rect x="100" y="160" width="90" height="28" rx="4" fill="#EE7733"/>
          <text x="145" y="180" text-anchor="middle" fill="#e8d4b8" font-family="system-ui, sans-serif"
                font-size="14">Pending</text>

          <rect x="200" y="160" width="90" height="28" rx="4" fill="#CC3311"/>
          <text x="245" y="180" text-anchor="middle" fill="#e8d4b8" font-family="system-ui, sans-serif"
                font-size="14">Error</text>

          <!-- Theme compatibility note -->
          <text x="0" y="230" fill="#4b5563" font-family="system-ui, sans-serif" font-size="14">
            Works with all 32 DaisyUI themes
          </text>
          <text x="0" y="250" fill="#4b5563" font-family="system-ui, sans-serif" font-size="14">
            Preference saved to localStorage
          </text>
        </g>
      </g>
    </g>

    <!-- Callouts on Desktop -->
    <!-- Callout 1: Colorblind Type Dropdown -->
    <g class="callout" transform="translate(584, 268)">
      <circle r="14" fill="#dc2626"/>
      <text y="5" fill="#e8d4b8" font-size="14" font-weight="bold" text-anchor="middle">1</text>
    </g>

    <!-- Callout 2: Pattern Overlay Toggle -->
    <g class="callout" transform="translate(584, 398)">
      <circle r="14" fill="#dc2626"/>
      <text y="5" fill="#e8d4b8" font-size="14" font-weight="bold" text-anchor="middle">2</text>
    </g>

    <!-- Callout 3: Simulation Mode Toggle -->
    <g class="callout" transform="translate(584, 518)">
      <circle r="14" fill="#dc2626"/>
      <text y="5" fill="#e8d4b8" font-size="14" font-weight="bold" text-anchor="middle">3</text>
    </g>

    <!-- Callout 4: Live Preview Area -->
    <g class="callout" transform="translate(1104, 300)">
      <circle r="14" fill="#dc2626"/>
      <text y="5" fill="#e8d4b8" font-size="14" font-weight="bold" text-anchor="middle">4</text>
    </g>

    <!-- Footer -->
    <use href="includes/footer-desktop.svg#site-footer" x="0" y="640"/>
  </g>

  <!-- MOBILE (360x720) -->
  <g id="mobile" transform="translate(1360, 60)">
    <rect width="360" height="720" rx="24" fill="#e8d4b8" stroke="#b8a080"/>

    <!-- Header -->
    <use href="includes/header-mobile.svg#mobile-header-group" x="0" y="0"/>

    <!-- Mobile content (y >= 78 for safe area) -->
    <!-- Title -->
    <text x="16" y="100" fill="#374151" font-family="system-ui, sans-serif"
          font-size="18" font-weight="bold">Accessibility</text>

    <!-- Colorblind Type -->
    <text x="16" y="130" fill="#374151" font-family="system-ui, sans-serif"
          font-size="14" font-weight="600">Colorblind Type</text>
    <rect x="16" y="140" width="328" height="44" rx="8" fill="#f5f0e6" stroke="#b8a080"/>
    <text x="28" y="168" fill="#374151" font-family="system-ui, sans-serif" font-size="14">Deuteranopia</text>
    <path d="M316 158 L324 166 L332 158" stroke="#374151" stroke-width="2" fill="none"/>

    <!-- Pattern Overlays -->
    <text x="16" y="210" fill="#374151" font-family="system-ui, sans-serif"
          font-size="14" font-weight="600">Pattern Overlays</text>
    <rect x="16" y="220" width="328" height="44" rx="8" fill="#f5f0e6" stroke="#b8a080"/>
    <text x="28" y="248" fill="#374151" font-family="system-ui, sans-serif" font-size="14">Enable Patterns</text>
    <!-- Toggle ON -->
    <rect x="276" y="228" width="52" height="26" rx="13" fill="#22c55e"/>
    <circle cx="315" cy="241" r="9" fill="#e8d4b8"/>

    <!-- Simulation Mode -->
    <text x="16" y="290" fill="#374151" font-family="system-ui, sans-serif"
          font-size="14" font-weight="600">Simulation Mode</text>
    <rect x="16" y="300" width="328" height="44" rx="8" fill="#f5f0e6" stroke="#b8a080"/>
    <text x="28" y="328" fill="#374151" font-family="system-ui, sans-serif" font-size="14">Enable Simulation</text>
    <!-- Toggle OFF -->
    <rect x="276" y="308" width="52" height="26" rx="13" fill="#6b7280"/>
    <circle cx="289" cy="321" r="9" fill="#e8d4b8"/>

    <!-- Preview -->
    <text x="16" y="370" fill="#374151" font-family="system-ui, sans-serif"
          font-size="14" font-weight="600">Preview</text>
    <rect x="16" y="380" width="328" height="220" rx="8" fill="#dcc8a8" stroke="#b8a080"/>

    <!-- Sample buttons -->
    <rect x="28" y="400" width="148" height="40" rx="6" fill="#009988"/>
    <text x="102" y="426" text-anchor="middle" fill="#e8d4b8" font-family="system-ui, sans-serif"
          font-size="14" font-weight="600">Success</text>

    <rect x="184" y="400" width="148" height="40" rx="6" fill="#EE7733"/>
    <text x="258" y="426" text-anchor="middle" fill="#e8d4b8" font-family="system-ui, sans-serif"
          font-size="14" font-weight="600">Warning</text>

    <rect x="28" y="450" width="148" height="40" rx="6" fill="#CC3311"/>
    <text x="102" y="476" text-anchor="middle" fill="#e8d4b8" font-family="system-ui, sans-serif"
          font-size="14" font-weight="600">Error</text>

    <rect x="184" y="450" width="148" height="40" rx="6" fill="#0077BB"/>
    <text x="258" y="476" text-anchor="middle" fill="#e8d4b8" font-family="system-ui, sans-serif"
          font-size="14" font-weight="600">Info</text>

    <!-- Badges -->
    <rect x="28" y="510" width="90" height="28" rx="4" fill="#009988"/>
    <text x="73" y="530" text-anchor="middle" fill="#e8d4b8" font-family="system-ui, sans-serif"
          font-size="14">Active</text>

    <rect x="126" y="510" width="90" height="28" rx="4" fill="#EE7733"/>
    <text x="171" y="530" text-anchor="middle" fill="#e8d4b8" font-family="system-ui, sans-serif"
          font-size="14">Pending</text>

    <rect x="224" y="510" width="90" height="28" rx="4" fill="#CC3311"/>
    <text x="269" y="530" text-anchor="middle" fill="#e8d4b8" font-family="system-ui, sans-serif"
          font-size="14">Error</text>

    <text x="28" y="570" fill="#4b5563" font-family="system-ui, sans-serif" font-size="14">
      32 themes supported
    </text>

    <!-- Mobile Callouts -->
    <g class="callout" transform="translate(344, 162)">
      <circle r="14" fill="#dc2626"/>
      <text y="5" fill="#e8d4b8" font-size="14" font-weight="bold" text-anchor="middle">1</text>
    </g>

    <g class="callout" transform="translate(344, 242)">
      <circle r="14" fill="#dc2626"/>
      <text y="5" fill="#e8d4b8" font-size="14" font-weight="bold" text-anchor="middle">2</text>
    </g>

    <g class="callout" transform="translate(344, 322)">
      <circle r="14" fill="#dc2626"/>
      <text y="5" fill="#e8d4b8" font-size="14" font-weight="bold" text-anchor="middle">3</text>
    </g>

    <g class="callout" transform="translate(344, 490)">
      <circle r="14" fill="#dc2626"/>
      <text y="5" fill="#e8d4b8" font-size="14" font-weight="bold" text-anchor="middle">4</text>
    </g>

    <!-- Footer with active Account tab -->
    <use href="includes/footer-mobile.svg#mobile-bottom-nav" x="0" y="664"/>
    <!-- Active state for Account tab -->
    <g transform="translate(270, 664)">
      <path d="M 0 0 L 90 0 L 90 32 A 24 24 0 0 1 66 56 L 0 56 L 0 0 Z" fill="#8b5cf6"/>
      <g transform="translate(33, 6)">
        <path fill="#e8d4b8" fill-rule="evenodd" clip-rule="evenodd" d="M7.5 6a4.5 4.5 0 1 1 9 0 4.5 4.5 0 0 1-9 0ZM3.751 20.105a8.25 8.25 0 0 1 16.498 0 .75.75 0 0 1-.437.695A18.683 18.683 0 0 1 12 22.5c-2.786 0-5.433-.608-7.812-1.7a.75.75 0 0 1-.437-.695Z"/>
      </g>
      <text x="45" y="44" text-anchor="middle" fill="#e8d4b8" font-family="system-ui, sans-serif"
            font-size="14" font-weight="600">Account</text>
    </g>
  </g>

  <!-- ANNOTATION PANEL -->
  <g id="annotations" transform="translate(40, 800)">
    <rect width="1840" height="220" rx="8" fill="#dcc8a8" stroke="#b8a080"/>

    <!-- Column 1: Enable Colorblind Filter -->
    <g transform="translate(20, 20)">
      <circle cx="14" cy="14" r="14" fill="#dc2626"/>
      <text x="14" y="19" fill="#e8d4b8" font-size="14" font-weight="bold" text-anchor="middle">1</text>

      <text x="40" y="18" fill="#1f2937" font-family="system-ui, sans-serif"
            font-size="14" font-weight="bold">Enable Colorblind Filter</text>
      <text x="40" y="38" fill="#374151" font-family="system-ui, sans-serif" font-size="14">
        User selects colorblind type from dropdown.
      </text>
      <text x="40" y="56" fill="#374151" font-family="system-ui, sans-serif" font-size="14">
        CSS filters applied immediately across app.
      </text>

      <!-- Badges -->
      <a href="#US-001"><rect x="40" y="68" width="55" height="22" rx="4" fill="#0891b2"/>
      <text x="67" y="83" fill="#e8d4b8" font-size="14" text-anchor="middle">US-001</text></a>

      <a href="#FR-001"><rect x="101" y="68" width="55" height="22" rx="4" fill="#2563eb"/>
      <text x="128" y="83" fill="#e8d4b8" font-size="14" text-anchor="middle">FR-001</text></a>

      <a href="#FR-002"><rect x="162" y="68" width="55" height="22" rx="4" fill="#2563eb"/>
      <text x="189" y="83" fill="#e8d4b8" font-size="14" text-anchor="middle">FR-002</text></a>

      <a href="#FR-005"><rect x="223" y="68" width="55" height="22" rx="4" fill="#2563eb"/>
      <text x="250" y="83" fill="#e8d4b8" font-size="14" text-anchor="middle">FR-005</text></a>

      <!-- Row 2 badges -->
      <a href="#SC-001"><rect x="40" y="96" width="55" height="22" rx="4" fill="#ea580c"/>
      <text x="67" y="111" fill="#e8d4b8" font-size="14" text-anchor="middle">SC-001</text></a>

      <a href="#SC-004"><rect x="101" y="96" width="55" height="22" rx="4" fill="#ea580c"/>
      <text x="128" y="111" fill="#e8d4b8" font-size="14" text-anchor="middle">SC-004</text></a>
    </g>

    <!-- Column 2: Enable Pattern Overlays -->
    <g transform="translate(470, 20)">
      <circle cx="14" cy="14" r="14" fill="#dc2626"/>
      <text x="14" y="19" fill="#e8d4b8" font-size="14" font-weight="bold" text-anchor="middle">2</text>

      <text x="40" y="18" fill="#1f2937" font-family="system-ui, sans-serif"
            font-size="14" font-weight="bold">Enable Pattern Overlays</text>
      <text x="40" y="38" fill="#374151" font-family="system-ui, sans-serif" font-size="14">
        Adds visual patterns to UI elements for
      </text>
      <text x="40" y="56" fill="#374151" font-family="system-ui, sans-serif" font-size="14">
        better distinction beyond color alone.
      </text>

      <!-- Badges -->
      <a href="#US-002"><rect x="40" y="68" width="55" height="22" rx="4" fill="#0891b2"/>
      <text x="67" y="83" fill="#e8d4b8" font-size="14" text-anchor="middle">US-002</text></a>

      <a href="#FR-003"><rect x="101" y="68" width="55" height="22" rx="4" fill="#2563eb"/>
      <text x="128" y="83" fill="#e8d4b8" font-size="14" text-anchor="middle">FR-003</text></a>

      <a href="#SC-002"><rect x="162" y="68" width="55" height="22" rx="4" fill="#ea580c"/>
      <text x="189" y="83" fill="#e8d4b8" font-size="14" text-anchor="middle">SC-002</text></a>
    </g>

    <!-- Column 3: Simulation Mode -->
    <g transform="translate(920, 20)">
      <circle cx="14" cy="14" r="14" fill="#dc2626"/>
      <text x="14" y="19" fill="#e8d4b8" font-size="14" font-weight="bold" text-anchor="middle">3</text>

      <text x="40" y="18" fill="#1f2937" font-family="system-ui, sans-serif"
            font-size="14" font-weight="bold">Simulation Mode</text>
      <text x="40" y="38" fill="#374151" font-family="system-ui, sans-serif" font-size="14">
        Developers can simulate colorblind
      </text>
      <text x="40" y="56" fill="#374151" font-family="system-ui, sans-serif" font-size="14">
        vision to test their designs.
      </text>

      <!-- Badges -->
      <a href="#US-003"><rect x="40" y="68" width="55" height="22" rx="4" fill="#0891b2"/>
      <text x="67" y="83" fill="#e8d4b8" font-size="14" text-anchor="middle">US-003</text></a>

      <a href="#FR-008"><rect x="101" y="68" width="55" height="22" rx="4" fill="#2563eb"/>
      <text x="128" y="83" fill="#e8d4b8" font-size="14" text-anchor="middle">FR-008</text></a>
    </g>

    <!-- Column 4: Theme Compatibility -->
    <g transform="translate(1370, 20)">
      <circle cx="14" cy="14" r="14" fill="#dc2626"/>
      <text x="14" y="19" fill="#e8d4b8" font-size="14" font-weight="bold" text-anchor="middle">4</text>

      <text x="40" y="18" fill="#1f2937" font-family="system-ui, sans-serif"
            font-size="14" font-weight="bold">Theme Compatibility</text>
      <text x="40" y="38" fill="#374151" font-family="system-ui, sans-serif" font-size="14">
        Live preview shows how colors render
      </text>
      <text x="40" y="56" fill="#374151" font-family="system-ui, sans-serif" font-size="14">
        with selected filter across themes.
      </text>

      <!-- Badges -->
      <a href="#US-001"><rect x="40" y="68" width="55" height="22" rx="4" fill="#0891b2"/>
      <text x="67" y="83" fill="#e8d4b8" font-size="14" text-anchor="middle">US-001</text></a>

      <a href="#FR-004"><rect x="101" y="68" width="55" height="22" rx="4" fill="#2563eb"/>
      <text x="128" y="83" fill="#e8d4b8" font-size="14" text-anchor="middle">FR-004</text></a>

      <a href="#FR-006"><rect x="162" y="68" width="55" height="22" rx="4" fill="#2563eb"/>
      <text x="189" y="83" fill="#e8d4b8" font-size="14" text-anchor="middle">FR-006</text></a>

      <a href="#SC-003"><rect x="223" y="68" width="55" height="22" rx="4" fill="#ea580c"/>
      <text x="250" y="83" fill="#e8d4b8" font-size="14" text-anchor="middle">SC-003</text></a>

      <a href="#SC-005"><rect x="284" y="68" width="55" height="22" rx="4" fill="#ea580c"/>
      <text x="311" y="83" fill="#e8d4b8" font-size="14" text-anchor="middle">SC-005</text></a>
    </g>
  </g>

  <!-- Key Concepts Row (G-047) -->


  <text x="40" y="940" font-family="system-ui, sans-serif" font-size="14" font-weight="bold" fill="#374151">Key Concepts:</text>
  <text x="140" y="940" font-family="system-ui, sans-serif" font-size="14" fill="#374151">accessibility settings | color blindness | contrast modes | visual preferences</text>


  <!-- SIGNATURE -->
  <text x="40" y="1060" fill="#374151" font-family="system-ui, sans-serif"
        font-size="18" font-weight="bold">
    017:01 | Colorblind Mode | ScriptHammer
  </text>
</svg>
