<?xml version="1.0" encoding="UTF-8"?>
<svg xmlns="http://www.w3.org/2000/svg" viewBox="0 0 1920 1080" width="1920" height="1080">
  <defs>
    <linearGradient id="bg" x1="0%" y1="0%" x2="0%" y2="100%"><stop offset="0%" stop-color="#c7ddf5"/><stop offset="100%" stop-color="#b8d4f0"/></linearGradient>
  </defs>
  <rect width="1920" height="1080" fill="url(#bg)"/>
  <text x="960" y="28" text-anchor="middle" font-family="system-ui, sans-serif" font-size="18" font-weight="700" fill="#4b5563" letter-spacing="1">ADMIN AUDIT PAGE - /admin/audit (AS-IS)</text>
  <text x="40" y="52" fill="#8b5cf6" font-family="system-ui, sans-serif" font-size="18" font-weight="bold">DESKTOP (16:9)</text>
  <text x="1500" y="52" fill="#d946ef" font-family="system-ui, sans-serif" font-size="15" font-weight="bold">MOBILE</text>

  <g id="desktop" transform="translate(40, 60)">
    <rect width="1280" height="720" rx="8" fill="#e8d4b8" stroke="#b8a080"/>
    <use href="includes/header-desktop.svg#desktop-header" x="0" y="0"/>

    <rect x="0" y="60" width="1280" height="44" fill="#dcc8a8"/>
    <text x="60" y="88" text-anchor="middle" font-family="system-ui, sans-serif" font-size="14" fill="#4b5563">Overview</text>
    <text x="156" y="88" text-anchor="middle" font-family="system-ui, sans-serif" font-size="14" fill="#4b5563">Users</text>
    <text x="248" y="88" text-anchor="middle" font-family="system-ui, sans-serif" font-size="14" fill="#4b5563">Messaging</text>
    <rect x="300" y="68" width="64" height="28" rx="4" fill="#8b5cf6"/>
    <text x="332" y="88" text-anchor="middle" font-family="system-ui, sans-serif" font-size="14" font-weight="600" fill="#e8d4b8">Audit</text>
    <text x="416" y="88" font-family="system-ui, sans-serif" font-size="14" fill="#4b5563">Payments</text>

    <text x="40" y="136" font-family="system-ui, sans-serif" font-size="24" font-weight="700" fill="#1f2937">Audit Trail</text>

    <!-- Stats -->
    <rect x="40" y="160" width="220" height="56" rx="8" fill="#dcc8a8" stroke="#b8a080"/>
    <text x="56" y="184" font-family="system-ui, sans-serif" font-size="14" font-weight="700" fill="#4b5563">AUTH EVENTS</text>
    <text x="56" y="208" font-family="system-ui, sans-serif" font-size="18" font-weight="700" fill="#1f2937">5,892</text>
    <rect x="270" y="160" width="220" height="56" rx="8" fill="#dcc8a8" stroke="#b8a080"/>
    <text x="286" y="184" font-family="system-ui, sans-serif" font-size="14" font-weight="700" fill="#4b5563">FAILED LOGINS</text>
    <text x="286" y="208" font-family="system-ui, sans-serif" font-size="18" font-weight="700" fill="#dc2626">42</text>
    <rect x="500" y="160" width="220" height="56" rx="8" fill="#dcc8a8" stroke="#b8a080"/>
    <text x="516" y="184" font-family="system-ui, sans-serif" font-size="14" font-weight="700" fill="#4b5563">UNIQUE IPS</text>
    <text x="516" y="208" font-family="system-ui, sans-serif" font-size="18" font-weight="700" fill="#1f2937">814</text>

    <!-- Filters -->
    <rect x="740" y="160" width="220" height="56" rx="4" fill="#f5f0e6" stroke="#b8a080"/>
    <text x="756" y="184" font-family="system-ui, sans-serif" font-size="14" font-weight="700" fill="#4b5563">EVENT TYPE</text>
    <text x="756" y="204" font-family="system-ui, sans-serif" font-size="14" fill="#1f2937">all events  ▾</text>
    <rect x="970" y="160" width="260" height="56" rx="4" fill="#f5f0e6" stroke="#b8a080"/>
    <text x="986" y="184" font-family="system-ui, sans-serif" font-size="14" font-weight="700" fill="#4b5563">RANGE</text>
    <text x="986" y="204" font-family="system-ui, sans-serif" font-size="14" fill="#1f2937">2026-03-23 → 2026-04-22  ▾</text>

    <!-- Trends -->
    <rect x="40" y="236" width="1190" height="140" rx="8" fill="#dcc8a8" stroke="#b8a080"/>
    <text x="56" y="262" font-family="system-ui, sans-serif" font-size="14" font-weight="700" fill="#4b5563" letter-spacing="1">AUTH EVENT TREND</text>
    <polyline points="56,348 120,340 180,332 240,342 300,320 360,328 420,310 480,316 540,298 600,304 660,286 720,292 780,270 840,276 900,260 960,248 1020,254 1080,236 1140,228 1200,218" fill="none" stroke="#8b5cf6" stroke-width="2"/>
    <polyline points="56,368 120,366 180,360 240,358 300,354 360,350 420,348 480,342 540,340 600,336 660,332 720,330 780,326 840,324 900,320 960,316 1020,314 1080,310 1140,306 1200,302" fill="none" stroke="#dc2626" stroke-width="1.5" stroke-dasharray="4 4"/>
    <text x="1200" y="368" text-anchor="end" font-family="system-ui, sans-serif" font-size="14" fill="#6b7280">— signins · - - failed</text>

    <!-- Events table -->
    <rect x="40" y="392" width="1190" height="222" rx="8" fill="#dcc8a8" stroke="#b8a080"/>
    <rect x="40" y="392" width="1190" height="30" fill="#c7ddf5"/>
    <text x="56" y="412" font-family="system-ui, sans-serif" font-size="14" font-weight="700" fill="#1f2937">When</text>
    <text x="200" y="412" font-family="system-ui, sans-serif" font-size="14" font-weight="700" fill="#1f2937">Event</text>
    <text x="420" y="412" font-family="system-ui, sans-serif" font-size="14" font-weight="700" fill="#1f2937">Actor</text>
    <text x="700" y="412" font-family="system-ui, sans-serif" font-size="14" font-weight="700" fill="#1f2937">Target</text>
    <text x="940" y="412" font-family="system-ui, sans-serif" font-size="14" font-weight="700" fill="#1f2937">IP</text>
    <text x="1100" y="412" font-family="system-ui, sans-serif" font-size="14" font-weight="700" fill="#1f2937">Outcome</text>

    <line x1="40" y1="422" x2="1230" y2="422" stroke="#b8a080"/>

    <text x="56" y="446" font-family="monospace" font-size="14" fill="#1f2937">14:22:14</text>
    <text x="200" y="446" font-family="system-ui, sans-serif" font-size="14" fill="#1f2937">signin.success</text>
    <text x="420" y="446" font-family="system-ui, sans-serif" font-size="14" fill="#1f2937">alice@example.com</text>
    <text x="700" y="446" font-family="system-ui, sans-serif" font-size="14" fill="#1f2937">self</text>
    <text x="940" y="446" font-family="monospace" font-size="14" fill="#1f2937">10.0.0.14</text>
    <text x="1100" y="446" font-family="system-ui, sans-serif" font-size="14" fill="#22c55e" font-weight="600">✓ ok</text>

    <line x1="40" y1="456" x2="1230" y2="456" stroke="#b8a080"/>

    <text x="56" y="480" font-family="monospace" font-size="14" fill="#1f2937">14:19:02</text>
    <text x="200" y="480" font-family="system-ui, sans-serif" font-size="14" fill="#1f2937">admin.role.assign</text>
    <text x="420" y="480" font-family="system-ui, sans-serif" font-size="14" fill="#1f2937">ben@company.co</text>
    <text x="700" y="480" font-family="system-ui, sans-serif" font-size="14" fill="#1f2937">dana_o@mail.net</text>
    <text x="940" y="480" font-family="monospace" font-size="14" fill="#1f2937">10.0.0.31</text>
    <text x="1100" y="480" font-family="system-ui, sans-serif" font-size="14" fill="#22c55e" font-weight="600">✓ ok</text>

    <line x1="40" y1="490" x2="1230" y2="490" stroke="#b8a080"/>

    <text x="56" y="514" font-family="monospace" font-size="14" fill="#1f2937">14:15:47</text>
    <text x="200" y="514" font-family="system-ui, sans-serif" font-size="14" fill="#1f2937">signin.fail</text>
    <text x="420" y="514" font-family="system-ui, sans-serif" font-size="14" fill="#1f2937">unknown@example.net</text>
    <text x="700" y="514" font-family="system-ui, sans-serif" font-size="14" fill="#1f2937">—</text>
    <text x="940" y="514" font-family="monospace" font-size="14" fill="#dc2626">203.0.113.44</text>
    <text x="1100" y="514" font-family="system-ui, sans-serif" font-size="14" fill="#dc2626" font-weight="600">✗ bad password</text>

    <line x1="40" y1="524" x2="1230" y2="524" stroke="#b8a080"/>

    <text x="56" y="548" font-family="monospace" font-size="14" fill="#1f2937">14:12:01</text>
    <text x="200" y="548" font-family="system-ui, sans-serif" font-size="14" fill="#1f2937">password.reset</text>
    <text x="420" y="548" font-family="system-ui, sans-serif" font-size="14" fill="#1f2937">c.diaz@mail.net</text>
    <text x="700" y="548" font-family="system-ui, sans-serif" font-size="14" fill="#1f2937">self</text>
    <text x="940" y="548" font-family="monospace" font-size="14" fill="#1f2937">198.51.100.7</text>
    <text x="1100" y="548" font-family="system-ui, sans-serif" font-size="14" fill="#22c55e" font-weight="600">✓ ok</text>

    <text x="56" y="604" font-family="system-ui, sans-serif" font-size="14" fill="#4b5563">Showing latest 100 events</text>
    <text x="1210" y="604" text-anchor="end" font-family="system-ui, sans-serif" font-size="14" fill="#8b5cf6" font-weight="600">⬇ Export JSON</text>

    <use href="includes/footer-desktop.svg#site-footer" x="0" y="640"/>

    <g class="callout"><circle cx="384" cy="88" r="14" fill="#dc2626"/><text x="384" y="93" text-anchor="middle" fill="#fff" font-size="14" font-weight="bold">1</text></g>
    <g class="callout"><circle cx="286" cy="208" r="14" fill="#dc2626"/><text x="286" y="213" text-anchor="middle" fill="#fff" font-size="14" font-weight="bold">2</text></g>
    <g class="callout"><circle cx="850" cy="184" r="14" fill="#dc2626"/><text x="850" y="189" text-anchor="middle" fill="#fff" font-size="14" font-weight="bold">3</text></g>
    <g class="callout"><circle cx="1204" cy="514" r="14" fill="#dc2626"/><text x="1204" y="519" text-anchor="middle" fill="#fff" font-size="14" font-weight="bold">4</text></g>
  </g>

  <g id="mobile" transform="translate(1360, 60)">
    <rect width="360" height="720" rx="24" fill="#e8d4b8" stroke="#b8a080"/>
    <use href="includes/header-mobile.svg#mobile-header-group" x="0" y="0"/>

    <text x="180" y="120" text-anchor="middle" font-family="system-ui, sans-serif" font-size="20" font-weight="700" fill="#1f2937">Audit Trail</text>

    <rect x="0" y="132" width="360" height="40" fill="#dcc8a8"/>
    <text x="40" y="157" font-family="system-ui, sans-serif" font-size="14" fill="#4b5563">Overview</text>
    <text x="104" y="157" font-family="system-ui, sans-serif" font-size="14" fill="#4b5563">Users</text>
    <text x="148" y="157" font-family="system-ui, sans-serif" font-size="14" fill="#4b5563">Msg</text>
    <rect x="188" y="140" width="56" height="24" rx="4" fill="#8b5cf6"/>
    <text x="216" y="157" text-anchor="middle" font-family="system-ui, sans-serif" font-size="14" fill="#e8d4b8">Audit</text>
    <text x="272" y="157" font-family="system-ui, sans-serif" font-size="14" fill="#4b5563">Pay</text>

    <rect x="16" y="188" width="160" height="60" rx="8" fill="#dcc8a8" stroke="#b8a080"/>
    <text x="32" y="212" font-family="system-ui, sans-serif" font-size="14" font-weight="700" fill="#4b5563">EVENTS</text>
    <text x="32" y="236" font-family="system-ui, sans-serif" font-size="18" font-weight="700" fill="#1f2937">5,892</text>
    <rect x="184" y="188" width="160" height="60" rx="8" fill="#dcc8a8" stroke="#b8a080"/>
    <text x="200" y="212" font-family="system-ui, sans-serif" font-size="14" font-weight="700" fill="#4b5563">FAILED</text>
    <text x="200" y="236" font-family="system-ui, sans-serif" font-size="18" font-weight="700" fill="#dc2626">42</text>

    <rect x="16" y="264" width="328" height="40" rx="4" fill="#f5f0e6" stroke="#b8a080"/>
    <text x="32" y="288" font-family="system-ui, sans-serif" font-size="14" fill="#1f2937">all events  ▾</text>

    <rect x="16" y="320" width="328" height="300" rx="8" fill="#dcc8a8" stroke="#b8a080"/>
    <text x="32" y="344" font-family="monospace" font-size="14" fill="#1f2937">14:22  signin.success</text>
    <text x="32" y="362" font-family="system-ui, sans-serif" font-size="14" fill="#4b5563">alice@example.com  ✓</text>

    <line x1="16" y1="378" x2="344" y2="378" stroke="#b8a080"/>

    <text x="32" y="404" font-family="monospace" font-size="14" fill="#1f2937">14:19  admin.role.assign</text>
    <text x="32" y="422" font-family="system-ui, sans-serif" font-size="14" fill="#4b5563">ben → dana_o  ✓</text>

    <line x1="16" y1="438" x2="344" y2="438" stroke="#b8a080"/>

    <text x="32" y="464" font-family="monospace" font-size="14" fill="#dc2626">14:15  signin.fail</text>
    <text x="32" y="482" font-family="system-ui, sans-serif" font-size="14" fill="#dc2626">203.0.113.44  ✗ bad password</text>

    <line x1="16" y1="498" x2="344" y2="498" stroke="#b8a080"/>

    <text x="32" y="524" font-family="monospace" font-size="14" fill="#1f2937">14:12  password.reset</text>
    <text x="32" y="542" font-family="system-ui, sans-serif" font-size="14" fill="#4b5563">c.diaz@mail.net  ✓</text>

    <use href="includes/footer-mobile.svg#mobile-bottom-nav" x="0" y="664"/>
    <g class="callout"><circle cx="216" cy="152" r="11" fill="#dc2626"/><text x="216" y="157" text-anchor="middle" fill="#fff" font-size="14" font-weight="bold">1</text></g>
  </g>

  <g id="annotations" transform="translate(40, 800)">
    <rect width="1840" height="220" rx="8" fill="#dcc8a8" stroke="#b8a080"/>
    <g transform="translate(20, 16)">
      <circle cx="14" cy="14" r="12" fill="#dc2626"/>
      <text x="14" y="19" text-anchor="middle" fill="#fff" font-size="14" font-weight="bold">1</text>
      <text x="38" y="19" font-family="system-ui, sans-serif" font-size="14" font-weight="700" fill="#1f2937">Active tab: Audit</text>
      <a href="#us-001" transform="translate(200, 5)"><rect width="56" height="22" rx="11" fill="#0891b2"/><text x="28" y="17" text-anchor="middle" fill="#f5f0e6" font-size="14" font-weight="700">US-001</text></a>
      <text x="38" y="44" font-family="system-ui, sans-serif" font-size="14" fill="#374151">AdminAuditService.getStats/getRecentEvents/</text>
      <text x="38" y="62" font-family="system-ui, sans-serif" font-size="14" fill="#374151">getTrends parallelized on first load.</text>
    </g>
    <g transform="translate(480, 16)">
      <circle cx="14" cy="14" r="12" fill="#dc2626"/>
      <text x="14" y="19" text-anchor="middle" fill="#fff" font-size="14" font-weight="bold">2</text>
      <text x="38" y="19" font-family="system-ui, sans-serif" font-size="14" font-weight="700" fill="#1f2937">Failed-login counter</text>
      <a href="#us-002" transform="translate(230, 5)"><rect width="56" height="22" rx="11" fill="#0891b2"/><text x="28" y="17" text-anchor="middle" fill="#f5f0e6" font-size="14" font-weight="700">US-002</text></a>
      <text x="38" y="44" font-family="system-ui, sans-serif" font-size="14" fill="#374151">Spike detector → red. If this number jumps,</text>
      <text x="38" y="62" font-family="system-ui, sans-serif" font-size="14" fill="#374151">admins investigate brute-force attempts.</text>
    </g>
    <g transform="translate(940, 16)">
      <circle cx="14" cy="14" r="12" fill="#dc2626"/>
      <text x="14" y="19" text-anchor="middle" fill="#fff" font-size="14" font-weight="bold">3</text>
      <text x="38" y="19" font-family="system-ui, sans-serif" font-size="14" font-weight="700" fill="#1f2937">Event type + range filters</text>
      <a href="#us-003" transform="translate(290, 5)"><rect width="56" height="22" rx="11" fill="#0891b2"/><text x="28" y="17" text-anchor="middle" fill="#f5f0e6" font-size="14" font-weight="700">US-003</text></a>
      <text x="38" y="44" font-family="system-ui, sans-serif" font-size="14" fill="#374151">Event type change → refetch. Range change</text>
      <text x="38" y="62" font-family="system-ui, sans-serif" font-size="14" fill="#374151">→ trends only (debounced, both-ends-required).</text>
    </g>
    <g transform="translate(1400, 16)">
      <circle cx="14" cy="14" r="12" fill="#dc2626"/>
      <text x="14" y="19" text-anchor="middle" fill="#fff" font-size="14" font-weight="bold">4</text>
      <text x="38" y="19" font-family="system-ui, sans-serif" font-size="14" font-weight="700" fill="#1f2937">Outcome column</text>
      <a href="#us-004" transform="translate(220, 5)"><rect width="56" height="22" rx="11" fill="#0891b2"/><text x="28" y="17" text-anchor="middle" fill="#f5f0e6" font-size="14" font-weight="700">US-004</text></a>
      <text x="38" y="44" font-family="system-ui, sans-serif" font-size="14" fill="#374151">Color-coded ✓ ok / ✗ fail. Failed rows highlight</text>
      <text x="38" y="62" font-family="system-ui, sans-serif" font-size="14" fill="#374151">IP in red for threat investigation.</text>
    </g>
    <g transform="translate(20, 130)">
      <text x="0" y="19" font-family="system-ui, sans-serif" font-size="14" font-weight="700" fill="#4b5563" letter-spacing="1">WHAT SHIPS</text>
      <text x="0" y="44" font-family="system-ui, sans-serif" font-size="14" fill="#374151">Source: src/app/admin/audit/page.tsx — AdminAuditTrail organism reads 100 latest events.</text>
      <text x="0" y="64" font-family="system-ui, sans-serif" font-size="14" fill="#374151">All mutations admin-gated; JSON export goes through service, not direct DB.</text>
    </g>
  </g>
  <text x="40" y="1060" fill="#374151" font-family="system-ui, sans-serif" font-size="18" font-weight="bold">999:37 | Admin Audit (as-is /admin/audit) | ScriptHammer</text>
</svg>
