<?xml version="1.0" encoding="UTF-8"?>
<svg xmlns="http://www.w3.org/2000/svg" viewBox="0 0 1920 1080" width="1920" height="1080">
  <defs>
    <linearGradient id="bg" x1="0%" y1="0%" x2="0%" y2="100%">
      <stop offset="0%" stop-color="#c7ddf5"/>
      <stop offset="100%" stop-color="#b8d4f0"/>
    </linearGradient>
  </defs>
  <rect width="1920" height="1080" fill="url(#bg)"/>
  <text x="960" y="28" text-anchor="middle" font-family="system-ui, sans-serif" font-size="18" font-weight="700" fill="#4b5563" letter-spacing="1">SNAP TAB - PHOTOGRAPH THE ITEM</text>
  <text x="40" y="52" fill="#8b5cf6" font-family="system-ui, sans-serif" font-size="18" font-weight="bold">DESKTOP (16:9)</text>
  <text x="1500" y="52" fill="#d946ef" font-family="system-ui, sans-serif" font-size="15" font-weight="bold">MOBILE</text>

  <g id="desktop" transform="translate(40, 60)">
    <rect width="1280" height="720" rx="8" fill="#e8d4b8" stroke="#b8a080"/>
    <use href="includes/header-desktop.svg#desktop-header" x="0" y="0"/>
    <rect x="400" y="3" width="70" height="44" rx="4" fill="#8b5cf6"/>
    <text x="435" y="31" text-anchor="middle" fill="#e8d4b8" font-family="system-ui, sans-serif" font-size="14" font-weight="600">Home</text>

    <!-- 86 list behind the capture sheet (dimmed) -->
    <text x="60" y="94" font-family="system-ui, sans-serif" font-size="20" font-weight="bold" fill="#1f2937">86 List</text>
    <rect x="40" y="110" width="580" height="52" rx="6" fill="#dcc8a8" stroke="#b8a080"/>
    <text x="60" y="142" font-family="system-ui, sans-serif" font-size="14" fill="#374151">Oat Milk - Dairy Alternatives</text>
    <rect x="40" y="170" width="580" height="52" rx="6" fill="#dcc8a8" stroke="#b8a080"/>
    <text x="60" y="202" font-family="system-ui, sans-serif" font-size="14" fill="#374151">Eggs - Dairy</text>
    <rect x="40" y="230" width="580" height="52" rx="6" fill="#dcc8a8" stroke="#b8a080"/>
    <text x="60" y="262" font-family="system-ui, sans-serif" font-size="14" fill="#374151">Corn Tortillas - Pantry</text>
    <rect x="40" y="290" width="580" height="52" rx="6" fill="#dcc8a8" stroke="#b8a080"/>
    <text x="60" y="322" font-family="system-ui, sans-serif" font-size="14" fill="#374151">Hot Sauce - Condiments</text>

    <!-- Modal dimming overlay -->
    <rect x="0" y="50" width="1280" height="590" fill="rgba(0,0,0,0.5)"/>

    <!-- Capture sheet modal -->
    <rect x="390" y="70" width="500" height="560" rx="12" fill="#e8d4b8" stroke="#b8a080"/>
    <text x="420" y="104" font-family="system-ui, sans-serif" font-size="18" font-weight="bold" fill="#1f2937">Add Item</text>
    <line x1="862" y1="88" x2="878" y2="104" stroke="#4b5563" stroke-width="2.5"/>
    <line x1="878" y1="88" x2="862" y2="104" stroke="#4b5563" stroke-width="2.5"/>

    <!-- Tabs: Type / Scan / Snap (Snap active) -->
    <rect x="420" y="124" width="148" height="44" rx="6" fill="#f5f0e6" stroke="#b8a080"/>
    <text x="494" y="151" text-anchor="middle" font-family="system-ui, sans-serif" font-size="14" font-weight="600" fill="#374151">Type</text>
    <rect x="576" y="124" width="148" height="44" rx="6" fill="#f5f0e6" stroke="#b8a080"/>
    <text x="650" y="151" text-anchor="middle" font-family="system-ui, sans-serif" font-size="14" font-weight="600" fill="#374151">Scan</text>
    <rect x="732" y="124" width="148" height="44" rx="6" fill="#8b5cf6"/>
    <text x="806" y="151" text-anchor="middle" font-family="system-ui, sans-serif" font-size="14" font-weight="bold" fill="#e8d4b8">Snap</text>

    <!-- Camera preview (live viewfinder content - dark by nature) -->
    <rect x="410" y="186" width="460" height="270" rx="8" fill="#1e293b"/>
    <line x1="563" y1="192" x2="563" y2="450" stroke="#475569" stroke-width="1"/>
    <line x1="717" y1="192" x2="717" y2="450" stroke="#475569" stroke-width="1"/>
    <line x1="416" y1="276" x2="864" y2="276" stroke="#475569" stroke-width="1"/>
    <line x1="416" y1="366" x2="864" y2="366" stroke="#475569" stroke-width="1"/>
    <!-- Milk carton line drawing centered in the thirds -->
    <polygon points="600,300 620,265 660,265 680,300" fill="none" stroke="#cbd5e1" stroke-width="2"/>
    <rect x="632" y="252" width="16" height="13" rx="2" fill="none" stroke="#cbd5e1" stroke-width="2"/>
    <rect x="600" y="300" width="80" height="130" rx="2" fill="none" stroke="#cbd5e1" stroke-width="2"/>
    <line x1="612" y1="344" x2="668" y2="344" stroke="#94a3b8" stroke-width="2"/>
    <line x1="612" y1="362" x2="668" y2="362" stroke="#94a3b8" stroke-width="2"/>
    <text x="640" y="444" text-anchor="middle" font-family="system-ui, sans-serif" font-size="14" fill="#cbd5e1">Compressed to ~1024px before upload</text>

    <!-- Status hint -->
    <text x="640" y="484" text-anchor="middle" font-family="system-ui, sans-serif" font-size="14" font-weight="600" fill="#374151">Center the item - one item per photo</text>

    <!-- Control row: Library / Capture / Flip -->
    <rect x="480" y="522" width="44" height="44" rx="8" fill="#f5f0e6" stroke="#b8a080"/>
    <rect x="488" y="531" width="28" height="24" rx="3" fill="none" stroke="#374151" stroke-width="2"/>
    <circle cx="497" cy="539" r="3" fill="#d97706"/>
    <path d="M490 552 L499 542 L505 548 L510 543 L514 552" fill="none" stroke="#374151" stroke-width="2"/>
    <text x="502" y="590" text-anchor="middle" font-family="system-ui, sans-serif" font-size="14" fill="#4b5563">Library</text>

    <circle cx="640" cy="544" r="32" fill="#8b5cf6"/>
    <circle cx="640" cy="544" r="24" fill="#e8d4b8"/>
    <text x="640" y="600" text-anchor="middle" font-family="system-ui, sans-serif" font-size="14" fill="#4b5563">Capture</text>

    <rect x="756" y="522" width="44" height="44" rx="8" fill="#f5f0e6" stroke="#b8a080"/>
    <path d="M770 552 A 11 11 0 1 1 789 549" fill="none" stroke="#374151" stroke-width="2.5"/>
    <polygon points="785,544 794,547 788,554" fill="#374151"/>
    <text x="778" y="590" text-anchor="middle" font-family="system-ui, sans-serif" font-size="14" fill="#4b5563">Flip</text>

    <use href="includes/footer-desktop.svg#site-footer" x="0" y="640"/>

    <g class="callout"><circle cx="448" cy="544" r="14" fill="#dc2626"/><text x="448" y="549" text-anchor="middle" fill="#fff" font-size="14" font-weight="bold">1</text></g>
    <g class="callout"><circle cx="430" cy="438" r="14" fill="#dc2626"/><text x="430" y="443" text-anchor="middle" fill="#fff" font-size="14" font-weight="bold">2</text></g>
    <g class="callout"><circle cx="800" cy="479" r="14" fill="#dc2626"/><text x="800" y="484" text-anchor="middle" fill="#fff" font-size="14" font-weight="bold">3</text></g>
    <g class="callout"><circle cx="904" cy="146" r="14" fill="#dc2626"/><text x="904" y="151" text-anchor="middle" fill="#fff" font-size="14" font-weight="bold">4</text></g>
  </g>

  <g id="mobile" transform="translate(1360, 60)">
    <rect width="360" height="720" rx="24" fill="#e8d4b8" stroke="#b8a080"/>
    <use href="includes/header-mobile.svg#mobile-header-group" x="0" y="0"/>

    <!-- 86 list behind the bottom sheet (dimmed) -->
    <rect x="16" y="100" width="328" height="44" rx="6" fill="#dcc8a8" stroke="#b8a080"/>
    <text x="32" y="127" font-family="system-ui, sans-serif" font-size="14" fill="#374151">Oat Milk - Dairy Alternatives</text>

    <!-- Modal dimming overlay -->
    <rect x="0" y="78" width="360" height="586" fill="rgba(0,0,0,0.5)"/>

    <!-- Bottom sheet -->
    <rect x="0" y="150" width="360" height="514" rx="16" fill="#e8d4b8" stroke="#b8a080"/>
    <rect x="164" y="158" width="32" height="4" rx="2" fill="#b8a080"/>
    <text x="180" y="186" text-anchor="middle" font-family="system-ui, sans-serif" font-size="16" font-weight="bold" fill="#1f2937">Add Item</text>

    <!-- Tabs -->
    <rect x="16" y="198" width="104" height="44" rx="6" fill="#f5f0e6" stroke="#b8a080"/>
    <text x="68" y="225" text-anchor="middle" font-family="system-ui, sans-serif" font-size="14" font-weight="600" fill="#374151">Type</text>
    <rect x="128" y="198" width="104" height="44" rx="6" fill="#f5f0e6" stroke="#b8a080"/>
    <text x="180" y="225" text-anchor="middle" font-family="system-ui, sans-serif" font-size="14" font-weight="600" fill="#374151">Scan</text>
    <rect x="240" y="198" width="104" height="44" rx="6" fill="#8b5cf6"/>
    <text x="292" y="225" text-anchor="middle" font-family="system-ui, sans-serif" font-size="14" font-weight="bold" fill="#e8d4b8">Snap</text>

    <!-- Camera preview (taller on mobile) -->
    <rect x="16" y="254" width="328" height="292" rx="8" fill="#1e293b"/>
    <line x1="125" y1="260" x2="125" y2="540" stroke="#475569" stroke-width="1"/>
    <line x1="235" y1="260" x2="235" y2="540" stroke="#475569" stroke-width="1"/>
    <line x1="22" y1="351" x2="338" y2="351" stroke="#475569" stroke-width="1"/>
    <line x1="22" y1="449" x2="338" y2="449" stroke="#475569" stroke-width="1"/>
    <polygon points="145,370 163,340 197,340 215,370" fill="none" stroke="#cbd5e1" stroke-width="2"/>
    <rect x="172" y="328" width="16" height="12" rx="2" fill="none" stroke="#cbd5e1" stroke-width="2"/>
    <rect x="145" y="370" width="70" height="110" rx="2" fill="none" stroke="#cbd5e1" stroke-width="2"/>
    <line x1="155" y1="408" x2="205" y2="408" stroke="#94a3b8" stroke-width="2"/>
    <line x1="155" y1="426" x2="205" y2="426" stroke="#94a3b8" stroke-width="2"/>
    <text x="180" y="532" text-anchor="middle" font-family="system-ui, sans-serif" font-size="14" fill="#cbd5e1">Compressed to ~1024px</text>

    <!-- Status hint -->
    <text x="180" y="568" text-anchor="middle" font-family="system-ui, sans-serif" font-size="14" font-weight="600" fill="#374151">Center the item - one item per photo</text>

    <!-- Control row -->
    <rect x="60" y="584" width="44" height="44" rx="8" fill="#f5f0e6" stroke="#b8a080"/>
    <rect x="68" y="593" width="28" height="24" rx="3" fill="none" stroke="#374151" stroke-width="2"/>
    <circle cx="77" cy="601" r="3" fill="#d97706"/>
    <path d="M70 614 L79 604 L85 610 L90 605 L94 614" fill="none" stroke="#374151" stroke-width="2"/>

    <circle cx="180" cy="606" r="26" fill="#8b5cf6"/>
    <circle cx="180" cy="606" r="19" fill="#e8d4b8"/>

    <rect x="256" y="584" width="44" height="44" rx="8" fill="#f5f0e6" stroke="#b8a080"/>
    <path d="M270 614 A 11 11 0 1 1 289 611" fill="none" stroke="#374151" stroke-width="2.5"/>
    <polygon points="285,606 294,609 288,616" fill="#374151"/>

    <use href="includes/footer-mobile.svg#mobile-bottom-nav" x="0" y="664"/>
    <g class="callout"><circle cx="124" cy="606" r="11" fill="#dc2626"/><text x="124" y="611" text-anchor="middle" fill="#fff" font-size="14" font-weight="bold">1</text></g>
    <g class="callout"><circle cx="320" cy="524" r="11" fill="#dc2626"/><text x="320" y="529" text-anchor="middle" fill="#fff" font-size="14" font-weight="bold">2</text></g>
    <g class="callout"><circle cx="318" cy="564" r="11" fill="#dc2626"/><text x="318" y="569" text-anchor="middle" fill="#fff" font-size="14" font-weight="bold">3</text></g>
  </g>

  <g id="annotations" transform="translate(40, 800)">
    <rect width="1840" height="220" rx="8" fill="#dcc8a8" stroke="#b8a080"/>
    <g transform="translate(20, 16)">
      <circle cx="14" cy="14" r="12" fill="#dc2626"/>
      <text x="14" y="19" text-anchor="middle" fill="#fff" font-size="14" font-weight="bold">1</text>
      <text x="38" y="19" font-family="system-ui, sans-serif" font-size="14" font-weight="700" fill="#1f2937">One-tap capture, library alternative</text>
      <text x="38" y="44" font-family="system-ui, sans-serif" font-size="14" fill="#374151">Camera with a single capture button, or pick</text>
      <text x="38" y="62" font-family="system-ui, sans-serif" font-size="14" fill="#374151">from the photo library - permission-aware.</text>
      <g transform="translate(38, 74)">
        <a href="#US-001"><rect width="56" height="22" rx="11" fill="#0891b2"/><text x="28" y="16" text-anchor="middle" fill="#f5f0e6" font-size="14" font-weight="700">US-001</text></a>
        <a href="#FR-001" transform="translate(62, 0)"><rect width="56" height="22" rx="11" fill="#2563eb"/><text x="28" y="16" text-anchor="middle" fill="#f5f0e6" font-size="14" font-weight="700">FR-001</text></a>
      </g>
    </g>
    <g transform="translate(480, 16)">
      <circle cx="14" cy="14" r="12" fill="#dc2626"/>
      <text x="14" y="19" text-anchor="middle" fill="#fff" font-size="14" font-weight="bold">2</text>
      <text x="38" y="19" font-family="system-ui, sans-serif" font-size="14" font-weight="700" fill="#1f2937">Client-side compression</text>
      <text x="38" y="44" font-family="system-ui, sans-serif" font-size="14" fill="#374151">About 1024px leaves the device - the original</text>
      <text x="38" y="62" font-family="system-ui, sans-serif" font-size="14" fill="#374151">photo never does. Privacy by architecture.</text>
      <g transform="translate(38, 74)">
        <a href="#US-001"><rect width="56" height="22" rx="11" fill="#0891b2"/><text x="28" y="16" text-anchor="middle" fill="#f5f0e6" font-size="14" font-weight="700">US-001</text></a>
        <a href="#US-004" transform="translate(62, 0)"><rect width="56" height="22" rx="11" fill="#0891b2"/><text x="28" y="16" text-anchor="middle" fill="#f5f0e6" font-size="14" font-weight="700">US-004</text></a>
        <a href="#FR-002" transform="translate(124, 0)"><rect width="56" height="22" rx="11" fill="#2563eb"/><text x="28" y="16" text-anchor="middle" fill="#f5f0e6" font-size="14" font-weight="700">FR-002</text></a>
      </g>
    </g>
    <g transform="translate(940, 16)">
      <circle cx="14" cy="14" r="12" fill="#dc2626"/>
      <text x="14" y="19" text-anchor="middle" fill="#fff" font-size="14" font-weight="bold">3</text>
      <text x="38" y="19" font-family="system-ui, sans-serif" font-size="14" font-weight="700" fill="#1f2937">One item per photo guidance</text>
      <text x="38" y="44" font-family="system-ui, sans-serif" font-size="14" fill="#374151">The dominant-object contract is set up front</text>
      <text x="38" y="62" font-family="system-ui, sans-serif" font-size="14" fill="#374151">by the hint - suggestions stay editable.</text>
      <g transform="translate(38, 74)">
        <a href="#US-001"><rect width="56" height="22" rx="11" fill="#0891b2"/><text x="28" y="16" text-anchor="middle" fill="#f5f0e6" font-size="14" font-weight="700">US-001</text></a>
        <a href="#US-002" transform="translate(62, 0)"><rect width="56" height="22" rx="11" fill="#0891b2"/><text x="28" y="16" text-anchor="middle" fill="#f5f0e6" font-size="14" font-weight="700">US-002</text></a>
        <a href="#FR-005" transform="translate(124, 0)"><rect width="56" height="22" rx="11" fill="#2563eb"/><text x="28" y="16" text-anchor="middle" fill="#f5f0e6" font-size="14" font-weight="700">FR-005</text></a>
      </g>
    </g>
    <g transform="translate(1400, 16)">
      <circle cx="14" cy="14" r="12" fill="#dc2626"/>
      <text x="14" y="19" text-anchor="middle" fill="#fff" font-size="14" font-weight="bold">4</text>
      <text x="38" y="19" font-family="system-ui, sans-serif" font-size="14" font-weight="700" fill="#1f2937">Same surface, same submit path</text>
      <text x="38" y="44" font-family="system-ui, sans-serif" font-size="14" fill="#374151">Third tab of the 049 sheet goes live - one</text>
      <text x="38" y="62" font-family="system-ui, sans-serif" font-size="14" fill="#374151">confirm step, consent gate unchanged.</text>
      <g transform="translate(38, 74)">
        <a href="#US-001"><rect width="56" height="22" rx="11" fill="#0891b2"/><text x="28" y="16" text-anchor="middle" fill="#f5f0e6" font-size="14" font-weight="700">US-001</text></a>
        <a href="#FR-011" transform="translate(62, 0)"><rect width="56" height="22" rx="11" fill="#2563eb"/><text x="28" y="16" text-anchor="middle" fill="#f5f0e6" font-size="14" font-weight="700">FR-011</text></a>
        <a href="#SC-006" transform="translate(124, 0)"><rect width="56" height="22" rx="11" fill="#ea580c"/><text x="28" y="16" text-anchor="middle" fill="#f5f0e6" font-size="14" font-weight="700">SC-006</text></a>
      </g>
    </g>
    <g transform="translate(20, 130)">
      <text x="0" y="19" font-family="system-ui, sans-serif" font-size="14" font-weight="700" fill="#4b5563" letter-spacing="1">SNAP GOES LIVE</text>
      <text x="0" y="44" font-family="system-ui, sans-serif" font-size="14" fill="#374151">The 049 capture sheet gains a working third tab: camera preview with rule-of-thirds guides, 64px capture button, Library and Flip alongside - Type and Scan stay one tap away.</text>
      <text x="0" y="64" font-family="system-ui, sans-serif" font-size="14" fill="#374151">This screen only photographs, compresses on device, and hands off - recognition and the prefilled confirm step follow on screen 02 through the single 049 submit path.</text>
    </g>
  </g>
  <text x="40" y="1060" fill="#374151" font-family="system-ui, sans-serif" font-size="18" font-weight="bold">053:01 | Snap Camera | eightysix</text>
</svg>
