<?xml version="1.0" encoding="UTF-8"?>
<svg xmlns="http://www.w3.org/2000/svg" viewBox="0 0 1920 1080" width="1920" height="1080">
  <defs>
    <linearGradient id="bg" x1="0%" y1="0%" x2="0%" y2="100%">
      <stop offset="0%" stop-color="#c7ddf5"/>
      <stop offset="100%" stop-color="#b8d4f0"/>
    </linearGradient>
  </defs>
  <rect width="1920" height="1080" fill="url(#bg)"/>
  <text x="960" y="28" text-anchor="middle" font-family="system-ui, sans-serif" font-size="18" font-weight="700" fill="#4b5563" letter-spacing="1">SNAP FALLBACKS - FAILURE OFFLINE AND RATE LIMIT</text>
  <text x="40" y="52" fill="#8b5cf6" font-family="system-ui, sans-serif" font-size="18" font-weight="bold">DESKTOP (16:9)</text>
  <text x="1500" y="52" fill="#d946ef" font-family="system-ui, sans-serif" font-size="15" font-weight="bold">MOBILE</text>

  <g id="desktop" transform="translate(40, 60)">
    <rect width="1280" height="720" rx="8" fill="#e8d4b8" stroke="#b8a080"/>
    <use href="includes/header-desktop.svg#desktop-header" x="0" y="0"/>
    <rect x="400" y="3" width="70" height="44" rx="4" fill="#8b5cf6"/>
    <text x="435" y="31" text-anchor="middle" fill="#e8d4b8" font-family="system-ui, sans-serif" font-size="14" font-weight="600">Home</text>

    <text x="32" y="88" font-family="system-ui, sans-serif" font-size="22" font-weight="bold" fill="#1f2937">Snap fallback states</text>

    <!-- Card 1: Recognition failed -->
    <rect x="32" y="100" width="1216" height="168" rx="8" fill="#dcc8a8" stroke="#b8a080"/>
    <rect x="56" y="124" width="120" height="120" rx="6" fill="#1e293b" stroke="#475569"/>
    <circle cx="92" cy="186" r="14" fill="#cbd5e1"/>
    <circle cx="116" cy="176" r="18" fill="#cbd5e1"/>
    <circle cx="140" cy="186" r="12" fill="#cbd5e1"/>
    <rect x="84" y="184" width="72" height="16" rx="8" fill="#cbd5e1"/>
    <circle cx="106" cy="184" r="2.5" fill="#1e293b"/>
    <circle cx="128" cy="184" r="2.5" fill="#1e293b"/>
    <path d="M 106 194 Q 117 187 128 194" stroke="#1e293b" stroke-width="2" fill="none"/>
    <text x="200" y="134" font-family="system-ui, sans-serif" font-size="16" font-weight="bold" fill="#1f2937">Recognition failed</text>
    <text x="200" y="160" font-family="system-ui, sans-serif" font-size="14" fill="#374151">Couldn't recognize this one - name it yourself</text>
    <text x="200" y="190" font-family="system-ui, sans-serif" font-size="14" font-weight="600" fill="#1f2937">Name</text>
    <rect x="200" y="198" width="460" height="44" rx="4" fill="#f5f0e6" stroke="#8b5cf6" stroke-width="2"/>
    <line x1="216" y1="208" x2="216" y2="232" stroke="#1f2937" stroke-width="2"/>
    <rect x="684" y="205" width="150" height="30" rx="15" fill="#f5f0e6" stroke="#b8a080"/>
    <circle cx="702" cy="220" r="5" fill="#8b5cf6"/>
    <text x="714" y="225" font-family="system-ui, sans-serif" font-size="14" fill="#374151">photo attached</text>
    <rect x="1064" y="198" width="160" height="44" rx="6" fill="#8b5cf6"/>
    <text x="1144" y="226" text-anchor="middle" font-family="system-ui, sans-serif" font-size="14" font-weight="600" fill="#e8d4b8">86 it</text>
    <text x="200" y="258" font-family="system-ui, sans-serif" font-size="14" fill="#4b5563">Opted-in event records capture_method: photo - even on manual completion</text>

    <!-- Card 2: Offline -->
    <rect x="32" y="280" width="1216" height="168" rx="8" fill="#dcc8a8" stroke="#b8a080"/>
    <rect x="56" y="304" width="120" height="120" rx="6" fill="#f5f0e6" stroke="#b8a080"/>
    <circle cx="92" cy="368" r="14" fill="#4b5563"/>
    <circle cx="116" cy="358" r="18" fill="#4b5563"/>
    <circle cx="140" cy="368" r="12" fill="#4b5563"/>
    <rect x="84" y="366" width="72" height="16" rx="8" fill="#4b5563"/>
    <line x1="76" y1="396" x2="156" y2="338" stroke="#dc2626" stroke-width="5"/>
    <text x="200" y="314" font-family="system-ui, sans-serif" font-size="16" font-weight="bold" fill="#1f2937">Offline</text>
    <text x="200" y="340" font-family="system-ui, sans-serif" font-size="14" fill="#374151">No connection - name it now</text>
    <text x="200" y="364" font-family="system-ui, sans-serif" font-size="14" fill="#4b5563">We may suggest a name when you're back online - as a suggestion, never an auto-add</text>
    <rect x="200" y="376" width="460" height="44" rx="4" fill="#f5f0e6" stroke="#b8a080"/>
    <text x="216" y="403" font-family="system-ui, sans-serif" font-size="14" fill="#4b5563">e.g. Oat Milk</text>
    <rect x="684" y="383" width="150" height="30" rx="15" fill="#f5f0e6" stroke="#b8a080"/>
    <circle cx="702" cy="398" r="5" fill="#8b5cf6"/>
    <text x="714" y="403" font-family="system-ui, sans-serif" font-size="14" fill="#374151">photo attached</text>
    <rect x="1064" y="376" width="160" height="44" rx="6" fill="#8b5cf6"/>
    <text x="1144" y="404" text-anchor="middle" font-family="system-ui, sans-serif" font-size="14" font-weight="600" fill="#e8d4b8">86 it</text>

    <!-- Card 3: Cooling down -->
    <rect x="32" y="460" width="1216" height="168" rx="8" fill="#dcc8a8" stroke="#b8a080"/>
    <rect x="56" y="484" width="120" height="120" rx="6" fill="#f5f0e6" stroke="#b8a080"/>
    <rect x="96" y="500" width="40" height="6" fill="#92400e"/>
    <path d="M 100 510 L 132 510 L 116 534 Z" fill="#d97706"/>
    <path d="M 116 538 L 100 562 L 132 562 Z" fill="#d97706"/>
    <rect x="96" y="562" width="40" height="6" fill="#92400e"/>
    <text x="200" y="496" font-family="system-ui, sans-serif" font-size="16" font-weight="bold" fill="#1f2937">Cooling down</text>
    <rect x="200" y="506" width="800" height="44" rx="6" fill="#fbbf24" stroke="#d97706"/>
    <text x="216" y="534" font-family="system-ui, sans-serif" font-size="14" font-weight="bold" fill="#92400e">Recognition is cooling down - type it this time</text>
    <text x="200" y="570" font-family="system-ui, sans-serif" font-size="14" fill="#4b5563">Snap suggestions are limited per hour to keep 86 free</text>
    <rect x="200" y="580" width="460" height="44" rx="4" fill="#f5f0e6" stroke="#b8a080"/>
    <rect x="684" y="580" width="160" height="44" rx="6" fill="#8b5cf6"/>
    <text x="764" y="608" text-anchor="middle" font-family="system-ui, sans-serif" font-size="14" font-weight="600" fill="#e8d4b8">86 it</text>
    <text x="868" y="608" font-family="system-ui, sans-serif" font-size="14" fill="#4b5563">typing is never limited</text>

    <use href="includes/footer-desktop.svg#site-footer" x="0" y="640"/>

    <g class="callout"><circle cx="580" cy="155" r="14" fill="#dc2626"/><text x="580" y="160" text-anchor="middle" fill="#fff" font-size="14" font-weight="bold">1</text></g>
    <g class="callout"><circle cx="850" cy="360" r="14" fill="#dc2626"/><text x="850" y="365" text-anchor="middle" fill="#fff" font-size="14" font-weight="bold">2</text></g>
    <g class="callout"><circle cx="1030" cy="528" r="14" fill="#dc2626"/><text x="1030" y="533" text-anchor="middle" fill="#fff" font-size="14" font-weight="bold">3</text></g>
    <g class="callout"><circle cx="760" cy="253" r="14" fill="#dc2626"/><text x="760" y="258" text-anchor="middle" fill="#fff" font-size="14" font-weight="bold">4</text></g>
  </g>

  <g id="mobile" transform="translate(1360, 60)">
    <rect width="360" height="720" rx="24" fill="#e8d4b8" stroke="#b8a080"/>
    <use href="includes/header-mobile.svg#mobile-header-group" x="0" y="0"/>
    <text x="180" y="112" text-anchor="middle" font-family="system-ui, sans-serif" font-size="16" font-weight="bold" fill="#1f2937">Snap fallbacks</text>

    <!-- Card 1 stacked: Recognition failed -->
    <rect x="16" y="128" width="328" height="352" rx="8" fill="#dcc8a8" stroke="#b8a080"/>
    <rect x="32" y="144" width="88" height="88" rx="6" fill="#1e293b" stroke="#475569"/>
    <circle cx="58" cy="190" r="10" fill="#cbd5e1"/>
    <circle cx="76" cy="183" r="13" fill="#cbd5e1"/>
    <circle cx="94" cy="190" r="9" fill="#cbd5e1"/>
    <rect x="52" y="188" width="50" height="12" rx="6" fill="#cbd5e1"/>
    <circle cx="69" cy="188" r="2" fill="#1e293b"/>
    <circle cx="85" cy="188" r="2" fill="#1e293b"/>
    <path d="M 69 196 Q 77 191 85 196" stroke="#1e293b" stroke-width="1.5" fill="none"/>
    <text x="136" y="166" font-family="system-ui, sans-serif" font-size="16" font-weight="bold" fill="#1f2937">Recognition failed</text>
    <text x="136" y="192" font-family="system-ui, sans-serif" font-size="14" fill="#374151">Couldn't recognize this</text>
    <text x="136" y="210" font-family="system-ui, sans-serif" font-size="14" fill="#374151">one - name it yourself</text>
    <text x="32" y="262" font-family="system-ui, sans-serif" font-size="14" font-weight="600" fill="#1f2937">Name</text>
    <rect x="32" y="272" width="296" height="44" rx="4" fill="#f5f0e6" stroke="#8b5cf6" stroke-width="2"/>
    <line x1="48" y1="282" x2="48" y2="306" stroke="#1f2937" stroke-width="2"/>
    <rect x="32" y="330" width="150" height="30" rx="15" fill="#f5f0e6" stroke="#b8a080"/>
    <circle cx="50" cy="345" r="5" fill="#8b5cf6"/>
    <text x="62" y="350" font-family="system-ui, sans-serif" font-size="14" fill="#374151">photo attached</text>
    <rect x="32" y="376" width="296" height="44" rx="6" fill="#8b5cf6"/>
    <text x="180" y="404" text-anchor="middle" font-family="system-ui, sans-serif" font-size="14" font-weight="600" fill="#e8d4b8">86 it</text>
    <text x="32" y="444" font-family="system-ui, sans-serif" font-size="14" fill="#4b5563">Opted-in event records</text>
    <text x="32" y="462" font-family="system-ui, sans-serif" font-size="14" fill="#4b5563">capture_method: photo</text>

    <!-- Collapsed peek: Offline -->
    <rect x="16" y="496" width="328" height="64" rx="8" fill="#dcc8a8" stroke="#b8a080"/>
    <text x="32" y="520" font-family="system-ui, sans-serif" font-size="14" font-weight="bold" fill="#1f2937">Offline</text>
    <text x="32" y="542" font-family="system-ui, sans-serif" font-size="14" fill="#374151">No connection - name it now</text>

    <!-- Collapsed peek: Cooling down -->
    <rect x="16" y="572" width="328" height="64" rx="8" fill="#dcc8a8" stroke="#b8a080"/>
    <text x="32" y="596" font-family="system-ui, sans-serif" font-size="14" font-weight="bold" fill="#1f2937">Cooling down</text>
    <text x="32" y="618" font-family="system-ui, sans-serif" font-size="14" fill="#374151">Type it this time - typing is never limited</text>

    <use href="includes/footer-mobile.svg#mobile-bottom-nav" x="0" y="664"/>

    <g class="callout"><circle cx="320" cy="200" r="11" fill="#dc2626"/><text x="320" y="205" text-anchor="middle" fill="#fff" font-size="14" font-weight="bold">1</text></g>
    <g class="callout"><circle cx="320" cy="516" r="11" fill="#dc2626"/><text x="320" y="521" text-anchor="middle" fill="#fff" font-size="14" font-weight="bold">2</text></g>
    <g class="callout"><circle cx="320" cy="592" r="11" fill="#dc2626"/><text x="320" y="597" text-anchor="middle" fill="#fff" font-size="14" font-weight="bold">3</text></g>
    <g class="callout"><circle cx="240" cy="453" r="11" fill="#dc2626"/><text x="240" y="458" text-anchor="middle" fill="#fff" font-size="14" font-weight="bold">4</text></g>
  </g>

  <g id="annotations" transform="translate(40, 800)">
    <rect width="1840" height="220" rx="8" fill="#dcc8a8" stroke="#b8a080"/>
    <g transform="translate(20, 16)">
      <circle cx="14" cy="14" r="12" fill="#dc2626"/>
      <text x="14" y="19" text-anchor="middle" fill="#fff" font-size="14" font-weight="bold">1</text>
      <text x="38" y="19" font-family="system-ui, sans-serif" font-size="14" font-weight="700" fill="#1f2937">Failure lands in working capture</text>
      <text x="38" y="44" font-family="system-ui, sans-serif" font-size="14" fill="#374151">Photo stays attached, message is specific,</text>
      <text x="38" y="62" font-family="system-ui, sans-serif" font-size="14" fill="#374151">manual entry opens - zero dead ends.</text>
      <g transform="translate(38, 74)">
        <a href="#US-003"><rect width="56" height="22" rx="11" fill="#0891b2"/><text x="28" y="17" text-anchor="middle" fill="#f5f0e6" font-size="14" font-weight="700">US-003</text></a>
        <a href="#FR-008" transform="translate(64, 0)"><rect width="56" height="22" rx="11" fill="#2563eb"/><text x="28" y="17" text-anchor="middle" fill="#f5f0e6" font-size="14" font-weight="700">FR-008</text></a>
        <a href="#SC-002" transform="translate(128, 0)"><rect width="56" height="22" rx="11" fill="#ea580c"/><text x="28" y="17" text-anchor="middle" fill="#f5f0e6" font-size="14" font-weight="700">SC-002</text></a>
      </g>
    </g>
    <g transform="translate(480, 16)">
      <circle cx="14" cy="14" r="12" fill="#dc2626"/>
      <text x="14" y="19" text-anchor="middle" fill="#fff" font-size="14" font-weight="bold">2</text>
      <text x="38" y="19" font-family="system-ui, sans-serif" font-size="14" font-weight="700" fill="#1f2937">Offline keeps the promise</text>
      <text x="38" y="44" font-family="system-ui, sans-serif" font-size="14" fill="#374151">Late recognition returns as a suggestion</text>
      <text x="38" y="62" font-family="system-ui, sans-serif" font-size="14" fill="#374151">only, never an auto-add - queue-ready for 051.</text>
      <g transform="translate(38, 74)">
        <a href="#US-003"><rect width="56" height="22" rx="11" fill="#0891b2"/><text x="28" y="17" text-anchor="middle" fill="#f5f0e6" font-size="14" font-weight="700">US-003</text></a>
        <a href="#US-002" transform="translate(64, 0)"><rect width="56" height="22" rx="11" fill="#0891b2"/><text x="28" y="17" text-anchor="middle" fill="#f5f0e6" font-size="14" font-weight="700">US-002</text></a>
        <a href="#FR-012" transform="translate(128, 0)"><rect width="56" height="22" rx="11" fill="#2563eb"/><text x="28" y="17" text-anchor="middle" fill="#f5f0e6" font-size="14" font-weight="700">FR-012</text></a>
      </g>
    </g>
    <g transform="translate(940, 16)">
      <circle cx="14" cy="14" r="12" fill="#dc2626"/>
      <text x="14" y="19" text-anchor="middle" fill="#fff" font-size="14" font-weight="bold">3</text>
      <text x="38" y="19" font-family="system-ui, sans-serif" font-size="14" font-weight="700" fill="#1f2937">Rate limit with honest copy</text>
      <text x="38" y="44" font-family="system-ui, sans-serif" font-size="14" fill="#374151">Cooldown copy explains the why; manual</text>
      <text x="38" y="62" font-family="system-ui, sans-serif" font-size="14" fill="#374151">capture is never blocked by the cap.</text>
      <g transform="translate(38, 74)">
        <a href="#US-003"><rect width="56" height="22" rx="11" fill="#0891b2"/><text x="28" y="17" text-anchor="middle" fill="#f5f0e6" font-size="14" font-weight="700">US-003</text></a>
        <a href="#FR-009" transform="translate(64, 0)"><rect width="56" height="22" rx="11" fill="#2563eb"/><text x="28" y="17" text-anchor="middle" fill="#f5f0e6" font-size="14" font-weight="700">FR-009</text></a>
        <a href="#SC-005" transform="translate(128, 0)"><rect width="56" height="22" rx="11" fill="#ea580c"/><text x="28" y="17" text-anchor="middle" fill="#f5f0e6" font-size="14" font-weight="700">SC-005</text></a>
      </g>
    </g>
    <g transform="translate(1400, 16)">
      <circle cx="14" cy="14" r="12" fill="#dc2626"/>
      <text x="14" y="19" text-anchor="middle" fill="#fff" font-size="14" font-weight="bold">4</text>
      <text x="38" y="19" font-family="system-ui, sans-serif" font-size="14" font-weight="700" fill="#1f2937">Capture method stays photo</text>
      <text x="38" y="44" font-family="system-ui, sans-serif" font-size="14" fill="#374151">Opted-in events record how it was captured,</text>
      <text x="38" y="62" font-family="system-ui, sans-serif" font-size="14" fill="#374151">even when the member typed the name.</text>
      <g transform="translate(38, 74)">
        <a href="#US-004"><rect width="56" height="22" rx="11" fill="#0891b2"/><text x="28" y="17" text-anchor="middle" fill="#f5f0e6" font-size="14" font-weight="700">US-004</text></a>
        <a href="#FR-011" transform="translate(64, 0)"><rect width="56" height="22" rx="11" fill="#2563eb"/><text x="28" y="17" text-anchor="middle" fill="#f5f0e6" font-size="14" font-weight="700">FR-011</text></a>
        <a href="#SC-006" transform="translate(128, 0)"><rect width="56" height="22" rx="11" fill="#ea580c"/><text x="28" y="17" text-anchor="middle" fill="#f5f0e6" font-size="14" font-weight="700">SC-006</text></a>
      </g>
    </g>
    <g transform="translate(20, 130)">
      <text x="0" y="19" font-family="system-ui, sans-serif" font-size="14" font-weight="700" fill="#4b5563" letter-spacing="1">WHAT SHIPS</text>
      <text x="0" y="44" font-family="system-ui, sans-serif" font-size="14" fill="#374151">Three Snap fallback states - recognition failure, offline, and rate-limit cooldown - each landing in manual entry with the photo attached.</text>
      <text x="0" y="64" font-family="system-ui, sans-serif" font-size="14" fill="#374151">Every path ends at the same 86 it submit from feature 049; recognition suggests, the member decides, typing is never limited.</text>
    </g>
  </g>
  <text x="40" y="1060" fill="#374151" font-family="system-ui, sans-serif" font-size="18" font-weight="bold">053:03 | Snap Fallbacks | eightysix</text>
</svg>
