<svg xmlns="http://www.w3.org/2000/svg">
  <!-- ScriptHammer Wireframe Definitions
       Single source of truth for gradients, icons, and styles
       Referenced by all wireframes via <use href> -->

  <defs>
    <!-- v3 True Parchment - Deeper sky blue background -->
    <linearGradient id="bgGrad" x1="0%" y1="0%" x2="100%" y2="100%">
      <stop offset="0%" style="stop-color:#c7ddf5"/>
      <stop offset="100%" style="stop-color:#b8d4f0"/>
    </linearGradient>
    <linearGradient id="accentGrad" x1="0%" y1="0%" x2="100%" y2="0%">
      <stop offset="0%" style="stop-color:#8b5cf6"/>
      <stop offset="100%" style="stop-color:#d946ef"/>
    </linearGradient>

    <!-- SVG Icons (Heroicons 24x24) -->
    <!-- Settings Gear (cog-6-tooth) -->
    <symbol id="icon-cog" viewBox="0 0 24 24">
      <path fill="currentColor" fill-rule="evenodd" clip-rule="evenodd" d="M11.0779 2.25C10.1613 2.25 9.37909 2.91265 9.22841 3.81675L9.04974 4.88873C9.02959 5.00964 8.93542 5.1498 8.75311 5.23747C8.40905 5.40292 8.07967 5.5938 7.7674 5.8076C7.60091 5.92159 7.43259 5.9332 7.31769 5.89015L6.29851 5.50833C5.44019 5.18678 4.4752 5.53289 4.01692 6.32666L3.09493 7.92358C2.63665 8.71736 2.8194 9.72611 3.52704 10.3087L4.36756 11.0006C4.46219 11.0785 4.53629 11.2298 4.52119 11.4307C4.50706 11.6188 4.49988 11.8086 4.49988 12C4.49988 12.1915 4.50707 12.3814 4.52121 12.5695C4.53632 12.7704 4.46221 12.9217 4.36758 12.9996L3.52704 13.6916C2.8194 14.2741 2.63665 15.2829 3.09493 16.0767L4.01692 17.6736C4.4752 18.4674 5.44019 18.8135 6.29851 18.4919L7.31791 18.11C7.43281 18.067 7.60113 18.0786 7.76761 18.1925C8.07982 18.4063 8.40913 18.5971 8.75311 18.7625C8.93542 18.8502 9.02959 18.9904 9.04974 19.1113L9.22841 20.1832C9.37909 21.0874 10.1613 21.75 11.0779 21.75H12.9219C13.8384 21.75 14.6207 21.0874 14.7713 20.1832L14.95 19.1113C14.9702 18.9904 15.0643 18.8502 15.2466 18.7625C15.5907 18.5971 15.9201 18.4062 16.2324 18.1924C16.3988 18.0784 16.5672 18.0668 16.6821 18.1098L17.7012 18.4917C18.5596 18.8132 19.5246 18.4671 19.9828 17.6733L20.9048 16.0764C21.3631 15.2826 21.1804 14.2739 20.4727 13.6913L19.6322 12.9994C19.5376 12.9215 19.4635 12.7702 19.4786 12.5693C19.4927 12.3812 19.4999 12.1914 19.4999 12C19.4999 11.8085 19.4927 11.6186 19.4785 11.4305C19.4634 11.2296 19.5375 11.0783 19.6322 11.0004L20.4727 10.3084C21.1804 9.72587 21.3631 8.71711 20.9048 7.92334L19.9828 6.32642C19.5246 5.53264 18.5596 5.18654 17.7012 5.50809L16.6818 5.89C16.5669 5.93304 16.3986 5.92144 16.2321 5.80746C15.9199 5.59371 15.5906 5.40289 15.2466 5.23747C15.0643 5.1498 14.9702 5.00964 14.95 4.88873L14.7713 3.81675C14.6207 2.91265 13.8384 2.25 12.9219 2.25H11.0779ZM12 15.75C14.0711 15.75 15.75 14.0711 15.75 12C15.75 9.92893 14.0711 8.25 12 8.25C9.92893 8.25 8.25 9.92893 8.25 12C8.25 14.0711 9.92893 15.75 12 15.75Z"/>
    </symbol>
    <!-- Lightning Bolt (features) -->
    <symbol id="icon-bolt" viewBox="0 0 24 24">
      <path fill="currentColor" d="M14.6152 1.59492C14.9164 1.76287 15.0643 2.1146 14.9736 2.44734L12.9819 9.75H20.25C20.5486 9.75 20.8188 9.92718 20.9378 10.2011C21.0569 10.475 21.0021 10.7934 20.7983 11.0117L10.2983 22.2617C10.063 22.5139 9.68601 22.573 9.38478 22.4051C9.08354 22.2371 8.93567 21.8854 9.02641 21.5527L11.018 14.25H3.74999C3.45134 14.25 3.18115 14.0728 3.06213 13.7989C2.9431 13.525 2.99792 13.2066 3.20169 12.9883L13.7017 1.73826C13.937 1.48613 14.314 1.42698 14.6152 1.59492Z"/>
    </symbol>
    <!-- Document (docs) -->
    <symbol id="icon-doc" viewBox="0 0 24 24">
      <path fill="currentColor" d="M5.625 1.5C4.58947 1.5 3.75 2.33947 3.75 3.375V20.625C3.75 21.6605 4.58947 22.5 5.625 22.5H18.375C19.4105 22.5 20.25 21.6605 20.25 20.625V12.75C20.25 10.6789 18.5711 9 16.5 9H14.625C13.5895 9 12.75 8.16053 12.75 7.125V5.25C12.75 3.17893 11.0711 1.5 9 1.5H5.625ZM7.5 15C7.5 14.5858 7.83579 14.25 8.25 14.25H15.75C16.1642 14.25 16.5 14.5858 16.5 15C16.5 15.4142 16.1642 15.75 15.75 15.75H8.25C7.83579 15.75 7.5 15.4142 7.5 15ZM8.25 17.25C7.83579 17.25 7.5 17.5858 7.5 18C7.5 18.4142 7.83579 18.75 8.25 18.75H12C12.4142 18.75 12.75 18.4142 12.75 18C12.75 17.5858 12.4142 17.25 12 17.25H8.25Z"/>
      <path fill="currentColor" d="M12.9712 1.8159C13.768 2.73648 14.25 3.93695 14.25 5.25V7.125C14.25 7.33211 14.4179 7.5 14.625 7.5H16.5C17.8131 7.5 19.0135 7.98204 19.9341 8.77881C19.0462 5.37988 16.3701 2.70377 12.9712 1.8159Z"/>
    </symbol>
    <!-- Eye (accessibility) -->
    <symbol id="icon-eye" viewBox="0 0 24 24">
      <path fill="currentColor" d="M12 15a3 3 0 1 0 0-6 3 3 0 0 0 0 6Z"/>
      <path fill="currentColor" fill-rule="evenodd" clip-rule="evenodd" d="M1.323 11.447C2.811 6.976 7.028 3.75 12.001 3.75c4.97 0 9.185 3.223 10.675 7.69.12.362.12.752 0 1.113-1.487 4.471-5.705 7.697-10.677 7.697-4.97 0-9.186-3.223-10.675-7.69a1.762 1.762 0 0 1 0-1.113ZM17.25 12a5.25 5.25 0 1 1-10.5 0 5.25 5.25 0 0 1 10.5 0Z"/>
    </symbol>
    <!-- Home -->
    <symbol id="icon-home" viewBox="0 0 24 24">
      <path fill="currentColor" d="M11.47 3.841a.75.75 0 0 1 1.06 0l8.69 8.69a.75.75 0 1 0 1.06-1.061l-8.689-8.69a2.25 2.25 0 0 0-3.182 0l-8.69 8.69a.75.75 0 1 0 1.061 1.06l8.69-8.689Z"/>
      <path fill="currentColor" d="m12 5.432 8.159 8.159c.03.03.06.058.091.086v6.198c0 1.035-.84 1.875-1.875 1.875H15a.75.75 0 0 1-.75-.75v-4.5a.75.75 0 0 0-.75-.75h-3a.75.75 0 0 0-.75.75V21a.75.75 0 0 1-.75.75H5.625a1.875 1.875 0 0 1-1.875-1.875v-6.198a2.29 2.29 0 0 0 .091-.086L12 5.432Z"/>
    </symbol>
    <!-- User -->
    <symbol id="icon-user" viewBox="0 0 24 24">
      <path fill="currentColor" fill-rule="evenodd" clip-rule="evenodd" d="M7.5 6a4.5 4.5 0 1 1 9 0 4.5 4.5 0 0 1-9 0ZM3.751 20.105a8.25 8.25 0 0 1 16.498 0 .75.75 0 0 1-.437.695A18.683 18.683 0 0 1 12 22.5c-2.786 0-5.433-.608-7.812-1.7a.75.75 0 0 1-.437-.695Z"/>
    </symbol>
    <!-- Signal -->
    <symbol id="icon-signal" viewBox="0 0 24 24">
      <path fill="currentColor" d="M5.636 4.575a.75.75 0 0 1 0 1.061 9 9 0 0 0 0 12.728.75.75 0 1 1-1.06 1.06c-4.101-4.1-4.101-10.748 0-14.849a.75.75 0 0 1 1.06 0Zm12.728 0a.75.75 0 0 1 1.06 0c4.101 4.1 4.101 10.75 0 14.85a.75.75 0 1 1-1.06-1.061 9 9 0 0 0 0-12.728.75.75 0 0 1 0-1.06ZM7.757 6.697a.75.75 0 0 1 0 1.06 6 6 0 0 0 0 8.486.75.75 0 0 1-1.06 1.06 7.5 7.5 0 0 1 0-10.606.75.75 0 0 1 1.06 0Zm8.486 0a.75.75 0 0 1 1.06 0 7.5 7.5 0 0 1 0 10.606.75.75 0 0 1-1.06-1.06 6 6 0 0 0 0-8.486.75.75 0 0 1 0-1.06ZM9.879 8.818a.75.75 0 0 1 0 1.06 3 3 0 0 0 0 4.243.75.75 0 1 1-1.061 1.061 4.5 4.5 0 0 1 0-6.364.75.75 0 0 1 1.06 0Zm4.242 0a.75.75 0 0 1 1.061 0 4.5 4.5 0 0 1 0 6.364.75.75 0 0 1-1.06-1.06 3 3 0 0 0 0-4.243.75.75 0 0 1 0-1.061ZM10.875 12a1.125 1.125 0 1 1 2.25 0 1.125 1.125 0 0 1-2.25 0Z"/>
    </symbol>
    <!-- Battery -->
    <symbol id="icon-battery" viewBox="0 0 24 24">
      <path fill="currentColor" fill-rule="evenodd" clip-rule="evenodd" d="M.75 9.75a3 3 0 0 1 3-3h15a3 3 0 0 1 3 3v.038c.856.173 1.5.93 1.5 1.837v.75c0 .907-.644 1.664-1.5 1.838v.037a3 3 0 0 1-3 3h-15a3 3 0 0 1-3-3v-4.5Zm3-1.5a1.5 1.5 0 0 0-1.5 1.5v4.5a1.5 1.5 0 0 0 1.5 1.5h15a1.5 1.5 0 0 0 1.5-1.5v-4.5a1.5 1.5 0 0 0-1.5-1.5h-15Z"/>
      <path fill="currentColor" d="M3 10.5a.75.75 0 0 1 .75-.75h13.5a.75.75 0 0 1 .75.75v3a.75.75 0 0 1-.75.75H3.75a.75.75 0 0 1-.75-.75v-3Z"/>
    </symbol>
    <!-- Hamburger Menu -->
    <symbol id="icon-menu" viewBox="0 0 24 24">
      <path fill="currentColor" fill-rule="evenodd" clip-rule="evenodd" d="M3 6.75A.75.75 0 0 1 3.75 6h16.5a.75.75 0 0 1 0 1.5H3.75A.75.75 0 0 1 3 6.75ZM3 12a.75.75 0 0 1 .75-.75h16.5a.75.75 0 0 1 0 1.5H3.75A.75.75 0 0 1 3 12Zm0 5.25a.75.75 0 0 1 .75-.75h16.5a.75.75 0 0 1 0 1.5H3.75a.75.75 0 0 1-.75-.75Z"/>
    </symbol>

    <style>
      /* Typography - v4 LARGER for readability, WCAG AA compliant on parchment */
      .heading-lg { fill: #1a1a2e; font-family: system-ui, sans-serif; font-size: 28px; font-weight: 800; }
      .heading { fill: #1a1a2e; font-family: system-ui, sans-serif; font-size: 20px; font-weight: 700; }
      .heading-sm { fill: #1a1a2e; font-family: system-ui, sans-serif; font-size: 16px; font-weight: 700; }
      .text-md { fill: #2d3748; font-family: system-ui, sans-serif; font-size: 16px; font-weight: 500; }
      .text-sm { fill: #374151; font-family: system-ui, sans-serif; font-size: 14px; font-weight: 500; }
      .text-muted { fill: #4b5563; font-family: system-ui, sans-serif; font-size: 13px; font-weight: 500; }
      .annotation { fill: #6d28d9; font-family: system-ui, sans-serif; font-size: 14px; font-weight: 700; }
      /* Layout labels */
      .label-desktop { fill: #8b5cf6; font-family: system-ui, sans-serif; font-size: 15px; font-weight: bold; }
      .label-mobile { fill: #d946ef; font-family: system-ui, sans-serif; font-size: 15px; font-weight: bold; }
    </style>
  </defs>
</svg>
