<?xml version="1.0" encoding="UTF-8"?>
<svg xmlns="http://www.w3.org/2000/svg" viewBox="0 0 1920 1080" width="1920" height="1080">
  <defs>
    <linearGradient id="bg" x1="0%" y1="0%" x2="0%" y2="100%">
      <stop offset="0%" stop-color="#c7ddf5"/>
      <stop offset="100%" stop-color="#b8d4f0"/>
    </linearGradient>
    <radialGradient id="sceneSky" cx="50%" cy="35%" r="65%">
      <stop offset="0%" stop-color="#f5f0e6"/>
      <stop offset="100%" stop-color="#dcc8a8"/>
    </radialGradient>
    <radialGradient id="sceneSkyMobile" cx="50%" cy="40%" r="60%">
      <stop offset="0%" stop-color="#f5f0e6"/>
      <stop offset="100%" stop-color="#dcc8a8"/>
    </radialGradient>

  </defs>

  <!-- Background + title come EARLY in the file so the validator's 2000-char
       G-024/SECTION-001 scan window catches them. Brand asset symbols (large)
       come right after the section labels. -->
  <rect width="1920" height="1080" fill="url(#bg)"/>
  <text x="960" y="28" text-anchor="middle" font-family="system-ui, sans-serif" font-size="18" font-weight="700" fill="#4b5563" letter-spacing="1">3D GAME (THREE.JS SCENE) - /game/3d</text>
  <text x="40" y="52" fill="#8b5cf6" font-family="system-ui, sans-serif" font-size="18" font-weight="bold">DESKTOP (16:9)</text>
  <text x="1500" y="52" fill="#d946ef" font-family="system-ui, sans-serif" font-size="15" font-weight="bold">MOBILE</text>

  <defs>
    <!-- Brand symbol: cog ring (geometry copied verbatim from public/scripthammer-logo.svg,
         lines 109-248. Solid silver fill #c0c0c0 substitutes the metallic gradients
         which aren't perceptible at wireframe scale). 400x400 viewBox. -->
    <symbol id="brand-cog" viewBox="0 0 400 400">
      <g transform="translate(200, 200)">
        <g fill="#c0c0c0" stroke="#888888" stroke-width="0.5">
          <path d="M -10,-179 L -15,-195 L 15,-195 L 10,-179 Z" transform="rotate(0)"/>
          <path d="M -10,-179 L -15,-195 L 15,-195 L 10,-179 Z" transform="rotate(18)"/>
          <path d="M -10,-179 L -15,-195 L 15,-195 L 10,-179 Z" transform="rotate(36)"/>
          <path d="M -10,-179 L -15,-195 L 15,-195 L 10,-179 Z" transform="rotate(54)"/>
          <path d="M -10,-179 L -15,-195 L 15,-195 L 10,-179 Z" transform="rotate(72)"/>
          <path d="M -10,-179 L -15,-195 L 15,-195 L 10,-179 Z" transform="rotate(90)"/>
          <path d="M -10,-179 L -15,-195 L 15,-195 L 10,-179 Z" transform="rotate(108)"/>
          <path d="M -10,-179 L -15,-195 L 15,-195 L 10,-179 Z" transform="rotate(126)"/>
          <path d="M -10,-179 L -15,-195 L 15,-195 L 10,-179 Z" transform="rotate(144)"/>
          <path d="M -10,-179 L -15,-195 L 15,-195 L 10,-179 Z" transform="rotate(162)"/>
          <path d="M -10,-179 L -15,-195 L 15,-195 L 10,-179 Z" transform="rotate(180)"/>
          <path d="M -10,-179 L -15,-195 L 15,-195 L 10,-179 Z" transform="rotate(198)"/>
          <path d="M -10,-179 L -15,-195 L 15,-195 L 10,-179 Z" transform="rotate(216)"/>
          <path d="M -10,-179 L -15,-195 L 15,-195 L 10,-179 Z" transform="rotate(234)"/>
          <path d="M -10,-179 L -15,-195 L 15,-195 L 10,-179 Z" transform="rotate(252)"/>
          <path d="M -10,-179 L -15,-195 L 15,-195 L 10,-179 Z" transform="rotate(270)"/>
          <path d="M -10,-179 L -15,-195 L 15,-195 L 10,-179 Z" transform="rotate(288)"/>
          <path d="M -10,-179 L -15,-195 L 15,-195 L 10,-179 Z" transform="rotate(306)"/>
          <path d="M -10,-179 L -15,-195 L 15,-195 L 10,-179 Z" transform="rotate(324)"/>
          <path d="M -10,-179 L -15,-195 L 15,-195 L 10,-179 Z" transform="rotate(342)"/>
        </g>
        <circle cx="0" cy="0" r="183" fill="none" stroke="#888888" stroke-width="1" opacity="0.7"/>
        <circle cx="0" cy="0" r="175" fill="none" stroke="#b0b0b0" stroke-width="10"/>
        <circle cx="0" cy="0" r="165" fill="none" stroke="#888888" stroke-width="2" opacity="0.8"/>
        <circle cx="0" cy="0" r="162" fill="none" stroke="#c0c0c0" stroke-width="0.5" opacity="0.6"/>
      </g>
      <!-- Rivets at every 18 degrees around the rim (between gear teeth). -->
      <g transform="translate(200, 200)" fill="#888888">
        <g transform="rotate(9)"><circle cx="0" cy="-171" r="2.5"/></g>
        <g transform="rotate(27)"><circle cx="0" cy="-171" r="2.5"/></g>
        <g transform="rotate(45)"><circle cx="0" cy="-171" r="2.5"/></g>
        <g transform="rotate(63)"><circle cx="0" cy="-171" r="2.5"/></g>
        <g transform="rotate(81)"><circle cx="0" cy="-171" r="2.5"/></g>
        <g transform="rotate(99)"><circle cx="0" cy="-171" r="2.5"/></g>
        <g transform="rotate(117)"><circle cx="0" cy="-171" r="2.5"/></g>
        <g transform="rotate(135)"><circle cx="0" cy="-171" r="2.5"/></g>
        <g transform="rotate(153)"><circle cx="0" cy="-171" r="2.5"/></g>
        <g transform="rotate(171)"><circle cx="0" cy="-171" r="2.5"/></g>
        <g transform="rotate(189)"><circle cx="0" cy="-171" r="2.5"/></g>
        <g transform="rotate(207)"><circle cx="0" cy="-171" r="2.5"/></g>
        <g transform="rotate(225)"><circle cx="0" cy="-171" r="2.5"/></g>
        <g transform="rotate(243)"><circle cx="0" cy="-171" r="2.5"/></g>
        <g transform="rotate(261)"><circle cx="0" cy="-171" r="2.5"/></g>
        <g transform="rotate(279)"><circle cx="0" cy="-171" r="2.5"/></g>
        <g transform="rotate(297)"><circle cx="0" cy="-171" r="2.5"/></g>
        <g transform="rotate(315)"><circle cx="0" cy="-171" r="2.5"/></g>
        <g transform="rotate(333)"><circle cx="0" cy="-171" r="2.5"/></g>
        <g transform="rotate(351)"><circle cx="0" cy="-171" r="2.5"/></g>
      </g>
    </symbol>

    <!-- Brand symbol: golden code-tag brackets (geometry copied verbatim from
         public/script-tags.svg). 400x400 viewBox. -->
    <symbol id="brand-script-tags" viewBox="0 0 400 400">
      <g transform="translate(200, 200)">
        <!-- Left bracket -->
        <g transform="translate(-75, 0)">
          <path d="M 45 -120 L -45 0 L 45 120" stroke="#8B4513" stroke-width="18" fill="none" stroke-linecap="round" stroke-linejoin="round" opacity="0.4" transform="translate(3, 3)"/>
          <path d="M 45 -120 L -45 0 L 45 120" stroke="#CD853F" stroke-width="18" fill="none" stroke-linecap="round" stroke-linejoin="round"/>
          <path d="M 45 -120 L -45 0 L 45 120" stroke="#FFD700" stroke-width="10" fill="none" stroke-linecap="round" stroke-linejoin="round" opacity="0.7"/>
          <path d="M 42 -115 L -40 0 L 42 115" stroke="#FFDF00" stroke-width="3" fill="none" stroke-linecap="round" stroke-linejoin="round" opacity="0.5"/>
        </g>
        <!-- Right bracket -->
        <g transform="translate(75, 0)">
          <path d="M -45 -120 L 45 0 L -45 120" stroke="#8B4513" stroke-width="18" fill="none" stroke-linecap="round" stroke-linejoin="round" opacity="0.4" transform="translate(3, 3)"/>
          <path d="M -45 -120 L 45 0 L -45 120" stroke="#CD853F" stroke-width="18" fill="none" stroke-linecap="round" stroke-linejoin="round"/>
          <path d="M -45 -120 L 45 0 L -45 120" stroke="#FFD700" stroke-width="10" fill="none" stroke-linecap="round" stroke-linejoin="round" opacity="0.7"/>
          <path d="M -42 -115 L 40 0 L -42 115" stroke="#FFDF00" stroke-width="3" fill="none" stroke-linecap="round" stroke-linejoin="round" opacity="0.5"/>
        </g>
      </g>
    </symbol>

    <!-- Brand symbol: printing-mallet (geometry copied verbatim from
         public/printing-mallet.svg — the v3 redraw from PR #96 with the
         compositor's-mallet anatomy). 400x400 viewBox with the 42-degree
         tilt already baked in. -->
    <symbol id="brand-printing-mallet" viewBox="0 0 400 400">
      <ellipse cx="200" cy="358" rx="105" ry="14" fill="#000000" opacity="0.15"/>
      <ellipse cx="200" cy="358" rx="70" ry="9" fill="#000000" opacity="0.12"/>
      <g transform="rotate(42, 200, 200)">
        <polygon points="138,72 256,72 266,100 128,100" fill="#C9A876" stroke="#5B4530" stroke-width="1.2"/>
        <polygon points="128,100 266,100 256,168 138,168" fill="#A88660" stroke="#5B4530" stroke-width="1.4"/>
        <polygon points="266,100 286,80 276,148 256,168" fill="#7A5F40" stroke="#5B4530" stroke-width="1.2"/>
        <polygon points="193,82 207,82 209,98 191,98" fill="#D8C49A" stroke="#5B4530" stroke-width="0.9"/>
        <path d="M194,168 L206,168 L210,308 L190,308 Z" fill="#D4B585" stroke="#7A5F40" stroke-width="1"/>
        <path d="M203,170 L206,168 L210,308 L208,308 Z" fill="#8B6F47" opacity="0.55"/>
        <path d="M196,168 L194,168 L190,308 L192,308 Z" fill="#E8D2A0" opacity="0.45"/>
        <ellipse cx="200" cy="308" rx="10" ry="2.5" fill="#7A5F40"/>
      </g>
    </symbol>
  </defs>

  <!-- DESKTOP 1280x720 -->
  <g id="desktop" transform="translate(40, 60)">
    <rect width="1280" height="720" rx="8" fill="#e8d4b8" stroke="#b8a080"/>
    <use href="includes/header-desktop.svg#desktop-header" x="0" y="0"/>

    <!-- Page heading + breadcrumb -->
    <text x="32" y="92" font-family="system-ui, sans-serif" font-size="22" font-weight="bold" fill="#1f2937">3D Game (Three.js)</text>
    <text x="32" y="116" font-family="system-ui, sans-serif" font-size="14" fill="#4b5563"><tspan fill="#8b5cf6" text-decoration="underline">/game</tspan> / 3d</text>

    <!-- Canvas region (the WebGL surface) -->
    <rect x="32" y="136" width="1216" height="448" rx="8" fill="url(#sceneSky)" stroke="#b8a080"/>

    <!-- ScriptHammer v1 brand-composition sculpt.
         Uses three <symbol> definitions in <defs> with geometry copied verbatim
         from the canonical brand SVGs (public/*.svg). The <use> placements below
         match the exact layering rules from LayeredScriptHammerLogo.tsx:
           Layer 1 (BACK):  printing-mallet at top:58% left:42%, size 65% of cog
           Layer 2 (MIDDLE): cog ring at 100%, centered
           Layer 3 (FRONT):  script-tags brackets at 68%, centered

         Cog reference: 300x300 centered at (640, 360) → corner (490, 210). -->

    <!-- Ground plane shadow disc -->
    <ellipse cx="640" cy="500" rx="280" ry="32" fill="#b8a080" opacity="0.5"/>

    <!-- Layer 1 (BACK): printing-mallet (65% of cog = 195x195,
         offset top:58% left:42% from cog center → corner (518, 286)). -->
    <use href="#brand-printing-mallet" x="518" y="286" width="195" height="195"/>

    <!-- Layer 2 (MIDDLE): silver cog ring (100%, centered at 640,360). -->
    <use href="#brand-cog" x="490" y="210" width="300" height="300"/>

    <!-- Layer 3 (FRONT): script-tag brackets (68% of cog = 204x204, centered). -->
    <use href="#brand-script-tags" x="538" y="258" width="204" height="204"/>


    <!-- Auto-orbit dashed motion hint (curved arc, suggests rotation around scene) -->
    <ellipse cx="640" cy="500" rx="320" ry="44" fill="none" stroke="#8b5cf6" stroke-width="2" stroke-dasharray="6 6" opacity="0.7"/>

    <!-- HUD overlay: orbit hint -->
    <rect x="32" y="544" width="376" height="32" rx="16" fill="#f5f0e6" stroke="#b8a080"/>
    <text x="48" y="565" font-family="system-ui, sans-serif" font-size="14" fill="#374151">Drag to orbit · Scroll to zoom</text>

    <!-- Auto-orbit chip -->
    <rect x="1056" y="544" width="192" height="32" rx="16" fill="#22c55e"/>
    <circle cx="1074" cy="560" r="6" fill="#f5f0e6"/>
    <text x="1090" y="565" font-family="system-ui, sans-serif" font-size="14" font-weight="600" fill="#f5f0e6">Auto-orbit on</text>

    <!-- Status bar below canvas -->
    <rect x="32" y="600" width="1216" height="40" rx="6" fill="#dcc8a8" stroke="#b8a080"/>
    <text x="48" y="625" font-family="system-ui, sans-serif" font-size="14" fill="#1f2937">Theme: <tspan font-weight="600">winter</tspan> · DPR: <tspan font-weight="600">2.0</tspan> · prefers-reduced-motion: <tspan font-weight="600">no-preference</tspan></text>

    <use href="includes/footer-desktop.svg#site-footer" x="0" y="640"/>

    <!-- Callouts -->
    <g class="callout"><circle cx="640" cy="360" r="14" fill="#dc2626"/><text x="640" y="365" text-anchor="middle" fill="#fff" font-size="14" font-weight="bold">1</text></g>
    <g class="callout"><circle cx="500" cy="200" r="14" fill="#dc2626"/><text x="500" y="205" text-anchor="middle" fill="#fff" font-size="14" font-weight="bold">2</text></g>
    <g class="callout"><circle cx="1152" cy="560" r="14" fill="#dc2626"/><text x="1152" y="565" text-anchor="middle" fill="#fff" font-size="14" font-weight="bold">3</text></g>
    <g class="callout"><circle cx="640" cy="270" r="14" fill="#dc2626"/><text x="640" y="275" text-anchor="middle" fill="#fff" font-size="14" font-weight="bold">4</text></g>
  </g>

  <!-- MOBILE 360x720 -->
  <g id="mobile" transform="translate(1360, 60)">
    <rect width="360" height="720" rx="24" fill="#e8d4b8" stroke="#b8a080"/>
    <use href="includes/header-mobile.svg#mobile-header-group" x="0" y="0"/>

    <!-- Page heading -->
    <text x="180" y="118" text-anchor="middle" font-family="system-ui, sans-serif" font-size="18" font-weight="bold" fill="#1f2937">3D Game</text>

    <!-- Mobile canvas region -->
    <rect x="16" y="138" width="328" height="320" rx="8" fill="url(#sceneSkyMobile)" stroke="#b8a080"/>

    <!-- Mobile sculpt: same three brand SVG symbols at smaller scale.
         Cog reference: 140x140 centered at (160, 300) → corner (90, 230). -->

    <!-- Ground shadow -->
    <ellipse cx="160" cy="408" rx="80" ry="8" fill="#b8a080" opacity="0.5"/>

    <!-- Mobile Layer 1 (BACK): printing-mallet (65% = 91, offset to corner (104, 244)). -->
    <use href="#brand-printing-mallet" x="104" y="244" width="91" height="91"/>

    <!-- Mobile Layer 2 (MIDDLE): silver cog ring (140x140, centered at 160,300). -->
    <use href="#brand-cog" x="90" y="230" width="140" height="140"/>

    <!-- Mobile Layer 3 (FRONT): script-tag brackets (95x95, centered). -->
    <use href="#brand-script-tags" x="112" y="252" width="95" height="95"/>


    <!-- Auto-orbit motion arc -->
    <ellipse cx="160" cy="300" rx="120" ry="20" fill="none" stroke="#8b5cf6" stroke-width="1.5" stroke-dasharray="4 4" opacity="0.7"/>

    <!-- Touch hint chip (44px tall) -->
    <rect x="16" y="476" width="328" height="44" rx="22" fill="#f5f0e6" stroke="#b8a080"/>
    <text x="180" y="503" text-anchor="middle" font-family="system-ui, sans-serif" font-size="14" fill="#374151">Pinch to zoom · Drag to orbit</text>

    <!-- Auto-orbit chip mobile -->
    <rect x="16" y="532" width="328" height="44" rx="22" fill="#22c55e"/>
    <circle cx="40" cy="554" r="6" fill="#f5f0e6"/>
    <text x="180" y="559" text-anchor="middle" font-family="system-ui, sans-serif" font-size="14" font-weight="600" fill="#f5f0e6">Auto-orbit on (resumes after 3s idle)</text>

    <!-- Status row -->
    <text x="180" y="608" text-anchor="middle" font-family="system-ui, sans-serif" font-size="14" fill="#1f2937">DPR capped [1,2] · WebGL OK</text>

    <use href="includes/footer-mobile.svg#mobile-bottom-nav" x="0" y="664"/>

    <!-- Mobile callouts -->
    <g class="callout"><circle cx="160" cy="300" r="11" fill="#dc2626"/><text x="160" y="305" text-anchor="middle" fill="#fff" font-size="14" font-weight="bold">1</text></g>
    <g class="callout"><circle cx="160" cy="240" r="11" fill="#dc2626"/><text x="160" y="245" text-anchor="middle" fill="#fff" font-size="14" font-weight="bold">5</text></g>
  </g>

  <!-- ANNOTATION PANEL -->
  <g id="annotations" transform="translate(40, 800)">
    <rect width="1840" height="220" rx="8" fill="#dcc8a8" stroke="#b8a080"/>

    <!-- Group 1 - Canvas mount + orbit controls -->
    <g transform="translate(20, 16)">
      <circle cx="14" cy="14" r="12" fill="#dc2626"/>
      <text x="14" y="19" text-anchor="middle" fill="#fff" font-size="14" font-weight="bold">1</text>
      <text x="38" y="19" font-family="system-ui, sans-serif" font-size="14" font-weight="700" fill="#1f2937">Canvas mount + orbit controls</text>
      <a href="#us-001" transform="translate(310, 5)"><rect width="56" height="22" rx="11" fill="#0891b2"/><text x="28" y="17" text-anchor="middle" fill="#f5f0e6" font-size="14" font-weight="700">US-001</text></a>
      <a href="#fr-005" transform="translate(372, 5)"><rect width="56" height="22" rx="11" fill="#2563eb"/><text x="28" y="17" text-anchor="middle" fill="#f5f0e6" font-size="14" font-weight="700">FR-005</text></a>
      <a href="#sc-001" transform="translate(434, 5)"><rect width="56" height="22" rx="11" fill="#ea580c"/><text x="28" y="17" text-anchor="middle" fill="#f5f0e6" font-size="14" font-weight="700">SC-001</text></a>
      <text x="38" y="44" font-family="system-ui, sans-serif" font-size="14" fill="#374151">Dynamic-import-no-SSR. drei OrbitControls;</text>
      <text x="38" y="62" font-family="system-ui, sans-serif" font-size="14" fill="#374151">polar angle &amp; zoom bounded; 360° yaw.</text>
    </g>

    <!-- Group 2 - Theme-aware materials -->
    <g transform="translate(520, 16)">
      <circle cx="14" cy="14" r="12" fill="#dc2626"/>
      <text x="14" y="19" text-anchor="middle" fill="#fff" font-size="14" font-weight="bold">2</text>
      <text x="38" y="19" font-family="system-ui, sans-serif" font-size="14" font-weight="700" fill="#1f2937">Theme-aware materials</text>
      <a href="#us-002" transform="translate(260, 5)"><rect width="56" height="22" rx="11" fill="#0891b2"/><text x="28" y="17" text-anchor="middle" fill="#f5f0e6" font-size="14" font-weight="700">US-002</text></a>
      <a href="#fr-002" transform="translate(322, 5)"><rect width="56" height="22" rx="11" fill="#2563eb"/><text x="28" y="17" text-anchor="middle" fill="#f5f0e6" font-size="14" font-weight="700">FR-002</text></a>
      <a href="#fr-003" transform="translate(384, 5)"><rect width="56" height="22" rx="11" fill="#2563eb"/><text x="28" y="17" text-anchor="middle" fill="#f5f0e6" font-size="14" font-weight="700">FR-003</text></a>
      <a href="#sc-002" transform="translate(446, 5)"><rect width="56" height="22" rx="11" fill="#ea580c"/><text x="28" y="17" text-anchor="middle" fill="#f5f0e6" font-size="14" font-weight="700">SC-002</text></a>
      <text x="38" y="44" font-family="system-ui, sans-serif" font-size="14" fill="#374151">Reads DaisyUI CSS custom props (--p, --s,</text>
      <text x="38" y="62" font-family="system-ui, sans-serif" font-size="14" fill="#374151">--b1); MutationObserver on data-theme.</text>
    </g>

    <!-- Group 3 - Auto-orbit + reduced motion -->
    <g transform="translate(1020, 16)">
      <circle cx="14" cy="14" r="12" fill="#dc2626"/>
      <text x="14" y="19" text-anchor="middle" fill="#fff" font-size="14" font-weight="bold">3</text>
      <text x="38" y="19" font-family="system-ui, sans-serif" font-size="14" font-weight="700" fill="#1f2937">Auto-orbit + reduced motion</text>
      <a href="#us-003" transform="translate(290, 5)"><rect width="56" height="22" rx="11" fill="#0891b2"/><text x="28" y="17" text-anchor="middle" fill="#f5f0e6" font-size="14" font-weight="700">US-003</text></a>
      <a href="#fr-004" transform="translate(352, 5)"><rect width="56" height="22" rx="11" fill="#2563eb"/><text x="28" y="17" text-anchor="middle" fill="#f5f0e6" font-size="14" font-weight="700">FR-004</text></a>
      <a href="#sc-010" transform="translate(414, 5)"><rect width="56" height="22" rx="11" fill="#ea580c"/><text x="28" y="17" text-anchor="middle" fill="#f5f0e6" font-size="14" font-weight="700">SC-010</text></a>
      <text x="38" y="44" font-family="system-ui, sans-serif" font-size="14" fill="#374151">Auto-orbit suspends on input, resumes after</text>
      <text x="38" y="62" font-family="system-ui, sans-serif" font-size="14" fill="#374151">3s idle. Disabled under reduce-motion.</text>
    </g>

    <!-- Group 4 - Procedural sculpt (no .glb) -->
    <g transform="translate(20, 116)">
      <circle cx="14" cy="14" r="12" fill="#dc2626"/>
      <text x="14" y="19" text-anchor="middle" fill="#fff" font-size="14" font-weight="bold">4</text>
      <text x="38" y="19" font-family="system-ui, sans-serif" font-size="14" font-weight="700" fill="#1f2937">Procedural sculpt only (no .glb)</text>
      <a href="#us-001" transform="translate(310, 5)"><rect width="56" height="22" rx="11" fill="#0891b2"/><text x="28" y="17" text-anchor="middle" fill="#f5f0e6" font-size="14" font-weight="700">US-001</text></a>
      <a href="#fr-007" transform="translate(372, 5)"><rect width="56" height="22" rx="11" fill="#2563eb"/><text x="28" y="17" text-anchor="middle" fill="#f5f0e6" font-size="14" font-weight="700">FR-007</text></a>
      <text x="38" y="44" font-family="system-ui, sans-serif" font-size="14" fill="#374151">v1 = hammer + anvil + DaisyUI accent orbs.</text>
      <text x="38" y="62" font-family="system-ui, sans-serif" font-size="14" fill="#374151">Boxes, cylinders, tori only. No asset import.</text>
    </g>

    <!-- Group 5 - Mobile touch + DPR cap -->
    <g transform="translate(520, 116)">
      <circle cx="14" cy="14" r="12" fill="#dc2626"/>
      <text x="14" y="19" text-anchor="middle" fill="#fff" font-size="14" font-weight="bold">5</text>
      <text x="38" y="19" font-family="system-ui, sans-serif" font-size="14" font-weight="700" fill="#1f2937">Mobile touch + DPR cap</text>
      <a href="#us-005" transform="translate(260, 5)"><rect width="56" height="22" rx="11" fill="#0891b2"/><text x="28" y="17" text-anchor="middle" fill="#f5f0e6" font-size="14" font-weight="700">US-005</text></a>
      <a href="#fr-005" transform="translate(322, 5)"><rect width="56" height="22" rx="11" fill="#2563eb"/><text x="28" y="17" text-anchor="middle" fill="#f5f0e6" font-size="14" font-weight="700">FR-005</text></a>
      <a href="#nfr-004" transform="translate(384, 5)"><rect width="64" height="22" rx="11" fill="#2563eb"/><text x="32" y="17" text-anchor="middle" fill="#f5f0e6" font-size="14" font-weight="700">NFR-004</text></a>
      <text x="38" y="44" font-family="system-ui, sans-serif" font-size="14" fill="#374151">Touch-drag orbits via drei. DPR capped</text>
      <text x="38" y="62" font-family="system-ui, sans-serif" font-size="14" fill="#374151">[1, 2] to bound GPU on high-DPR devices.</text>
    </g>

    <!-- Status legend -->
    <g transform="translate(1020, 116)">
      <text x="0" y="19" font-family="system-ui, sans-serif" font-size="14" font-weight="700" fill="#1f2937">Status bar legend</text>
      <text x="0" y="44" font-family="system-ui, sans-serif" font-size="14" fill="#374151">Theme, DPR, and reduced-motion preference</text>
      <text x="0" y="62" font-family="system-ui, sans-serif" font-size="14" fill="#374151">surface in the canvas footer for debugging.</text>
    </g>
  </g>

  <!-- Signature -->
  <text x="40" y="1060" font-family="system-ui, sans-serif" font-size="18" font-weight="bold" fill="#4b5563">047:01 | Three.js Game - Main | ScriptHammer</text>
</svg>
