<?xml version="1.0" encoding="UTF-8"?>
<svg xmlns="http://www.w3.org/2000/svg" viewBox="0 0 1920 1080" width="1920" height="1080">
  <defs>
    <linearGradient id="bg" x1="0%" y1="0%" x2="0%" y2="100%">
      <stop offset="0%" stop-color="#c7ddf5"/>
      <stop offset="100%" stop-color="#b8d4f0"/>
    </linearGradient>
  </defs>

  <!-- Background + title come EARLY in the file so the validator's 2000-char
       G-024/SECTION-001 scan window catches them. Brand symbols come right after. -->
  <rect width="1920" height="1080" fill="url(#bg)"/>
  <text x="960" y="28" text-anchor="middle" font-family="system-ui, sans-serif" font-size="18" font-weight="700" fill="#4b5563" letter-spacing="1">3D GAME (THREE.JS SCENE) - /game/3d (FALLBACK)</text>
  <text x="40" y="52" fill="#8b5cf6" font-family="system-ui, sans-serif" font-size="18" font-weight="bold">DESKTOP (16:9)</text>
  <text x="1500" y="52" fill="#d946ef" font-family="system-ui, sans-serif" font-size="15" font-weight="bold">MOBILE</text>

  <defs>
    <!-- Brand symbol: cog ring (geometry copied verbatim from public/scripthammer-logo.svg). -->
    <symbol id="brand-cog" viewBox="0 0 400 400">
      <g transform="translate(200, 200)">
        <g fill="#c0c0c0" stroke="#888888" stroke-width="0.5">
          <path d="M -10,-179 L -15,-195 L 15,-195 L 10,-179 Z" transform="rotate(0)"/>
          <path d="M -10,-179 L -15,-195 L 15,-195 L 10,-179 Z" transform="rotate(18)"/>
          <path d="M -10,-179 L -15,-195 L 15,-195 L 10,-179 Z" transform="rotate(36)"/>
          <path d="M -10,-179 L -15,-195 L 15,-195 L 10,-179 Z" transform="rotate(54)"/>
          <path d="M -10,-179 L -15,-195 L 15,-195 L 10,-179 Z" transform="rotate(72)"/>
          <path d="M -10,-179 L -15,-195 L 15,-195 L 10,-179 Z" transform="rotate(90)"/>
          <path d="M -10,-179 L -15,-195 L 15,-195 L 10,-179 Z" transform="rotate(108)"/>
          <path d="M -10,-179 L -15,-195 L 15,-195 L 10,-179 Z" transform="rotate(126)"/>
          <path d="M -10,-179 L -15,-195 L 15,-195 L 10,-179 Z" transform="rotate(144)"/>
          <path d="M -10,-179 L -15,-195 L 15,-195 L 10,-179 Z" transform="rotate(162)"/>
          <path d="M -10,-179 L -15,-195 L 15,-195 L 10,-179 Z" transform="rotate(180)"/>
          <path d="M -10,-179 L -15,-195 L 15,-195 L 10,-179 Z" transform="rotate(198)"/>
          <path d="M -10,-179 L -15,-195 L 15,-195 L 10,-179 Z" transform="rotate(216)"/>
          <path d="M -10,-179 L -15,-195 L 15,-195 L 10,-179 Z" transform="rotate(234)"/>
          <path d="M -10,-179 L -15,-195 L 15,-195 L 10,-179 Z" transform="rotate(252)"/>
          <path d="M -10,-179 L -15,-195 L 15,-195 L 10,-179 Z" transform="rotate(270)"/>
          <path d="M -10,-179 L -15,-195 L 15,-195 L 10,-179 Z" transform="rotate(288)"/>
          <path d="M -10,-179 L -15,-195 L 15,-195 L 10,-179 Z" transform="rotate(306)"/>
          <path d="M -10,-179 L -15,-195 L 15,-195 L 10,-179 Z" transform="rotate(324)"/>
          <path d="M -10,-179 L -15,-195 L 15,-195 L 10,-179 Z" transform="rotate(342)"/>
        </g>
        <circle cx="0" cy="0" r="183" fill="none" stroke="#888888" stroke-width="1" opacity="0.7"/>
        <circle cx="0" cy="0" r="175" fill="none" stroke="#b0b0b0" stroke-width="10"/>
        <circle cx="0" cy="0" r="165" fill="none" stroke="#888888" stroke-width="2" opacity="0.8"/>
        <circle cx="0" cy="0" r="162" fill="none" stroke="#c0c0c0" stroke-width="0.5" opacity="0.6"/>
      </g>
      <g transform="translate(200, 200)" fill="#888888">
        <g transform="rotate(9)"><circle cx="0" cy="-171" r="2.5"/></g>
        <g transform="rotate(27)"><circle cx="0" cy="-171" r="2.5"/></g>
        <g transform="rotate(45)"><circle cx="0" cy="-171" r="2.5"/></g>
        <g transform="rotate(63)"><circle cx="0" cy="-171" r="2.5"/></g>
        <g transform="rotate(81)"><circle cx="0" cy="-171" r="2.5"/></g>
        <g transform="rotate(99)"><circle cx="0" cy="-171" r="2.5"/></g>
        <g transform="rotate(117)"><circle cx="0" cy="-171" r="2.5"/></g>
        <g transform="rotate(135)"><circle cx="0" cy="-171" r="2.5"/></g>
        <g transform="rotate(153)"><circle cx="0" cy="-171" r="2.5"/></g>
        <g transform="rotate(171)"><circle cx="0" cy="-171" r="2.5"/></g>
        <g transform="rotate(189)"><circle cx="0" cy="-171" r="2.5"/></g>
        <g transform="rotate(207)"><circle cx="0" cy="-171" r="2.5"/></g>
        <g transform="rotate(225)"><circle cx="0" cy="-171" r="2.5"/></g>
        <g transform="rotate(243)"><circle cx="0" cy="-171" r="2.5"/></g>
        <g transform="rotate(261)"><circle cx="0" cy="-171" r="2.5"/></g>
        <g transform="rotate(279)"><circle cx="0" cy="-171" r="2.5"/></g>
        <g transform="rotate(297)"><circle cx="0" cy="-171" r="2.5"/></g>
        <g transform="rotate(315)"><circle cx="0" cy="-171" r="2.5"/></g>
        <g transform="rotate(333)"><circle cx="0" cy="-171" r="2.5"/></g>
        <g transform="rotate(351)"><circle cx="0" cy="-171" r="2.5"/></g>
      </g>
    </symbol>

    <!-- Brand symbol: golden code-tag brackets (geometry copied verbatim from public/script-tags.svg). -->
    <symbol id="brand-script-tags" viewBox="0 0 400 400">
      <g transform="translate(200, 200)">
        <g transform="translate(-75, 0)">
          <path d="M 45 -120 L -45 0 L 45 120" stroke="#8B4513" stroke-width="18" fill="none" stroke-linecap="round" stroke-linejoin="round" opacity="0.4" transform="translate(3, 3)"/>
          <path d="M 45 -120 L -45 0 L 45 120" stroke="#CD853F" stroke-width="18" fill="none" stroke-linecap="round" stroke-linejoin="round"/>
          <path d="M 45 -120 L -45 0 L 45 120" stroke="#FFD700" stroke-width="10" fill="none" stroke-linecap="round" stroke-linejoin="round" opacity="0.7"/>
          <path d="M 42 -115 L -40 0 L 42 115" stroke="#FFDF00" stroke-width="3" fill="none" stroke-linecap="round" stroke-linejoin="round" opacity="0.5"/>
        </g>
        <g transform="translate(75, 0)">
          <path d="M -45 -120 L 45 0 L -45 120" stroke="#8B4513" stroke-width="18" fill="none" stroke-linecap="round" stroke-linejoin="round" opacity="0.4" transform="translate(3, 3)"/>
          <path d="M -45 -120 L 45 0 L -45 120" stroke="#CD853F" stroke-width="18" fill="none" stroke-linecap="round" stroke-linejoin="round"/>
          <path d="M -45 -120 L 45 0 L -45 120" stroke="#FFD700" stroke-width="10" fill="none" stroke-linecap="round" stroke-linejoin="round" opacity="0.7"/>
          <path d="M -42 -115 L 40 0 L -42 115" stroke="#FFDF00" stroke-width="3" fill="none" stroke-linecap="round" stroke-linejoin="round" opacity="0.5"/>
        </g>
      </g>
    </symbol>

    <!-- Brand symbol: printing-mallet (geometry copied verbatim from public/printing-mallet.svg). -->
    <symbol id="brand-printing-mallet" viewBox="0 0 400 400">
      <ellipse cx="200" cy="358" rx="105" ry="14" fill="#000000" opacity="0.15"/>
      <ellipse cx="200" cy="358" rx="70" ry="9" fill="#000000" opacity="0.12"/>
      <g transform="rotate(42, 200, 200)">
        <polygon points="138,72 256,72 266,100 128,100" fill="#C9A876" stroke="#5B4530" stroke-width="1.2"/>
        <polygon points="128,100 266,100 256,168 138,168" fill="#A88660" stroke="#5B4530" stroke-width="1.4"/>
        <polygon points="266,100 286,80 276,148 256,168" fill="#7A5F40" stroke="#5B4530" stroke-width="1.2"/>
        <polygon points="193,82 207,82 209,98 191,98" fill="#D8C49A" stroke="#5B4530" stroke-width="0.9"/>
        <path d="M194,168 L206,168 L210,308 L190,308 Z" fill="#D4B585" stroke="#7A5F40" stroke-width="1"/>
        <path d="M203,170 L206,168 L210,308 L208,308 Z" fill="#8B6F47" opacity="0.55"/>
        <path d="M196,168 L194,168 L190,308 L192,308 Z" fill="#E8D2A0" opacity="0.45"/>
        <ellipse cx="200" cy="308" rx="10" ry="2.5" fill="#7A5F40"/>
      </g>
    </symbol>
  </defs>


  <!-- DESKTOP 1280x720 -->
  <g id="desktop" transform="translate(40, 60)">
    <rect width="1280" height="720" rx="8" fill="#e8d4b8" stroke="#b8a080"/>
    <use href="includes/header-desktop.svg#desktop-header" x="0" y="0"/>

    <!-- Page heading + breadcrumb -->
    <text x="32" y="92" font-family="system-ui, sans-serif" font-size="22" font-weight="bold" fill="#1f2937">3D Game (Three.js)</text>
    <text x="32" y="116" font-family="system-ui, sans-serif" font-size="14" fill="#4b5563"><tspan fill="#8b5cf6" text-decoration="underline">/game</tspan> / 3d</text>

    <!-- Fallback panel (centered, replaces the canvas region) -->
    <rect x="240" y="148" width="800" height="436" rx="12" fill="#dcc8a8" stroke="#b8a080" stroke-width="2"/>

    <!-- Themed silhouette: the same three canonical brand <symbol>s referenced via <use>,
         dimmed via group opacity to read as "off / unavailable".
         Cog reference: 240x240 centered at (640, 260) → corner (520, 140). -->
    <g opacity="0.5">
      <!-- Layer 1 (BACK): printing-mallet (65% = 156, offset to corner (552, 162)). -->
      <use href="#brand-printing-mallet" x="552" y="162" width="156" height="156"/>
      <!-- Layer 2 (MIDDLE): silver cog ring (240x240, centered at 640,260). -->
      <use href="#brand-cog" x="520" y="140" width="240" height="240"/>
      <!-- Layer 3 (FRONT): script-tag brackets (163x163, centered). -->
      <use href="#brand-script-tags" x="559" y="178" width="163" height="163"/>
    </g>

    <!-- Diagonal "stripe" pattern over silhouette to hint at "unavailable" -->
    <g opacity="0.18">
      <line x1="260" y1="160" x2="1020" y2="572" stroke="#374151" stroke-width="3"/>
    </g>

    <!-- Headline -->
    <text x="640" y="426" text-anchor="middle" font-family="system-ui, sans-serif" font-size="24" font-weight="bold" fill="#1f2937">3D Content Unavailable</text>

    <!-- Body -->
    <text x="640" y="456" text-anchor="middle" font-family="system-ui, sans-serif" font-size="14" fill="#374151">3D content requires WebGL. Your browser does not support it,</text>
    <text x="640" y="474" text-anchor="middle" font-family="system-ui, sans-serif" font-size="14" fill="#374151">or the graphics context was lost.</text>

    <!-- Retry button (44x44 minimum, primary purple) -->
    <a href="#retry">
      <rect x="540" y="502" width="200" height="44" rx="6" fill="#8b5cf6"/>
      <text x="640" y="530" text-anchor="middle" font-family="system-ui, sans-serif" font-size="14" font-weight="600" fill="#f5f0e6">Retry</text>
    </a>

    <!-- Secondary note (WCAG / a11y) -->
    <text x="640" y="566" text-anchor="middle" font-family="system-ui, sans-serif" font-size="14" fill="#4b5563">No auto-retry — user-initiated only · 3D content excluded from Pa11y scans</text>

    <!-- Status bar -->
    <rect x="32" y="600" width="1216" height="40" rx="6" fill="#dcc8a8" stroke="#b8a080"/>
    <text x="48" y="625" font-family="system-ui, sans-serif" font-size="14" fill="#1f2937">WebGL: <tspan font-weight="600" fill="#dc2626">unavailable</tspan> · webglcontextlost: <tspan font-weight="600">handled</tspan> · keyboard: <tspan font-weight="600">Retry focusable</tspan></text>

    <use href="includes/footer-desktop.svg#site-footer" x="0" y="640"/>

    <!-- Callouts (positioned to NOT overlap interactive elements) -->
    <g class="callout"><circle cx="640" cy="180" r="14" fill="#dc2626"/><text x="640" y="185" text-anchor="middle" fill="#fff" font-size="14" font-weight="bold">1</text></g>
    <g class="callout"><circle cx="770" cy="524" r="14" fill="#dc2626"/><text x="770" y="529" text-anchor="middle" fill="#fff" font-size="14" font-weight="bold">2</text></g>
    <g class="callout"><circle cx="1180" cy="568" r="14" fill="#dc2626"/><text x="1180" y="573" text-anchor="middle" fill="#fff" font-size="14" font-weight="bold">3</text></g>
    <g class="callout"><circle cx="220" cy="416" r="14" fill="#dc2626"/><text x="220" y="421" text-anchor="middle" fill="#fff" font-size="14" font-weight="bold">4</text></g>
    <g class="callout"><circle cx="1060" cy="416" r="14" fill="#dc2626"/><text x="1060" y="421" text-anchor="middle" fill="#fff" font-size="14" font-weight="bold">5</text></g>
    <g class="callout"><circle cx="270" cy="280" r="14" fill="#dc2626"/><text x="270" y="285" text-anchor="middle" fill="#fff" font-size="14" font-weight="bold">6</text></g>
  </g>

  <!-- MOBILE 360x720 -->
  <g id="mobile" transform="translate(1360, 60)">
    <rect width="360" height="720" rx="24" fill="#e8d4b8" stroke="#b8a080"/>
    <use href="includes/header-mobile.svg#mobile-header-group" x="0" y="0"/>

    <!-- Page heading -->
    <text x="180" y="118" text-anchor="middle" font-family="system-ui, sans-serif" font-size="18" font-weight="bold" fill="#1f2937">3D Game</text>

    <!-- Fallback panel (stacked on mobile) -->
    <rect x="16" y="138" width="328" height="440" rx="8" fill="#dcc8a8" stroke="#b8a080" stroke-width="1.5"/>

    <!-- Mobile silhouette: same three brand <symbol>s at smaller scale.
         Cog reference: 116x116 centered at (150, 230) → corner (92, 172). -->
    <g opacity="0.5">
      <use href="#brand-printing-mallet" x="108" y="184" width="75" height="75"/>
      <use href="#brand-cog" x="92" y="172" width="116" height="116"/>
      <use href="#brand-script-tags" x="110" y="190" width="79" height="79"/>
    </g>

    <!-- Headline -->
    <text x="180" y="366" text-anchor="middle" font-family="system-ui, sans-serif" font-size="18" font-weight="bold" fill="#1f2937">3D Content</text>
    <text x="180" y="388" text-anchor="middle" font-family="system-ui, sans-serif" font-size="18" font-weight="bold" fill="#1f2937">Unavailable</text>

    <!-- Body -->
    <text x="180" y="418" text-anchor="middle" font-family="system-ui, sans-serif" font-size="14" fill="#374151">WebGL is required. Your browser</text>
    <text x="180" y="436" text-anchor="middle" font-family="system-ui, sans-serif" font-size="14" fill="#374151">does not support it, or the</text>
    <text x="180" y="454" text-anchor="middle" font-family="system-ui, sans-serif" font-size="14" fill="#374151">graphics context was lost.</text>

    <!-- Retry button (44x44) -->
    <a href="#retry">
      <rect x="80" y="484" width="200" height="44" rx="6" fill="#8b5cf6"/>
      <text x="180" y="512" text-anchor="middle" font-family="system-ui, sans-serif" font-size="14" font-weight="600" fill="#f5f0e6">Retry</text>
    </a>

    <!-- Note -->
    <text x="180" y="548" text-anchor="middle" font-family="system-ui, sans-serif" font-size="14" fill="#4b5563">User-initiated retry only.</text>
    <text x="180" y="566" text-anchor="middle" font-family="system-ui, sans-serif" font-size="14" fill="#4b5563">No auto-retry on context loss.</text>

    <!-- Status -->
    <text x="180" y="610" text-anchor="middle" font-family="system-ui, sans-serif" font-size="14" fill="#1f2937">WebGL: <tspan font-weight="600" fill="#dc2626">unavailable</tspan></text>

    <use href="includes/footer-mobile.svg#mobile-bottom-nav" x="0" y="664"/>

    <!-- Mobile callouts (positioned to NOT overlap the Retry button) -->
    <g class="callout"><circle cx="180" cy="160" r="11" fill="#dc2626"/><text x="180" y="165" text-anchor="middle" fill="#fff" font-size="14" font-weight="bold">1</text></g>
    <g class="callout"><circle cx="304" cy="506" r="11" fill="#dc2626"/><text x="304" y="511" text-anchor="middle" fill="#fff" font-size="14" font-weight="bold">2</text></g>
  </g>

  <!-- ANNOTATION PANEL -->
  <g id="annotations" transform="translate(40, 800)">
    <rect width="1840" height="220" rx="8" fill="#dcc8a8" stroke="#b8a080"/>

    <!-- Group 1 - Themed silhouette fallback panel -->
    <g transform="translate(20, 16)">
      <circle cx="14" cy="14" r="12" fill="#dc2626"/>
      <text x="14" y="19" text-anchor="middle" fill="#fff" font-size="14" font-weight="bold">1</text>
      <text x="38" y="19" font-family="system-ui, sans-serif" font-size="14" font-weight="700" fill="#1f2937">Themed silhouette fallback panel</text>
      <a href="#fr-008" transform="translate(330, 5)"><rect width="56" height="22" rx="11" fill="#2563eb"/><text x="28" y="17" text-anchor="middle" fill="#f5f0e6" font-size="14" font-weight="700">FR-008</text></a>
      <a href="#sc-009" transform="translate(392, 5)"><rect width="56" height="22" rx="11" fill="#ea580c"/><text x="28" y="17" text-anchor="middle" fill="#f5f0e6" font-size="14" font-weight="700">SC-009</text></a>
      <text x="38" y="44" font-family="system-ui, sans-serif" font-size="14" fill="#374151">CSS/SVG hammer + anvil silhouette using</text>
      <text x="38" y="62" font-family="system-ui, sans-serif" font-size="14" fill="#374151">DaisyUI color tokens. No canvas, no WebGL.</text>
    </g>

    <!-- Group 2 - Retry button (no auto-retry) -->
    <g transform="translate(520, 16)">
      <circle cx="14" cy="14" r="12" fill="#dc2626"/>
      <text x="14" y="19" text-anchor="middle" fill="#fff" font-size="14" font-weight="bold">2</text>
      <text x="38" y="19" font-family="system-ui, sans-serif" font-size="14" font-weight="700" fill="#1f2937">Retry button - user-initiated only</text>
      <a href="#fr-008" transform="translate(310, 5)"><rect width="56" height="22" rx="11" fill="#2563eb"/><text x="28" y="17" text-anchor="middle" fill="#f5f0e6" font-size="14" font-weight="700">FR-008</text></a>
      <a href="#sc-009" transform="translate(372, 5)"><rect width="56" height="22" rx="11" fill="#ea580c"/><text x="28" y="17" text-anchor="middle" fill="#f5f0e6" font-size="14" font-weight="700">SC-009</text></a>
      <text x="38" y="44" font-family="system-ui, sans-serif" font-size="14" fill="#374151">44×44 button, keyboard-focusable. Triggers</text>
      <text x="38" y="62" font-family="system-ui, sans-serif" font-size="14" fill="#374151">canvas re-mount. No silent auto-retry.</text>
    </g>

    <!-- Group 3 - Pa11y exclusion -->
    <g transform="translate(1020, 16)">
      <circle cx="14" cy="14" r="12" fill="#dc2626"/>
      <text x="14" y="19" text-anchor="middle" fill="#fff" font-size="14" font-weight="bold">3</text>
      <text x="38" y="19" font-family="system-ui, sans-serif" font-size="14" font-weight="700" fill="#1f2937">Pa11y exclusion (manual a11y review)</text>
      <a href="#us-004" transform="translate(320, 5)"><rect width="56" height="22" rx="11" fill="#0891b2"/><text x="28" y="17" text-anchor="middle" fill="#f5f0e6" font-size="14" font-weight="700">US-004</text></a>
      <a href="#sc-006" transform="translate(382, 5)"><rect width="56" height="22" rx="11" fill="#ea580c"/><text x="28" y="17" text-anchor="middle" fill="#f5f0e6" font-size="14" font-weight="700">SC-006</text></a>
      <text x="38" y="44" font-family="system-ui, sans-serif" font-size="14" fill="#374151">/game/3d excluded from Pa11y (canvas not</text>
      <text x="38" y="62" font-family="system-ui, sans-serif" font-size="14" fill="#374151">auditable). Fallback panel is auditable.</text>
    </g>

    <!-- Group 4 - State legend (anchored to US-001 - degraded path of visit) -->
    <g transform="translate(20, 116)">
      <circle cx="14" cy="14" r="12" fill="#dc2626"/>
      <text x="14" y="19" text-anchor="middle" fill="#fff" font-size="14" font-weight="bold">4</text>
      <text x="38" y="19" font-family="system-ui, sans-serif" font-size="14" font-weight="700" fill="#1f2937">When the fallback renders</text>
      <a href="#us-001" transform="translate(280, 5)"><rect width="56" height="22" rx="11" fill="#0891b2"/><text x="28" y="17" text-anchor="middle" fill="#f5f0e6" font-size="14" font-weight="700">US-001</text></a>
      <text x="38" y="44" font-family="system-ui, sans-serif" font-size="14" fill="#374151">Triggers: (a) WebGL not available at mount,</text>
      <text x="38" y="62" font-family="system-ui, sans-serif" font-size="14" fill="#374151">(b) `webglcontextlost` event fires at runtime.</text>
    </g>

    <!-- Group 5 - A11y of the fallback itself (anchored to US-004 - Pa11y baseline) -->
    <g transform="translate(520, 116)">
      <circle cx="14" cy="14" r="12" fill="#dc2626"/>
      <text x="14" y="19" text-anchor="middle" fill="#fff" font-size="14" font-weight="bold">5</text>
      <text x="38" y="19" font-family="system-ui, sans-serif" font-size="14" font-weight="700" fill="#1f2937">Fallback is Pa11y-auditable</text>
      <a href="#us-004" transform="translate(264, 5)"><rect width="56" height="22" rx="11" fill="#0891b2"/><text x="28" y="17" text-anchor="middle" fill="#f5f0e6" font-size="14" font-weight="700">US-004</text></a>
      <text x="38" y="44" font-family="system-ui, sans-serif" font-size="14" fill="#374151">Headings, body copy, Retry button: all</text>
      <text x="38" y="62" font-family="system-ui, sans-serif" font-size="14" fill="#374151">standard DOM. Pa11y exclusion scopes to canvas.</text>
    </g>

    <!-- Group 6 - Visual cue (diagonal stripe) (anchored to US-002 - theme consistency) -->
    <g transform="translate(1020, 116)">
      <circle cx="14" cy="14" r="12" fill="#dc2626"/>
      <text x="14" y="19" text-anchor="middle" fill="#fff" font-size="14" font-weight="bold">6</text>
      <text x="38" y="19" font-family="system-ui, sans-serif" font-size="14" font-weight="700" fill="#1f2937">Silhouette uses opacity to read as "off"</text>
      <a href="#us-002" transform="translate(330, 5)"><rect width="56" height="22" rx="11" fill="#0891b2"/><text x="28" y="17" text-anchor="middle" fill="#f5f0e6" font-size="14" font-weight="700">US-002</text></a>
      <text x="38" y="44" font-family="system-ui, sans-serif" font-size="14" fill="#374151">85% opacity + thin diagonal line cue convey</text>
      <text x="38" y="62" font-family="system-ui, sans-serif" font-size="14" fill="#374151">"3D unavailable" without alarming red iconography.</text>
    </g>
  </g>

  <!-- Signature -->
  <text x="40" y="1060" font-family="system-ui, sans-serif" font-size="18" font-weight="bold" fill="#4b5563">047:02 | Three.js Game - Fallback | ScriptHammer</text>
</svg>
