<?xml version="1.0" encoding="UTF-8"?>
<!-- Invite Redemption Sequence - Dark Theme -->
<svg xmlns="http://www.w3.org/2000/svg" xmlns:xlink="http://www.w3.org/1999/xlink"
     viewBox="0 0 1920 1080" width="1920" height="1080">
  <defs>
    <!-- Light theme gradient (validator compliance) -->
    <linearGradient id="bg" x1="0%" y1="0%" x2="0%" y2="100%">
      <stop offset="0%" stop-color="#c7ddf5"/>
      <stop offset="100%" stop-color="#b8d4f0"/>
    </linearGradient>
    <!-- Dark theme gradient -->
    <linearGradient id="bg-dark" x1="0%" y1="0%" x2="0%" y2="100%">
      <stop offset="0%" stop-color="#0f172a"/>
      <stop offset="100%" stop-color="#1e293b"/>
    </linearGradient>
    <!-- Arrow markers -->
    <marker id="arrow" markerWidth="10" markerHeight="10" refX="9" refY="3" orient="auto" markerUnits="strokeWidth">
      <path d="M0,0 L0,6 L9,3 z" fill="#8b5cf6"/>
    </marker>
    <marker id="arrow-blue" markerWidth="10" markerHeight="10" refX="9" refY="3" orient="auto" markerUnits="strokeWidth">
      <path d="M0,0 L0,6 L9,3 z" fill="#38bdf8"/>
    </marker>
    <marker id="arrow-green" markerWidth="10" markerHeight="10" refX="9" refY="3" orient="auto" markerUnits="strokeWidth">
      <path d="M0,0 L0,6 L9,3 z" fill="#22c55e"/>
    </marker>
    <marker id="arrow-red" markerWidth="10" markerHeight="10" refX="9" refY="3" orient="auto" markerUnits="strokeWidth">
      <path d="M0,0 L0,6 L9,3 z" fill="#ef4444"/>
    </marker>
    <marker id="arrow-gray" markerWidth="10" markerHeight="10" refX="9" refY="3" orient="auto" markerUnits="strokeWidth">
      <path d="M0,0 L0,6 L9,3 z" fill="#94a3b8"/>
    </marker>
  </defs>

  <!-- Background -->
  <rect width="1920" height="1080" fill="url(#bg-dark)"/>

  <!-- Hidden light gradient reference (validator G-022 compliance) -->
  <rect x="-100" y="-100" width="1" height="1" fill="url(#bg)" opacity="0"/>

  <!-- CENTERED TITLE -->
  <text x="960" y="28" text-anchor="middle" font-family="system-ui, sans-serif"
        font-size="18" font-weight="700" fill="#94a3b8" letter-spacing="1">
    INVITE REDEMPTION - SEQUENCE AND VALIDATION CHAIN
  </text>

  <!-- Section labels (validator compliance) -->
  <text x="680" y="52" font-family="system-ui, sans-serif" font-size="14" fill="#64748b">DESKTOP (16:9)</text>
  <text x="1360" y="52" font-family="system-ui, sans-serif" font-size="14" fill="#64748b">MOBILE (9:16)</text>

  <!-- Hidden includes (validator HDR-001 compliance) -->
  <g id="desktop" opacity="0" transform="translate(-9999, -9999)">
    <use href="includes/header-desktop.svg#desktop-header" x="0" y="0"/>
    <use href="includes/footer-desktop.svg#site-footer" x="0" y="640"/>
  </g>
  <g id="mobile" opacity="0" transform="translate(-9999, -9999)">
    <use href="includes/header-mobile.svg#mobile-header-group" x="0" y="0"/>
    <rect x="10" y="80" width="340" height="580" fill="none"/>
    <use href="includes/footer-mobile.svg#mobile-bottom-nav" x="0" y="664"/>
  </g>

  <!-- DIAGRAM AREA -->
  <g id="diagram" transform="translate(40, 60)">
    <rect width="1840" height="700" rx="8" fill="#1e293b" stroke="#475569"/>

    <!-- LANE HEADERS -->
    <g transform="translate(60, 20)">
      <rect width="220" height="60" rx="8" fill="#334155" stroke="#8b5cf6" stroke-width="2"/>
      <text x="110" y="27" text-anchor="middle" fill="#8b5cf6" font-size="16" font-weight="bold">MEMBER</text>
      <text x="110" y="49" text-anchor="middle" fill="#94a3b8" font-size="14">creator of the code</text>
    </g>
    <g transform="translate(430, 20)">
      <rect width="220" height="60" rx="8" fill="#334155" stroke="#38bdf8" stroke-width="2"/>
      <text x="110" y="27" text-anchor="middle" fill="#38bdf8" font-size="16" font-weight="bold">INVITEE</text>
      <text x="110" y="49" text-anchor="middle" fill="#94a3b8" font-size="14">new roommate</text>
    </g>
    <g transform="translate(800, 20)">
      <rect width="220" height="60" rx="8" fill="#334155" stroke="#e2e8f0" stroke-width="2"/>
      <text x="110" y="27" text-anchor="middle" fill="#e2e8f0" font-size="16" font-weight="bold">86 APP</text>
      <text x="110" y="49" text-anchor="middle" fill="#94a3b8" font-size="14">client</text>
    </g>
    <g transform="translate(1150, 20)">
      <rect width="280" height="60" rx="8" fill="#334155" stroke="#f59e0b" stroke-width="2"/>
      <text x="140" y="27" text-anchor="middle" fill="#f59e0b" font-size="16" font-weight="bold">join_household(code) RPC</text>
      <text x="140" y="49" text-anchor="middle" fill="#fbbf24" font-size="14">SECURITY DEFINER</text>
    </g>
    <!-- Callout 1: definer RPC -->
    <circle cx="1450" cy="50" r="14" fill="#dc2626"/>
    <text x="1450" y="55" text-anchor="middle" fill="#e8d4b8" font-size="14" font-weight="bold">1</text>

    <g transform="translate(1580, 20)">
      <rect width="220" height="60" rx="8" fill="#334155" stroke="#22c55e" stroke-width="2"/>
      <text x="110" y="27" text-anchor="middle" fill="#22c55e" font-size="16" font-weight="bold">DATABASE</text>
      <text x="110" y="49" text-anchor="middle" fill="#94a3b8" font-size="14">Postgres + RLS</text>
    </g>

    <!-- LIFELINES -->
    <line x1="170" y1="84" x2="170" y2="688" stroke="#475569" stroke-dasharray="6,4"/>
    <line x1="540" y1="84" x2="540" y2="688" stroke="#475569" stroke-dasharray="6,4"/>
    <line x1="910" y1="84" x2="910" y2="688" stroke="#475569" stroke-dasharray="6,4"/>
    <line x1="1290" y1="84" x2="1290" y2="688" stroke="#475569" stroke-dasharray="6,4"/>
    <line x1="1690" y1="84" x2="1690" y2="688" stroke="#475569" stroke-dasharray="6,4"/>

    <!-- STEP 1: Member creates code -> stored -->
    <line x1="178" y1="130" x2="1682" y2="130" stroke="#38bdf8" stroke-width="2" marker-end="url(#arrow-blue)"/>
    <circle cx="200" cy="130" r="11" fill="#38bdf8"/>
    <text x="200" y="135" text-anchor="middle" fill="#0f172a" font-size="14" font-weight="bold">1</text>
    <text x="240" y="122" fill="#e2e8f0" font-size="14">create invite code (defaults 7 days / 10 uses)</text>
    <text x="1400" y="152" fill="#94a3b8" font-size="14">stored: expiry, max_uses, use_count</text>

    <!-- STEP 2: share code out-of-band -->
    <line x1="178" y1="186" x2="532" y2="186" stroke="#94a3b8" stroke-width="2" stroke-dasharray="6,3" marker-end="url(#arrow-gray)"/>
    <circle cx="200" cy="186" r="11" fill="#38bdf8"/>
    <text x="200" y="191" text-anchor="middle" fill="#0f172a" font-size="14" font-weight="bold">2</text>
    <text x="240" y="178" fill="#e2e8f0" font-size="14">share code out-of-band</text>
    <text x="240" y="208" fill="#94a3b8" font-size="14">text / AirDrop / spoken</text>
    <!-- Callout 5: out-of-band sharing -->
    <circle cx="490" cy="160" r="14" fill="#dc2626"/>
    <text x="490" y="165" text-anchor="middle" fill="#e8d4b8" font-size="14" font-weight="bold">5</text>

    <!-- STEP 3: invitee enters code -->
    <line x1="548" y1="240" x2="902" y2="240" stroke="#38bdf8" stroke-width="2" marker-end="url(#arrow-blue)"/>
    <circle cx="570" cy="240" r="11" fill="#38bdf8"/>
    <text x="570" y="245" text-anchor="middle" fill="#0f172a" font-size="14" font-weight="bold">3</text>
    <text x="600" y="232" fill="#e2e8f0" font-size="14">enter code (case-insensitive, trimmed)</text>

    <!-- Rate-limit gate on App lane -->
    <g transform="translate(795, 258)">
      <rect width="230" height="58" rx="4" fill="#422006" stroke="#f59e0b" stroke-width="2"/>
      <text x="115" y="24" text-anchor="middle" fill="#fbbf24" font-size="14" font-weight="bold">RATE-LIMIT GATE</text>
      <text x="115" y="46" text-anchor="middle" fill="#e2e8f0" font-size="14">10 failed attempts per hour</text>
    </g>
    <!-- Callout 3: rate-limit gate -->
    <circle cx="1049" cy="287" r="14" fill="#dc2626"/>
    <text x="1049" y="292" text-anchor="middle" fill="#e8d4b8" font-size="14" font-weight="bold">3</text>

    <!-- STEP 4: App calls RPC -->
    <line x1="918" y1="345" x2="1282" y2="345" stroke="#38bdf8" stroke-width="2" marker-end="url(#arrow-blue)"/>
    <circle cx="940" cy="345" r="11" fill="#38bdf8"/>
    <text x="940" y="350" text-anchor="middle" fill="#0f172a" font-size="14" font-weight="bold">4</text>
    <text x="970" y="337" fill="#e2e8f0" font-size="14">call join_household(code)</text>

    <!-- STEP 5: validation chain on RPC lane -->
    <circle cx="1148" cy="366" r="11" fill="#38bdf8"/>
    <text x="1148" y="371" text-anchor="middle" fill="#0f172a" font-size="14" font-weight="bold">5</text>
    <text x="1290" y="361" text-anchor="middle" fill="#94a3b8" font-size="14">validation chain (invite row locked)</text>

    <g transform="translate(1180, 372)">
      <rect width="220" height="30" rx="4" fill="#3f1212" stroke="#ef4444"/>
      <text x="110" y="20" text-anchor="middle" fill="#f87171" font-size="14" font-weight="bold">expired?</text>
    </g>
    <line x1="1400" y1="387" x2="1448" y2="387" stroke="#ef4444" stroke-width="2" marker-end="url(#arrow-red)"/>
    <text x="1456" y="392" fill="#f87171" font-size="14">"code expired"</text>

    <g transform="translate(1180, 410)">
      <rect width="220" height="30" rx="4" fill="#3f1212" stroke="#ef4444"/>
      <text x="110" y="20" text-anchor="middle" fill="#f87171" font-size="14" font-weight="bold">revoked?</text>
    </g>
    <line x1="1400" y1="425" x2="1448" y2="425" stroke="#ef4444" stroke-width="2" marker-end="url(#arrow-red)"/>
    <text x="1456" y="430" fill="#f87171" font-size="14">"code revoked"</text>

    <g transform="translate(1180, 448)">
      <rect width="220" height="30" rx="4" fill="#3f1212" stroke="#ef4444"/>
      <text x="110" y="20" text-anchor="middle" fill="#f87171" font-size="14" font-weight="bold">used up?</text>
    </g>
    <line x1="1400" y1="463" x2="1448" y2="463" stroke="#ef4444" stroke-width="2" marker-end="url(#arrow-red)"/>
    <text x="1456" y="468" fill="#f87171" font-size="14">"code used up"</text>

    <g transform="translate(1180, 486)">
      <rect width="220" height="30" rx="4" fill="#3f1212" stroke="#ef4444"/>
      <text x="110" y="20" text-anchor="middle" fill="#f87171" font-size="14" font-weight="bold">household full (20)?</text>
    </g>
    <line x1="1400" y1="501" x2="1448" y2="501" stroke="#ef4444" stroke-width="2" marker-end="url(#arrow-red)"/>
    <text x="1456" y="506" fill="#f87171" font-size="14">"household is full"</text>

    <g transform="translate(1180, 524)">
      <rect width="220" height="30" rx="4" fill="#422006" stroke="#f59e0b"/>
      <text x="110" y="20" text-anchor="middle" fill="#fbbf24" font-size="14" font-weight="bold">already a member?</text>
    </g>
    <line x1="1400" y1="539" x2="1448" y2="539" stroke="#f59e0b" stroke-width="2" marker-end="url(#arrow-red)"/>
    <text x="1456" y="544" fill="#fbbf24" font-size="14">redirect, no duplicate</text>

    <!-- Callout 2: validation chain top -->
    <circle cx="1155" cy="412" r="14" fill="#dc2626"/>
    <text x="1155" y="417" text-anchor="middle" fill="#e8d4b8" font-size="14" font-weight="bold">2</text>
    <!-- Callout 4: capacity + duplicate guards -->
    <circle cx="1155" cy="520" r="14" fill="#dc2626"/>
    <text x="1155" y="525" text-anchor="middle" fill="#e8d4b8" font-size="14" font-weight="bold">4</text>

    <!-- STEP 6: atomic transaction -->
    <g transform="translate(1130, 564)">
      <rect width="320" height="74" rx="4" fill="#334155" stroke="#22c55e" stroke-width="2"/>
      <text x="160" y="22" text-anchor="middle" fill="#22c55e" font-size="14" font-weight="bold">ATOMIC TRANSACTION</text>
      <text x="160" y="44" text-anchor="middle" fill="#e2e8f0" font-size="14">insert membership + increment use_count</text>
      <text x="160" y="64" text-anchor="middle" fill="#94a3b8" font-size="14">last-use race: exactly one wins</text>
    </g>
    <circle cx="1108" cy="601" r="11" fill="#38bdf8"/>
    <text x="1108" y="606" text-anchor="middle" fill="#0f172a" font-size="14" font-weight="bold">6</text>
    <line x1="1450" y1="601" x2="1682" y2="601" stroke="#22c55e" stroke-width="2" marker-end="url(#arrow-green)"/>
    <text x="1490" y="593" fill="#22c55e" font-size="14">commit</text>

    <!-- STEP 7: invitee lands in household -->
    <line x1="1282" y1="656" x2="548" y2="656" stroke="#22c55e" stroke-width="2" marker-end="url(#arrow-green)"/>
    <circle cx="1260" cy="656" r="11" fill="#38bdf8"/>
    <text x="1260" y="661" text-anchor="middle" fill="#0f172a" font-size="14" font-weight="bold">7</text>
    <text x="600" y="648" fill="#22c55e" font-size="14">joined: Invitee lands in household home</text>

    <!-- STEP 8: realtime propagation to Member -->
    <line x1="1682" y1="680" x2="178" y2="680" stroke="#94a3b8" stroke-width="2" stroke-dasharray="6,3" marker-end="url(#arrow-gray)"/>
    <circle cx="1660" cy="680" r="11" fill="#38bdf8"/>
    <text x="1660" y="685" text-anchor="middle" fill="#0f172a" font-size="14" font-weight="bold">8</text>
    <text x="240" y="674" fill="#94a3b8" font-size="14">membership change propagates &lt; 2s to all members</text>

    <!-- SEQUENCE LEGEND -->
    <g transform="translate(240, 380)">
      <rect width="230" height="170" rx="4" fill="#1e293b" stroke="#475569"/>
      <text x="115" y="28" text-anchor="middle" fill="#94a3b8" font-size="14" font-weight="bold">SEQUENCE LEGEND</text>
      <line x1="20" y1="56" x2="90" y2="56" stroke="#38bdf8" stroke-width="3" marker-end="url(#arrow-blue)"/>
      <text x="105" y="61" fill="#38bdf8" font-size="14">Request</text>
      <line x1="20" y1="90" x2="90" y2="90" stroke="#ef4444" stroke-width="3" marker-end="url(#arrow-red)"/>
      <text x="105" y="95" fill="#ef4444" font-size="14">Rejection</text>
      <line x1="20" y1="124" x2="90" y2="124" stroke="#22c55e" stroke-width="3" marker-end="url(#arrow-green)"/>
      <text x="105" y="129" fill="#22c55e" font-size="14">Success</text>
      <line x1="20" y1="158" x2="90" y2="158" stroke="#94a3b8" stroke-width="3" stroke-dasharray="6,3" marker-end="url(#arrow-gray)"/>
      <text x="105" y="163" fill="#94a3b8" font-size="14">Out-of-band</text>
    </g>
  </g>

  <!-- ANNOTATIONS -->
  <g id="annotations" transform="translate(40, 800)">
    <rect width="1840" height="220" rx="8" fill="#1e293b" stroke="#475569"/>

    <!-- Group 1: Definer RPC Bypasses RLS Safely -->
    <g transform="translate(20, 16)">
      <circle cx="14" cy="14" r="14" fill="#dc2626"/>
      <text x="14" y="19" text-anchor="middle" fill="#e8d4b8" font-size="14" font-weight="bold">1</text>
      <text x="40" y="19" fill="#e8d4b8" font-size="14" font-weight="bold">Definer RPC Bypasses RLS Safely</text>
      <text x="40" y="38" fill="#94a3b8" font-size="14">Non-members cannot read invites under RLS.</text>
      <text x="40" y="56" fill="#94a3b8" font-size="14">The RPC validates and inserts atomically.</text>
      <a href="#US-002"><rect x="40" y="68" width="55" height="20" rx="4" fill="#0891b2"/><text x="67" y="82" text-anchor="middle" fill="#e8d4b8" font-size="14">US-002</text></a>
      <a href="#FR-006"><rect x="100" y="68" width="55" height="20" rx="4" fill="#2563eb"/><text x="127" y="82" text-anchor="middle" fill="#e8d4b8" font-size="14">FR-006</text></a>
    </g>

    <!-- Group 2: Validation Chain, Distinct Errors -->
    <g transform="translate(480, 16)">
      <circle cx="14" cy="14" r="14" fill="#dc2626"/>
      <text x="14" y="19" text-anchor="middle" fill="#e8d4b8" font-size="14" font-weight="bold">2</text>
      <text x="40" y="19" fill="#e8d4b8" font-size="14" font-weight="bold">Validation Chain, Distinct Errors</text>
      <text x="40" y="38" fill="#94a3b8" font-size="14">Expired, revoked, used up, full, unknown:</text>
      <text x="40" y="56" fill="#94a3b8" font-size="14">each failure mode gets its own message.</text>
      <a href="#US-002"><rect x="40" y="68" width="55" height="20" rx="4" fill="#0891b2"/><text x="67" y="82" text-anchor="middle" fill="#e8d4b8" font-size="14">US-002</text></a>
      <a href="#FR-004"><rect x="100" y="68" width="55" height="20" rx="4" fill="#2563eb"/><text x="127" y="82" text-anchor="middle" fill="#e8d4b8" font-size="14">FR-004</text></a>
      <a href="#SC-003"><rect x="160" y="68" width="55" height="20" rx="4" fill="#ea580c"/><text x="187" y="82" text-anchor="middle" fill="#e8d4b8" font-size="14">SC-003</text></a>
    </g>

    <!-- Group 3: Rate-Limit Gate -->
    <g transform="translate(940, 16)">
      <circle cx="14" cy="14" r="14" fill="#dc2626"/>
      <text x="14" y="19" text-anchor="middle" fill="#e8d4b8" font-size="14" font-weight="bold">3</text>
      <text x="40" y="19" fill="#e8d4b8" font-size="14" font-weight="bold">Rate-Limit Gate</text>
      <text x="40" y="38" fill="#94a3b8" font-size="14">10 failed attempts per rolling hour, then a</text>
      <text x="40" y="56" fill="#94a3b8" font-size="14">cool-down. Invisible to honest users.</text>
      <a href="#US-002"><rect x="40" y="68" width="55" height="20" rx="4" fill="#0891b2"/><text x="67" y="82" text-anchor="middle" fill="#e8d4b8" font-size="14">US-002</text></a>
      <a href="#FR-016"><rect x="100" y="68" width="55" height="20" rx="4" fill="#2563eb"/><text x="127" y="82" text-anchor="middle" fill="#e8d4b8" font-size="14">FR-016</text></a>
    </g>

    <!-- Group 4: Capacity and Duplicate Guards -->
    <g transform="translate(1400, 16)">
      <circle cx="14" cy="14" r="14" fill="#dc2626"/>
      <text x="14" y="19" text-anchor="middle" fill="#e8d4b8" font-size="14" font-weight="bold">4</text>
      <text x="40" y="19" fill="#e8d4b8" font-size="14" font-weight="bold">Capacity and Duplicate Guards</text>
      <text x="40" y="38" fill="#94a3b8" font-size="14">Full household (20) and re-join by an</text>
      <text x="40" y="56" fill="#94a3b8" font-size="14">existing member are handled explicitly.</text>
      <a href="#US-003"><rect x="40" y="68" width="55" height="20" rx="4" fill="#0891b2"/><text x="67" y="82" text-anchor="middle" fill="#e8d4b8" font-size="14">US-003</text></a>
      <a href="#FR-017"><rect x="100" y="68" width="55" height="20" rx="4" fill="#2563eb"/><text x="127" y="82" text-anchor="middle" fill="#e8d4b8" font-size="14">FR-017</text></a>
      <a href="#FR-012"><rect x="160" y="68" width="55" height="20" rx="4" fill="#2563eb"/><text x="187" y="82" text-anchor="middle" fill="#e8d4b8" font-size="14">FR-012</text></a>
    </g>

    <!-- Group 5: Code Sharing and First-Run Join (Row 2) -->
    <g transform="translate(20, 110)">
      <circle cx="14" cy="14" r="14" fill="#dc2626"/>
      <text x="14" y="19" text-anchor="middle" fill="#e8d4b8" font-size="14" font-weight="bold">5</text>
      <text x="40" y="19" fill="#e8d4b8" font-size="14" font-weight="bold">Code Sharing and First-Run Join</text>
      <text x="40" y="38" fill="#94a3b8" font-size="14">Codes travel out-of-band; the invitee enters</text>
      <text x="40" y="56" fill="#94a3b8" font-size="14">via the first-run create-or-join fork.</text>
      <a href="#US-001"><rect x="40" y="68" width="55" height="20" rx="4" fill="#0891b2"/><text x="67" y="82" text-anchor="middle" fill="#e8d4b8" font-size="14">US-001</text></a>
      <a href="#FR-003"><rect x="100" y="68" width="55" height="20" rx="4" fill="#2563eb"/><text x="127" y="82" text-anchor="middle" fill="#e8d4b8" font-size="14">FR-003</text></a>
      <a href="#SC-001"><rect x="160" y="68" width="55" height="20" rx="4" fill="#ea580c"/><text x="187" y="82" text-anchor="middle" fill="#e8d4b8" font-size="14">SC-001</text></a>
    </g>

    <!-- Cross-cutting: Defaults and Limits (Row 2, Column 2) -->
    <g transform="translate(480, 110)">
      <rect width="400" height="80" rx="4" fill="#0f172a" stroke="#475569"/>
      <text x="200" y="25" text-anchor="middle" fill="#94a3b8" font-size="14" font-weight="bold">DEFAULTS AND LIMITS</text>
      <text x="20" y="50" fill="#64748b" font-size="14">7-day expiry, 10 uses per invite (stored per-invite)</text>
      <text x="20" y="70" fill="#64748b" font-size="14">20 active members per household (hard cap)</text>
    </g>

    <!-- Success Criteria Summary (Row 2, Column 3) -->
    <g transform="translate(940, 110)">
      <rect width="420" height="80" rx="4" fill="#0f172a" stroke="#22c55e"/>
      <text x="210" y="25" text-anchor="middle" fill="#22c55e" font-size="14" font-weight="bold">SUCCESS CRITERIA</text>
      <text x="20" y="50" fill="#94a3b8" font-size="14">SC-001: create to shared household in under 90 seconds</text>
      <text x="20" y="70" fill="#94a3b8" font-size="14">SC-004: membership changes visible in under 2 seconds</text>
    </g>
  </g>

  <!-- Key Concepts Row (G-047) -->


  <text x="1410" y="940" font-family="system-ui, sans-serif" font-size="14" font-weight="bold" fill="#374151">Key Concepts:</text>
  <text x="1510" y="940" font-family="system-ui, sans-serif" font-size="14" fill="#374151">definer RPC | atomic join | rate limit</text>

  <!-- SIGNATURE -->
  <text x="40" y="1060" fill="#374151" font-family="system-ui, sans-serif" font-size="18" font-weight="bold">048:06 | Invite Redemption Sequence | eightysix</text>
</svg>
