<?xml version="1.0" encoding="UTF-8"?>
<svg xmlns="http://www.w3.org/2000/svg" viewBox="0 0 1920 1080" width="1920" height="1080">
  <defs>
    <linearGradient id="bg" x1="0%" y1="0%" x2="0%" y2="100%"><stop offset="0%" stop-color="#c7ddf5"/><stop offset="100%" stop-color="#b8d4f0"/></linearGradient>
  </defs>
  <rect width="1920" height="1080" fill="url(#bg)"/>
  <text x="960" y="28" text-anchor="middle" font-family="system-ui, sans-serif" font-size="18" font-weight="700" fill="#4b5563" letter-spacing="1">BLOG TAG - /blog/tags/[tag] (AS-IS)</text>
  <text x="40" y="52" fill="#8b5cf6" font-family="system-ui, sans-serif" font-size="18" font-weight="bold">DESKTOP (16:9)</text>
  <text x="1500" y="52" fill="#d946ef" font-family="system-ui, sans-serif" font-size="15" font-weight="bold">MOBILE</text>

  <g id="desktop" transform="translate(40, 60)">
    <rect width="1280" height="720" rx="8" fill="#e8d4b8" stroke="#b8a080"/>
    <use href="includes/header-desktop.svg#desktop-header" x="0" y="0"/>
    <rect x="480" y="3" width="90" height="44" rx="4" fill="#8b5cf6"/>
    <text x="525" y="31" text-anchor="middle" fill="#e8d4b8" font-family="system-ui, sans-serif" font-size="14" font-weight="600">Features</text>

    <!-- Breadcrumb -->
    <text x="100" y="96" font-family="system-ui, sans-serif" font-size="14" fill="#4b5563">
      <tspan fill="#8b5cf6">Blog</tspan> / <tspan fill="#8b5cf6">Tags</tspan> / <tspan fill="#1f2937" font-weight="600">supabase</tspan>
    </text>

    <text x="640" y="140" text-anchor="middle" font-family="system-ui, sans-serif" font-size="28" font-weight="bold" fill="#1f2937">Tag: supabase</text>
    <text x="640" y="168" text-anchor="middle" font-family="system-ui, sans-serif" font-size="14" fill="#4b5563">4 posts tagged "supabase"</text>

    <!-- Posts grid (3 cols, card-per-post) -->
    <g transform="translate(80, 200)">
      <rect x="0" y="0" width="340" height="200" rx="8" fill="#dcc8a8" stroke="#b8a080"/>
      <rect x="0" y="0" width="340" height="80" rx="8" fill="#8b5cf6"/>
      <text x="170" y="48" text-anchor="middle" font-family="system-ui, sans-serif" font-size="14" fill="#e8d4b8">[cover]</text>
      <text x="16" y="108" font-family="system-ui, sans-serif" font-size="16" font-weight="600" fill="#1f2937">Supabase auth in 10 min</text>
      <text x="16" y="130" font-family="system-ui, sans-serif" font-size="14" fill="#4b5563">2025-09-22 · 10 min</text>
      <rect x="16" y="148" width="84" height="22" rx="11" fill="#c7ddf5" stroke="#b8a080"/>
      <text x="58" y="164" text-anchor="middle" font-family="system-ui, sans-serif" font-size="14" fill="#1f2937">supabase</text>
      <rect x="108" y="148" width="56" height="22" rx="8" fill="#c7ddf5" stroke="#b8a080"/>
      <text x="133" y="164" text-anchor="middle" font-family="system-ui, sans-serif" font-size="14" fill="#1f2937">auth</text>

      <rect x="360" y="0" width="340" height="200" rx="8" fill="#dcc8a8" stroke="#b8a080"/>
      <rect x="360" y="0" width="340" height="80" rx="8" fill="#8b5cf6"/>
      <text x="530" y="48" text-anchor="middle" font-family="system-ui, sans-serif" font-size="14" fill="#e8d4b8">[cover]</text>
      <text x="376" y="108" font-family="system-ui, sans-serif" font-size="16" font-weight="600" fill="#1f2937">RLS policies that don't lie</text>
      <text x="376" y="130" font-family="system-ui, sans-serif" font-size="14" fill="#4b5563">2025-10-02 · 15 min</text>
      <rect x="376" y="148" width="84" height="22" rx="11" fill="#c7ddf5" stroke="#b8a080"/>
      <text x="418" y="164" text-anchor="middle" font-family="system-ui, sans-serif" font-size="14" fill="#1f2937">supabase</text>
      <rect x="468" y="148" width="74" height="22" rx="11" fill="#c7ddf5" stroke="#b8a080"/>
      <text x="505" y="164" text-anchor="middle" font-family="system-ui, sans-serif" font-size="14" fill="#1f2937">security</text>

      <rect x="720" y="0" width="340" height="200" rx="8" fill="#dcc8a8" stroke="#b8a080"/>
      <rect x="720" y="0" width="340" height="80" rx="8" fill="#8b5cf6"/>
      <text x="890" y="48" text-anchor="middle" font-family="system-ui, sans-serif" font-size="14" fill="#e8d4b8">[cover]</text>
      <text x="736" y="108" font-family="system-ui, sans-serif" font-size="16" font-weight="600" fill="#1f2937">Edge functions &amp; secrets</text>
      <text x="736" y="130" font-family="system-ui, sans-serif" font-size="14" fill="#4b5563">2025-10-14 · 9 min</text>
      <rect x="736" y="148" width="84" height="22" rx="11" fill="#c7ddf5" stroke="#b8a080"/>
      <text x="778" y="164" text-anchor="middle" font-family="system-ui, sans-serif" font-size="14" fill="#1f2937">supabase</text>
    </g>

    <!-- Second row -->
    <g transform="translate(80, 430)">
      <rect x="0" y="0" width="340" height="140" rx="8" fill="#dcc8a8" stroke="#b8a080"/>
      <rect x="0" y="0" width="340" height="50" rx="8" fill="#8b5cf6"/>
      <text x="170" y="30" text-anchor="middle" font-family="system-ui, sans-serif" font-size="14" fill="#e8d4b8">[cover]</text>
      <text x="16" y="78" font-family="system-ui, sans-serif" font-size="16" font-weight="600" fill="#1f2937">Realtime for beginners</text>
      <text x="16" y="100" font-family="system-ui, sans-serif" font-size="14" fill="#4b5563">2025-11-01 · 8 min</text>
      <rect x="16" y="114" width="84" height="22" rx="11" fill="#c7ddf5" stroke="#b8a080"/>
      <text x="58" y="130" text-anchor="middle" font-family="system-ui, sans-serif" font-size="14" fill="#1f2937">supabase</text>
    </g>

    <use href="includes/footer-desktop.svg#site-footer" x="0" y="640"/>

    <g class="callout"><circle cx="256" cy="96" r="14" fill="#dc2626"/><text x="256" y="101" text-anchor="middle" fill="#fff" font-size="14" font-weight="bold">1</text></g>
    <g class="callout"><circle cx="640" cy="168" r="14" fill="#dc2626"/><text x="640" y="173" text-anchor="middle" fill="#fff" font-size="14" font-weight="bold">2</text></g>
    <g class="callout"><circle cx="250" cy="310" r="14" fill="#dc2626"/><text x="250" y="315" text-anchor="middle" fill="#fff" font-size="14" font-weight="bold">3</text></g>
    <g class="callout"><circle cx="250" cy="570" r="14" fill="#dc2626"/><text x="250" y="575" text-anchor="middle" fill="#fff" font-size="14" font-weight="bold">4</text></g>
  </g>

  <g id="mobile" transform="translate(1360, 60)">
    <rect width="360" height="720" rx="24" fill="#e8d4b8" stroke="#b8a080"/>
    <use href="includes/header-mobile.svg#mobile-header-group" x="0" y="0"/>

    <text x="20" y="112" font-family="system-ui, sans-serif" font-size="14" fill="#4b5563">Blog / Tags /</text>
    <text x="180" y="140" text-anchor="middle" font-family="system-ui, sans-serif" font-size="22" font-weight="bold" fill="#1f2937">Tag: supabase</text>
    <text x="180" y="164" text-anchor="middle" font-family="system-ui, sans-serif" font-size="14" fill="#4b5563">4 posts</text>

    <rect x="16" y="184" width="328" height="144" rx="8" fill="#dcc8a8" stroke="#b8a080"/>
    <rect x="16" y="184" width="328" height="54" rx="8" fill="#8b5cf6"/>
    <text x="180" y="216" text-anchor="middle" font-family="system-ui, sans-serif" font-size="14" fill="#e8d4b8">[cover]</text>
    <text x="32" y="258" font-family="system-ui, sans-serif" font-size="14" font-weight="600" fill="#1f2937">Supabase auth in 10 min</text>
    <text x="32" y="276" font-family="system-ui, sans-serif" font-size="14" fill="#4b5563">2025-09-22 · 10 min</text>
    <rect x="32" y="292" width="80" height="22" rx="11" fill="#c7ddf5" stroke="#b8a080"/>
    <text x="72" y="308" text-anchor="middle" font-family="system-ui, sans-serif" font-size="14" fill="#1f2937">supabase</text>

    <rect x="16" y="348" width="328" height="144" rx="8" fill="#dcc8a8" stroke="#b8a080"/>
    <rect x="16" y="348" width="328" height="54" rx="8" fill="#8b5cf6"/>
    <text x="180" y="380" text-anchor="middle" font-family="system-ui, sans-serif" font-size="14" fill="#e8d4b8">[cover]</text>
    <text x="32" y="422" font-family="system-ui, sans-serif" font-size="14" font-weight="600" fill="#1f2937">RLS policies that don't lie</text>
    <text x="32" y="440" font-family="system-ui, sans-serif" font-size="14" fill="#4b5563">2025-10-02 · 15 min</text>

    <use href="includes/footer-mobile.svg#mobile-bottom-nav" x="0" y="664"/>
    <g class="callout"><circle cx="180" cy="140" r="11" fill="#dc2626"/><text x="180" y="145" text-anchor="middle" fill="#fff" font-size="14" font-weight="bold">2</text></g>
  </g>

  <g id="annotations" transform="translate(40, 800)">
    <rect width="1840" height="220" rx="8" fill="#dcc8a8" stroke="#b8a080"/>
    <g transform="translate(20, 16)">
      <circle cx="14" cy="14" r="12" fill="#dc2626"/>
      <text x="14" y="19" text-anchor="middle" fill="#fff" font-size="14" font-weight="bold">1</text>
      <text x="38" y="19" font-family="system-ui, sans-serif" font-size="14" font-weight="700" fill="#1f2937">Breadcrumb</text>
      <a href="#us-001" transform="translate(140, 5)"><rect width="56" height="22" rx="11" fill="#0891b2"/><text x="28" y="17" text-anchor="middle" fill="#f5f0e6" font-size="14" font-weight="700">US-001</text></a>
      <text x="38" y="44" font-family="system-ui, sans-serif" font-size="14" fill="#374151">Blog / Tags / [tag] — gives readers a one-click</text>
      <text x="38" y="62" font-family="system-ui, sans-serif" font-size="14" fill="#374151">escape back to the cloud.</text>
    </g>
    <g transform="translate(480, 16)">
      <circle cx="14" cy="14" r="12" fill="#dc2626"/>
      <text x="14" y="19" text-anchor="middle" fill="#fff" font-size="14" font-weight="bold">2</text>
      <text x="38" y="19" font-family="system-ui, sans-serif" font-size="14" font-weight="700" fill="#1f2937">Page header + count</text>
      <a href="#us-002" transform="translate(230, 5)"><rect width="56" height="22" rx="11" fill="#0891b2"/><text x="28" y="17" text-anchor="middle" fill="#f5f0e6" font-size="14" font-weight="700">US-002</text></a>
      <text x="38" y="44" font-family="system-ui, sans-serif" font-size="14" fill="#374151">h1 "Tag: [slug]" + post count. Route param</text>
      <text x="38" y="62" font-family="system-ui, sans-serif" font-size="14" fill="#374151">generated at build via generateStaticParams.</text>
    </g>
    <g transform="translate(940, 16)">
      <circle cx="14" cy="14" r="12" fill="#dc2626"/>
      <text x="14" y="19" text-anchor="middle" fill="#fff" font-size="14" font-weight="bold">3</text>
      <text x="38" y="19" font-family="system-ui, sans-serif" font-size="14" font-weight="700" fill="#1f2937">Filtered post grid</text>
      <a href="#us-003" transform="translate(200, 5)"><rect width="56" height="22" rx="11" fill="#0891b2"/><text x="28" y="17" text-anchor="middle" fill="#f5f0e6" font-size="14" font-weight="700">US-003</text></a>
      <text x="38" y="44" font-family="system-ui, sans-serif" font-size="14" fill="#374151">Same BlogPostCard as /blog index, but the post</text>
      <text x="38" y="62" font-family="system-ui, sans-serif" font-size="14" fill="#374151">list is prefiltered to those matching this tag.</text>
    </g>
    <g transform="translate(1400, 16)">
      <circle cx="14" cy="14" r="12" fill="#dc2626"/>
      <text x="14" y="19" text-anchor="middle" fill="#fff" font-size="14" font-weight="bold">4</text>
      <text x="38" y="19" font-family="system-ui, sans-serif" font-size="14" font-weight="700" fill="#1f2937">Overflow row</text>
      <a href="#us-004" transform="translate(150, 5)"><rect width="56" height="22" rx="11" fill="#0891b2"/><text x="28" y="17" text-anchor="middle" fill="#f5f0e6" font-size="14" font-weight="700">US-004</text></a>
      <text x="38" y="44" font-family="system-ui, sans-serif" font-size="14" fill="#374151">Tags with more than 3 posts wrap to additional</text>
      <text x="38" y="62" font-family="system-ui, sans-serif" font-size="14" fill="#374151">grid rows. No pagination — expected tag scale.</text>
    </g>
    <g transform="translate(20, 130)">
      <text x="0" y="19" font-family="system-ui, sans-serif" font-size="14" font-weight="700" fill="#4b5563" letter-spacing="1">WHAT SHIPS</text>
      <text x="0" y="44" font-family="system-ui, sans-serif" font-size="14" fill="#374151">Source: src/app/blog/tags/[tag]/page.tsx — dynamic SSG, one page per tag at build time.</text>
      <text x="0" y="64" font-family="system-ui, sans-serif" font-size="14" fill="#374151">Each card links back to /blog/[slug]. Tag pages share exact card markup with /blog for consistency.</text>
    </g>
  </g>
  <text x="40" y="1060" fill="#374151" font-family="system-ui, sans-serif" font-size="18" font-weight="bold">999:23 | Blog Tag (as-is /blog/tags/[tag]) | ScriptHammer</text>
</svg>
